<svg class="main-svg" xmlns="http://www.w3.org/2000/svg" xmlns:xlink="http://www.w3.org/1999/xlink" width="700" height="500" style="" viewBox="0 0 700 500"><rect x="0" y="0" width="700" height="500" style="fill: rgb(255, 255, 255); fill-opacity: 1;"/><defs id="defs-9cfaa4"><g class="clips"><clipPath id="clip9cfaa4xyplot" class="plotclip"><rect width="539" height="320"/></clipPath><clipPath class="axesclip" id="clip9cfaa4x"><rect x="80" y="0" width="539" height="500"/></clipPath><clipPath class="axesclip" id="clip9cfaa4y"><rect x="0" y="100" width="700" height="320"/></clipPath><clipPath class="axesclip" id="clip9cfaa4xy"><rect x="80" y="100" width="539" height="320"/></clipPath></g><g class="gradients"/><g class="patterns"/></defs><g class="bglayer"><rect class="bg" x="80" y="100" width="539" height="320" style="fill: rgb(229, 236, 246); fill-opacity: 1; stroke-width: 0;"/></g><g class="layer-below"><g class="imagelayer"/><g class="shapelayer"/></g><g class="cartesianlayer"><g class="subplot xy"><g class="layer-subplot"><g class="shapelayer"/><g class="imagelayer"/></g><g class="gridlayer"><g class="x"><path class="xgrid crisp" transform="translate(208.8,0)" d="M0,100v320" style="stroke: rgb(255, 255, 255); stroke-opacity: 1; stroke-width: 1px;"/><path class="xgrid crisp" transform="translate(310.64,0)" d="M0,100v320" style="stroke: rgb(255, 255, 255); stroke-opacity: 1; stroke-width: 1px;"/><path class="xgrid crisp" transform="translate(412.49,0)" d="M0,100v320" style="stroke: rgb(255, 255, 255); stroke-opacity: 1; stroke-width: 1px;"/><path class="xgrid crisp" transform="translate(514.3299999999999,0)" d="M0,100v320" style="stroke: rgb(255, 255, 255); stroke-opacity: 1; stroke-width: 1px;"/><path class="xgrid crisp" transform="translate(616.17,0)" d="M0,100v320" style="stroke: rgb(255, 255, 255); stroke-opacity: 1; stroke-width: 1px;"/></g><g class="y"><path class="ygrid crisp" transform="translate(0,322.34000000000003)" d="M80,0h539" style="stroke: rgb(255, 255, 255); stroke-opacity: 1; stroke-width: 1px;"/><path class="ygrid crisp" transform="translate(0,247.97)" d="M80,0h539" style="stroke: rgb(255, 255, 255); stroke-opacity: 1; stroke-width: 1px;"/><path class="ygrid crisp" transform="translate(0,173.59)" d="M80,0h539" style="stroke: rgb(255, 255, 255); stroke-opacity: 1; stroke-width: 1px;"/></g></g><g class="zerolinelayer"><path class="xzl zl crisp" transform="translate(106.96000000000001,0)" d="M0,100v320" style="stroke: rgb(255, 255, 255); stroke-opacity: 1; stroke-width: 2px;"/><path class="yzl zl crisp" transform="translate(0,396.72)" d="M80,0h539" style="stroke: rgb(255, 255, 255); stroke-opacity: 1; stroke-width: 2px;"/></g><path class="xlines-below"/><path class="ylines-below"/><g class="overlines-below"/><g class="xaxislayer-below"/><g class="yaxislayer-below"/><g class="overaxes-below"/><g class="plot" transform="translate(80,100)" clip-path="url(#clip9cfaa4xyplot)"><g class="scatterlayer mlayer"><g class="trace scatter trace6edf38" style="stroke-miterlimit: 2; opacity: 1;"><g class="fills"/><g class="errorbars"/><g class="lines"/><g class="points"><path class="point plotly-customdata" transform="translate(93.09,156.91)" d="M3,0A3,3 0 1,1 0,-3A3,3 0 0,1 3,0Z" style="opacity: 1; stroke-width: 0px; fill: rgb(114, 255, 100); fill-opacity: 1;"/><path class="point plotly-customdata" transform="translate(71.63,157.68)" d="M3,0A3,3 0 1,1 0,-3A3,3 0 0,1 3,0Z" style="opacity: 1; stroke-width: 0px; fill: rgb(114, 255, 100); fill-opacity: 1;"/><path class="point plotly-customdata" transform="translate(59.78,156.31)" d="M3,0A3,3 0 1,1 0,-3A3,3 0 0,1 3,0Z" style="opacity: 1; stroke-width: 0px; fill: rgb(114, 255, 100); fill-opacity: 1;"/><path class="point plotly-customdata" transform="translate(54.95,275.28)" d="M3,0A3,3 0 1,1 0,-3A3,3 0 0,1 3,0Z" style="opacity: 1; stroke-width: 0px; fill: rgb(114, 255, 100); fill-opacity: 1;"/><path class="point plotly-customdata" transform="translate(62.55,200.96)" d="M3,0A3,3 0 1,1 0,-3A3,3 0 0,1 3,0Z" style="opacity: 1; stroke-width: 0px; fill: rgb(114, 255, 100); fill-opacity: 1;"/><path class="point plotly-customdata" transform="translate(82.98,122.98)" d="M3,0A3,3 0 1,1 0,-3A3,3 0 0,1 3,0Z" style="opacity: 1; stroke-width: 0px; fill: rgb(114, 255, 100); fill-opacity: 1;"/><path class="point plotly-customdata" transform="translate(104.11,134.78)" d="M3,0A3,3 0 1,1 0,-3A3,3 0 0,1 3,0Z" style="opacity: 1; stroke-width: 0px; fill: rgb(114, 255, 100); fill-opacity: 1;"/><path class="point plotly-customdata" transform="translate(101.3,141.17)" d="M3,0A3,3 0 1,1 0,-3A3,3 0 0,1 3,0Z" style="opacity: 1; stroke-width: 0px; fill: rgb(114, 255, 100); fill-opacity: 1;"/><path class="point plotly-customdata" transform="translate(58.92,168.41)" d="M3,0A3,3 0 1,1 0,-3A3,3 0 0,1 3,0Z" style="opacity: 1; stroke-width: 0px; fill: rgb(114, 255, 100); fill-opacity: 1;"/><path class="point plotly-customdata" transform="translate(50.97,259.67)" d="M3,0A3,3 0 1,1 0,-3A3,3 0 0,1 3,0Z" style="opacity: 1; stroke-width: 0px; fill: rgb(114, 255, 100); fill-opacity: 1;"/><path class="point plotly-customdata" transform="translate(77.24,256.69)" d="M3,0A3,3 0 1,1 0,-3A3,3 0 0,1 3,0Z" style="opacity: 1; stroke-width: 0px; fill: rgb(114, 255, 100); fill-opacity: 1;"/><path class="point plotly-customdata" transform="translate(55.99,155.49)" d="M3,0A3,3 0 1,1 0,-3A3,3 0 0,1 3,0Z" style="opacity: 1; stroke-width: 0px; fill: rgb(114, 255, 100); fill-opacity: 1;"/><path class="point plotly-customdata" transform="translate(40.81,279.54)" d="M3,0A3,3 0 1,1 0,-3A3,3 0 0,1 3,0Z" style="opacity: 1; stroke-width: 0px; fill: rgb(114, 255, 100); fill-opacity: 1;"/><path class="point plotly-customdata" transform="translate(57.26,222.36)" d="M3,0A3,3 0 1,1 0,-3A3,3 0 0,1 3,0Z" style="opacity: 1; stroke-width: 0px; fill: rgb(114, 255, 100); fill-opacity: 1;"/><path class="point plotly-customdata" transform="translate(134.47,117.34)" d="M3,0A3,3 0 1,1 0,-3A3,3 0 0,1 3,0Z" style="opacity: 1; stroke-width: 0px; fill: rgb(114, 255, 100); fill-opacity: 1;"/><path class="point plotly-customdata" transform="translate(169.73,238.59)" d="M3,0A3,3 0 1,1 0,-3A3,3 0 0,1 3,0Z" style="opacity: 1; stroke-width: 0px; fill: rgb(114, 255, 100); fill-opacity: 1;"/><path class="point plotly-customdata" transform="translate(50.1,207)" d="M3,0A3,3 0 1,1 0,-3A3,3 0 0,1 3,0Z" style="opacity: 1; stroke-width: 0px; fill: rgb(114, 255, 100); fill-opacity: 1;"/><path class="point plotly-customdata" transform="translate(71.38,145.36)" d="M3,0A3,3 0 1,1 0,-3A3,3 0 0,1 3,0Z" style="opacity: 1; stroke-width: 0px; fill: rgb(114, 255, 100); fill-opacity: 1;"/><path class="point plotly-customdata" transform="translate(51.03,104.24)" d="M3,0A3,3 0 1,1 0,-3A3,3 0 0,1 3,0Z" style="opacity: 1; stroke-width: 0px; fill: rgb(114, 255, 100); fill-opacity: 1;"/><path class="point plotly-customdata" transform="translate(71.62,179.99)" d="M3,0A3,3 0 1,1 0,-3A3,3 0 0,1 3,0Z" style="opacity: 1; stroke-width: 0px; fill: rgb(114, 255, 100); fill-opacity: 1;"/><path class="point plotly-customdata" transform="translate(84.47,161.08)" d="M3,0A3,3 0 1,1 0,-3A3,3 0 0,1 3,0Z" style="opacity: 1; stroke-width: 0px; fill: rgb(114, 255, 100); fill-opacity: 1;"/><path class="point plotly-customdata" transform="translate(91.39,263.89)" d="M3,0A3,3 0 1,1 0,-3A3,3 0 0,1 3,0Z" style="opacity: 1; stroke-width: 0px; fill: rgb(114, 255, 100); fill-opacity: 1;"/><path class="point plotly-customdata" transform="translate(66.44,195.21)" d="M3,0A3,3 0 1,1 0,-3A3,3 0 0,1 3,0Z" style="opacity: 1; stroke-width: 0px; fill: rgb(114, 255, 100); fill-opacity: 1;"/><path class="point plotly-customdata" transform="translate(95.77,188.03)" d="M3,0A3,3 0 1,1 0,-3A3,3 0 0,1 3,0Z" style="opacity: 1; stroke-width: 0px; fill: rgb(114, 255, 100); fill-opacity: 1;"/><path class="point plotly-customdata" transform="translate(76.39,139.16)" d="M3,0A3,3 0 1,1 0,-3A3,3 0 0,1 3,0Z" style="opacity: 1; stroke-width: 0px; fill: rgb(114, 255, 100); fill-opacity: 1;"/><path class="point plotly-customdata" transform="translate(120.8,240.02)" d="M3,0A3,3 0 1,1 0,-3A3,3 0 0,1 3,0Z" style="opacity: 1; stroke-width: 0px; fill: rgb(114, 255, 100); fill-opacity: 1;"/><path class="point plotly-customdata" transform="translate(57.44,158.24)" d="M3,0A3,3 0 1,1 0,-3A3,3 0 0,1 3,0Z" style="opacity: 1; stroke-width: 0px; fill: rgb(114, 255, 100); fill-opacity: 1;"/><path class="point plotly-customdata" transform="translate(53.24,137.11)" d="M3,0A3,3 0 1,1 0,-3A3,3 0 0,1 3,0Z" style="opacity: 1; stroke-width: 0px; fill: rgb(114, 255, 100); fill-opacity: 1;"/><path class="point plotly-customdata" transform="translate(64.38,153.04)" d="M3,0A3,3 0 1,1 0,-3A3,3 0 0,1 3,0Z" style="opacity: 1; stroke-width: 0px; fill: rgb(114, 255, 100); fill-opacity: 1;"/><path class="point plotly-customdata" transform="translate(61.92,233.3)" d="M3,0A3,3 0 1,1 0,-3A3,3 0 0,1 3,0Z" style="opacity: 1; stroke-width: 0px; fill: rgb(114, 255, 100); fill-opacity: 1;"/><path class="point plotly-customdata" transform="translate(41.32,220.71)" d="M3,0A3,3 0 1,1 0,-3A3,3 0 0,1 3,0Z" style="opacity: 1; stroke-width: 0px; fill: rgb(114, 255, 100); fill-opacity: 1;"/><path class="point plotly-customdata" transform="translate(113.73,131.77)" d="M3,0A3,3 0 1,1 0,-3A3,3 0 0,1 3,0Z" style="opacity: 1; stroke-width: 0px; fill: rgb(114, 255, 100); fill-opacity: 1;"/><path class="point plotly-customdata" transform="translate(93.65,172.31)" d="M3,0A3,3 0 1,1 0,-3A3,3 0 0,1 3,0Z" style="opacity: 1; stroke-width: 0px; fill: rgb(114, 255, 100); fill-opacity: 1;"/><path class="point plotly-customdata" transform="translate(63.88,178.22)" d="M3,0A3,3 0 1,1 0,-3A3,3 0 0,1 3,0Z" style="opacity: 1; stroke-width: 0px; fill: rgb(114, 255, 100); fill-opacity: 1;"/><path class="point plotly-customdata" transform="translate(46.17,167.35)" d="M3,0A3,3 0 1,1 0,-3A3,3 0 0,1 3,0Z" style="opacity: 1; stroke-width: 0px; fill: rgb(114, 255, 100); fill-opacity: 1;"/><path class="point plotly-customdata" transform="translate(64.25,164.55)" d="M3,0A3,3 0 1,1 0,-3A3,3 0 0,1 3,0Z" style="opacity: 1; stroke-width: 0px; fill: rgb(114, 255, 100); fill-opacity: 1;"/><path class="point plotly-customdata" transform="translate(79.08,229.48)" d="M3,0A3,3 0 1,1 0,-3A3,3 0 0,1 3,0Z" style="opacity: 1; stroke-width: 0px; fill: rgb(114, 255, 100); fill-opacity: 1;"/><path class="point plotly-customdata" transform="translate(35.51,239.42)" d="M3,0A3,3 0 1,1 0,-3A3,3 0 0,1 3,0Z" style="opacity: 1; stroke-width: 0px; fill: rgb(114, 255, 100); fill-opacity: 1;"/><path class="point plotly-customdata" transform="translate(71.13,248.94)" d="M3,0A3,3 0 1,1 0,-3A3,3 0 0,1 3,0Z" style="opacity: 1; stroke-width: 0px; fill: rgb(114, 255, 100); fill-opacity: 1;"/><path class="point plotly-customdata" transform="translate(122.76,154.9)" d="M3,0A3,3 0 1,1 0,-3A3,3 0 0,1 3,0Z" style="opacity: 1; stroke-width: 0px; fill: rgb(114, 255, 100); fill-opacity: 1;"/><path class="point plotly-customdata" transform="translate(140,95.02)" d="M3,0A3,3 0 1,1 0,-3A3,3 0 0,1 3,0Z" style="opacity: 1; stroke-width: 0px; fill: rgb(114, 255, 100); fill-opacity: 1;"/><path class="point plotly-customdata" transform="translate(31.8,255.45)" d="M3,0A3,3 0 1,1 0,-3A3,3 0 0,1 3,0Z" style="opacity: 1; stroke-width: 0px; fill: rgb(114, 255, 100); fill-opacity: 1;"/><path class="point plotly-customdata" transform="translate(48.42,241.82)" d="M3,0A3,3 0 1,1 0,-3A3,3 0 0,1 3,0Z" style="opacity: 1; stroke-width: 0px; fill: rgb(114, 255, 100); fill-opacity: 1;"/><path class="point plotly-customdata" transform="translate(71.01,130.6)" d="M3,0A3,3 0 1,1 0,-3A3,3 0 0,1 3,0Z" style="opacity: 1; stroke-width: 0px; fill: rgb(114, 255, 100); fill-opacity: 1;"/><path class="point plotly-customdata" transform="translate(72.44,170.04)" d="M3,0A3,3 0 1,1 0,-3A3,3 0 0,1 3,0Z" style="opacity: 1; stroke-width: 0px; fill: rgb(114, 255, 100); fill-opacity: 1;"/><path class="point plotly-customdata" transform="translate(35.14,173.91)" d="M3,0A3,3 0 1,1 0,-3A3,3 0 0,1 3,0Z" style="opacity: 1; stroke-width: 0px; fill: rgb(114, 255, 100); fill-opacity: 1;"/><path class="point plotly-customdata" transform="translate(62.13,88.73)" d="M3,0A3,3 0 1,1 0,-3A3,3 0 0,1 3,0Z" style="opacity: 1; stroke-width: 0px; fill: rgb(114, 255, 100); fill-opacity: 1;"/><path class="point plotly-customdata" transform="translate(56.69,202.82)" d="M3,0A3,3 0 1,1 0,-3A3,3 0 0,1 3,0Z" style="opacity: 1; stroke-width: 0px; fill: rgb(114, 255, 100); fill-opacity: 1;"/><path class="point plotly-customdata" transform="translate(40.2,159.08)" d="M3,0A3,3 0 1,1 0,-3A3,3 0 0,1 3,0Z" style="opacity: 1; stroke-width: 0px; fill: rgb(114, 255, 100); fill-opacity: 1;"/><path class="point plotly-customdata" transform="translate(77.92,145.97)" d="M3,0A3,3 0 1,1 0,-3A3,3 0 0,1 3,0Z" style="opacity: 1; stroke-width: 0px; fill: rgb(114, 255, 100); fill-opacity: 1;"/><path class="point plotly-customdata" transform="translate(73.76,170.3)" d="M3,0A3,3 0 1,1 0,-3A3,3 0 0,1 3,0Z" style="opacity: 1; stroke-width: 0px; fill: rgb(114, 255, 100); fill-opacity: 1;"/><path class="point plotly-customdata" transform="translate(223.95,122.99)" d="M3,0A3,3 0 1,1 0,-3A3,3 0 0,1 3,0Z" style="opacity: 1; stroke-width: 0px; fill: rgb(114, 255, 100); fill-opacity: 1;"/><path class="point plotly-customdata" transform="translate(68.52,199.33)" d="M3,0A3,3 0 1,1 0,-3A3,3 0 0,1 3,0Z" style="opacity: 1; stroke-width: 0px; fill: rgb(114, 255, 100); fill-opacity: 1;"/><path class="point plotly-customdata" transform="translate(72.04,147.43)" d="M3,0A3,3 0 1,1 0,-3A3,3 0 0,1 3,0Z" style="opacity: 1; stroke-width: 0px; fill: rgb(114, 255, 100); fill-opacity: 1;"/><path class="point plotly-customdata" transform="translate(114.46,227.05)" d="M3,0A3,3 0 1,1 0,-3A3,3 0 0,1 3,0Z" style="opacity: 1; stroke-width: 0px; fill: rgb(114, 255, 100); fill-opacity: 1;"/><path class="point plotly-customdata" transform="translate(98.74,113.72)" d="M3,0A3,3 0 1,1 0,-3A3,3 0 0,1 3,0Z" style="opacity: 1; stroke-width: 0px; fill: rgb(114, 255, 100); fill-opacity: 1;"/><path class="point plotly-customdata" transform="translate(39.98,279.11)" d="M3,0A3,3 0 1,1 0,-3A3,3 0 0,1 3,0Z" style="opacity: 1; stroke-width: 0px; fill: rgb(114, 255, 100); fill-opacity: 1;"/><path class="point plotly-customdata" transform="translate(51.09,175.65)" d="M3,0A3,3 0 1,1 0,-3A3,3 0 0,1 3,0Z" style="opacity: 1; stroke-width: 0px; fill: rgb(114, 255, 100); fill-opacity: 1;"/><path class="point plotly-customdata" transform="translate(123,231.46)" d="M3,0A3,3 0 1,1 0,-3A3,3 0 0,1 3,0Z" style="opacity: 1; stroke-width: 0px; fill: rgb(114, 255, 100); fill-opacity: 1;"/><path class="point plotly-customdata" transform="translate(105.63,136.2)" d="M3,0A3,3 0 1,1 0,-3A3,3 0 0,1 3,0Z" style="opacity: 1; stroke-width: 0px; fill: rgb(114, 255, 100); fill-opacity: 1;"/><path class="point plotly-customdata" transform="translate(57.15,140.52)" d="M3,0A3,3 0 1,1 0,-3A3,3 0 0,1 3,0Z" style="opacity: 1; stroke-width: 0px; fill: rgb(114, 255, 100); fill-opacity: 1;"/><path class="point plotly-customdata" transform="translate(121.67,237.04)" d="M3,0A3,3 0 1,1 0,-3A3,3 0 0,1 3,0Z" style="opacity: 1; stroke-width: 0px; fill: rgb(114, 255, 100); fill-opacity: 1;"/><path class="point plotly-customdata" transform="translate(58.49,104.8)" d="M3,0A3,3 0 1,1 0,-3A3,3 0 0,1 3,0Z" style="opacity: 1; stroke-width: 0px; fill: rgb(114, 255, 100); fill-opacity: 1;"/><path class="point plotly-customdata" transform="translate(87.07,169.2)" d="M3,0A3,3 0 1,1 0,-3A3,3 0 0,1 3,0Z" style="opacity: 1; stroke-width: 0px; fill: rgb(114, 255, 100); fill-opacity: 1;"/><path class="point plotly-customdata" transform="translate(30.7,231.63)" d="M3,0A3,3 0 1,1 0,-3A3,3 0 0,1 3,0Z" style="opacity: 1; stroke-width: 0px; fill: rgb(114, 255, 100); fill-opacity: 1;"/><path class="point plotly-customdata" transform="translate(74.25,193.84)" d="M3,0A3,3 0 1,1 0,-3A3,3 0 0,1 3,0Z" style="opacity: 1; stroke-width: 0px; fill: rgb(114, 255, 100); fill-opacity: 1;"/><path class="point plotly-customdata" transform="translate(137.05,191.34)" d="M3,0A3,3 0 1,1 0,-3A3,3 0 0,1 3,0Z" style="opacity: 1; stroke-width: 0px; fill: rgb(114, 255, 100); fill-opacity: 1;"/><path class="point plotly-customdata" transform="translate(70.75,240.55)" d="M3,0A3,3 0 1,1 0,-3A3,3 0 0,1 3,0Z" style="opacity: 1; stroke-width: 0px; fill: rgb(114, 255, 100); fill-opacity: 1;"/><path class="point plotly-customdata" transform="translate(65.19,204.36)" d="M3,0A3,3 0 1,1 0,-3A3,3 0 0,1 3,0Z" style="opacity: 1; stroke-width: 0px; fill: rgb(114, 255, 100); fill-opacity: 1;"/><path class="point plotly-customdata" transform="translate(67.29,152.52)" d="M3,0A3,3 0 1,1 0,-3A3,3 0 0,1 3,0Z" style="opacity: 1; stroke-width: 0px; fill: rgb(114, 255, 100); fill-opacity: 1;"/><path class="point plotly-customdata" transform="translate(49.25,161.35)" d="M3,0A3,3 0 1,1 0,-3A3,3 0 0,1 3,0Z" style="opacity: 1; stroke-width: 0px; fill: rgb(114, 255, 100); fill-opacity: 1;"/><path class="point plotly-customdata" transform="translate(76.87,222.84)" d="M3,0A3,3 0 1,1 0,-3A3,3 0 0,1 3,0Z" style="opacity: 1; stroke-width: 0px; fill: rgb(114, 255, 100); fill-opacity: 1;"/><path class="point plotly-customdata" transform="translate(43.21,218.19)" d="M3,0A3,3 0 1,1 0,-3A3,3 0 0,1 3,0Z" style="opacity: 1; stroke-width: 0px; fill: rgb(114, 255, 100); fill-opacity: 1;"/><path class="point plotly-customdata" transform="translate(43.95,244.15)" d="M3,0A3,3 0 1,1 0,-3A3,3 0 0,1 3,0Z" style="opacity: 1; stroke-width: 0px; fill: rgb(114, 255, 100); fill-opacity: 1;"/><path class="point plotly-customdata" transform="translate(75.88,267.14)" d="M3,0A3,3 0 1,1 0,-3A3,3 0 0,1 3,0Z" style="opacity: 1; stroke-width: 0px; fill: rgb(114, 255, 100); fill-opacity: 1;"/><path class="point plotly-customdata" transform="translate(71.71,157.85)" d="M3,0A3,3 0 1,1 0,-3A3,3 0 0,1 3,0Z" style="opacity: 1; stroke-width: 0px; fill: rgb(114, 255, 100); fill-opacity: 1;"/><path class="point plotly-customdata" transform="translate(113.5,252.48)" d="M3,0A3,3 0 1,1 0,-3A3,3 0 0,1 3,0Z" style="opacity: 1; stroke-width: 0px; fill: rgb(114, 255, 100); fill-opacity: 1;"/><path class="point plotly-customdata" transform="translate(144.66,154.81)" d="M3,0A3,3 0 1,1 0,-3A3,3 0 0,1 3,0Z" style="opacity: 1; stroke-width: 0px; fill: rgb(114, 255, 100); fill-opacity: 1;"/><path class="point plotly-customdata" transform="translate(103.78,231.8)" d="M3,0A3,3 0 1,1 0,-3A3,3 0 0,1 3,0Z" style="opacity: 1; stroke-width: 0px; fill: rgb(114, 255, 100); fill-opacity: 1;"/><path class="point plotly-customdata" transform="translate(51.61,157.96)" d="M3,0A3,3 0 1,1 0,-3A3,3 0 0,1 3,0Z" style="opacity: 1; stroke-width: 0px; fill: rgb(114, 255, 100); fill-opacity: 1;"/><path class="point plotly-customdata" transform="translate(181.96,213.05)" d="M3,0A3,3 0 1,1 0,-3A3,3 0 0,1 3,0Z" style="opacity: 1; stroke-width: 0px; fill: rgb(114, 255, 100); fill-opacity: 1;"/><path class="point plotly-customdata" transform="translate(129.01,118.46)" d="M3,0A3,3 0 1,1 0,-3A3,3 0 0,1 3,0Z" style="opacity: 1; stroke-width: 0px; fill: rgb(114, 255, 100); fill-opacity: 1;"/><path class="point plotly-customdata" transform="translate(103.54,166.43)" d="M3,0A3,3 0 1,1 0,-3A3,3 0 0,1 3,0Z" style="opacity: 1; stroke-width: 0px; fill: rgb(114, 255, 100); fill-opacity: 1;"/><path class="point plotly-customdata" transform="translate(115.62,169.65)" d="M3,0A3,3 0 1,1 0,-3A3,3 0 0,1 3,0Z" style="opacity: 1; stroke-width: 0px; fill: rgb(114, 255, 100); fill-opacity: 1;"/><path class="point plotly-customdata" transform="translate(116.96,95.05)" d="M3,0A3,3 0 1,1 0,-3A3,3 0 0,1 3,0Z" style="opacity: 1; stroke-width: 0px; fill: rgb(114, 255, 100); fill-opacity: 1;"/><path class="point plotly-customdata" transform="translate(74.88,142.39)" d="M3,0A3,3 0 1,1 0,-3A3,3 0 0,1 3,0Z" style="opacity: 1; stroke-width: 0px; fill: rgb(114, 255, 100); fill-opacity: 1;"/><path class="point plotly-customdata" transform="translate(56.12,223.55)" d="M3,0A3,3 0 1,1 0,-3A3,3 0 0,1 3,0Z" style="opacity: 1; stroke-width: 0px; fill: rgb(114, 255, 100); fill-opacity: 1;"/><path class="point plotly-customdata" transform="translate(132.38,173.49)" d="M3,0A3,3 0 1,1 0,-3A3,3 0 0,1 3,0Z" style="opacity: 1; stroke-width: 0px; fill: rgb(114, 255, 100); fill-opacity: 1;"/><path class="point plotly-customdata" transform="translate(48.77,191.91)" d="M3,0A3,3 0 1,1 0,-3A3,3 0 0,1 3,0Z" style="opacity: 1; stroke-width: 0px; fill: rgb(114, 255, 100); fill-opacity: 1;"/><path class="point plotly-customdata" transform="translate(113.05,185.62)" d="M3,0A3,3 0 1,1 0,-3A3,3 0 0,1 3,0Z" style="opacity: 1; stroke-width: 0px; fill: rgb(114, 255, 100); fill-opacity: 1;"/><path class="point plotly-customdata" transform="translate(79.52,256.43)" d="M3,0A3,3 0 1,1 0,-3A3,3 0 0,1 3,0Z" style="opacity: 1; stroke-width: 0px; fill: rgb(114, 255, 100); fill-opacity: 1;"/><path class="point plotly-customdata" transform="translate(63.54,192)" d="M3,0A3,3 0 1,1 0,-3A3,3 0 0,1 3,0Z" style="opacity: 1; stroke-width: 0px; fill: rgb(114, 255, 100); fill-opacity: 1;"/><path class="point plotly-customdata" transform="translate(48.88,175.53)" d="M3,0A3,3 0 1,1 0,-3A3,3 0 0,1 3,0Z" style="opacity: 1; stroke-width: 0px; fill: rgb(114, 255, 100); fill-opacity: 1;"/><path class="point plotly-customdata" transform="translate(88.15,178.51)" d="M3,0A3,3 0 1,1 0,-3A3,3 0 0,1 3,0Z" style="opacity: 1; stroke-width: 0px; fill: rgb(114, 255, 100); fill-opacity: 1;"/><path class="point plotly-customdata" transform="translate(105.16,268.81)" d="M3,0A3,3 0 1,1 0,-3A3,3 0 0,1 3,0Z" style="opacity: 1; stroke-width: 0px; fill: rgb(114, 255, 100); fill-opacity: 1;"/><path class="point plotly-customdata" transform="translate(77.65,142.98)" d="M3,0A3,3 0 1,1 0,-3A3,3 0 0,1 3,0Z" style="opacity: 1; stroke-width: 0px; fill: rgb(114, 255, 100); fill-opacity: 1;"/><path class="point plotly-customdata" transform="translate(55.48,163.41)" d="M3,0A3,3 0 1,1 0,-3A3,3 0 0,1 3,0Z" style="opacity: 1; stroke-width: 0px; fill: rgb(114, 255, 100); fill-opacity: 1;"/><path class="point plotly-customdata" transform="translate(50.95,184.42)" d="M3,0A3,3 0 1,1 0,-3A3,3 0 0,1 3,0Z" style="opacity: 1; stroke-width: 0px; fill: rgb(114, 255, 100); fill-opacity: 1;"/><path class="point plotly-customdata" transform="translate(79.01,131.16)" d="M3,0A3,3 0 1,1 0,-3A3,3 0 0,1 3,0Z" style="opacity: 1; stroke-width: 0px; fill: rgb(114, 255, 100); fill-opacity: 1;"/><path class="point plotly-customdata" transform="translate(92.49,300.25)" d="M3,0A3,3 0 1,1 0,-3A3,3 0 0,1 3,0Z" style="opacity: 1; stroke-width: 0px; fill: rgb(114, 255, 100); fill-opacity: 1;"/></g><g class="text"/></g><g class="trace scatter tracee8ee4e" style="stroke-miterlimit: 2; opacity: 1;"><g class="fills"/><g class="errorbars"/><g class="lines"/><g class="points"><path class="point plotly-customdata" transform="translate(317.39,138.92)" d="M3,0A3,3 0 1,1 0,-3A3,3 0 0,1 3,0Z" style="opacity: 1; stroke-width: 0px; fill: rgb(201, 165, 247); fill-opacity: 1;"/><path class="point plotly-customdata" transform="translate(386.39,51.2)" d="M3,0A3,3 0 1,1 0,-3A3,3 0 0,1 3,0Z" style="opacity: 1; stroke-width: 0px; fill: rgb(201, 165, 247); fill-opacity: 1;"/><path class="point plotly-customdata" transform="translate(453.93,106.17)" d="M3,0A3,3 0 1,1 0,-3A3,3 0 0,1 3,0Z" style="opacity: 1; stroke-width: 0px; fill: rgb(201, 165, 247); fill-opacity: 1;"/><path class="point plotly-customdata" transform="translate(449.73,210.48)" d="M3,0A3,3 0 1,1 0,-3A3,3 0 0,1 3,0Z" style="opacity: 1; stroke-width: 0px; fill: rgb(201, 165, 247); fill-opacity: 1;"/><path class="point plotly-customdata" transform="translate(343.65,102.56)" d="M3,0A3,3 0 1,1 0,-3A3,3 0 0,1 3,0Z" style="opacity: 1; stroke-width: 0px; fill: rgb(201, 165, 247); fill-opacity: 1;"/><path class="point plotly-customdata" transform="translate(410.02,140.4)" d="M3,0A3,3 0 1,1 0,-3A3,3 0 0,1 3,0Z" style="opacity: 1; stroke-width: 0px; fill: rgb(201, 165, 247); fill-opacity: 1;"/><path class="point plotly-customdata" transform="translate(362.64,114.82)" d="M3,0A3,3 0 1,1 0,-3A3,3 0 0,1 3,0Z" style="opacity: 1; stroke-width: 0px; fill: rgb(201, 165, 247); fill-opacity: 1;"/><path class="point plotly-customdata" transform="translate(421.37,98.06)" d="M3,0A3,3 0 1,1 0,-3A3,3 0 0,1 3,0Z" style="opacity: 1; stroke-width: 0px; fill: rgb(201, 165, 247); fill-opacity: 1;"/><path class="point plotly-customdata" transform="translate(343.05,63.27)" d="M3,0A3,3 0 1,1 0,-3A3,3 0 0,1 3,0Z" style="opacity: 1; stroke-width: 0px; fill: rgb(201, 165, 247); fill-opacity: 1;"/><path class="point plotly-customdata" transform="translate(503.46,213.55)" d="M3,0A3,3 0 1,1 0,-3A3,3 0 0,1 3,0Z" style="opacity: 1; stroke-width: 0px; fill: rgb(201, 165, 247); fill-opacity: 1;"/><path class="point plotly-customdata" transform="translate(464.36,237.33)" d="M3,0A3,3 0 1,1 0,-3A3,3 0 0,1 3,0Z" style="opacity: 1; stroke-width: 0px; fill: rgb(201, 165, 247); fill-opacity: 1;"/><path class="point plotly-customdata" transform="translate(230.84,117.49)" d="M3,0A3,3 0 1,1 0,-3A3,3 0 0,1 3,0Z" style="opacity: 1; stroke-width: 0px; fill: rgb(201, 165, 247); fill-opacity: 1;"/><path class="point plotly-customdata" transform="translate(359.05,190.87)" d="M3,0A3,3 0 1,1 0,-3A3,3 0 0,1 3,0Z" style="opacity: 1; stroke-width: 0px; fill: rgb(201, 165, 247); fill-opacity: 1;"/><path class="point plotly-customdata" transform="translate(209.52,155.19)" d="M3,0A3,3 0 1,1 0,-3A3,3 0 0,1 3,0Z" style="opacity: 1; stroke-width: 0px; fill: rgb(201, 165, 247); fill-opacity: 1;"/><path class="point plotly-customdata" transform="translate(399.37,125.67)" d="M3,0A3,3 0 1,1 0,-3A3,3 0 0,1 3,0Z" style="opacity: 1; stroke-width: 0px; fill: rgb(201, 165, 247); fill-opacity: 1;"/><path class="point plotly-customdata" transform="translate(355.33,241.9)" d="M3,0A3,3 0 1,1 0,-3A3,3 0 0,1 3,0Z" style="opacity: 1; stroke-width: 0px; fill: rgb(201, 165, 247); fill-opacity: 1;"/><path class="point plotly-customdata" transform="translate(389.51,182.17)" d="M3,0A3,3 0 1,1 0,-3A3,3 0 0,1 3,0Z" style="opacity: 1; stroke-width: 0px; fill: rgb(201, 165, 247); fill-opacity: 1;"/><path class="point plotly-customdata" transform="translate(332.39,107.39)" d="M3,0A3,3 0 1,1 0,-3A3,3 0 0,1 3,0Z" style="opacity: 1; stroke-width: 0px; fill: rgb(201, 165, 247); fill-opacity: 1;"/><path class="point plotly-customdata" transform="translate(453.55,71.43)" d="M3,0A3,3 0 1,1 0,-3A3,3 0 0,1 3,0Z" style="opacity: 1; stroke-width: 0px; fill: rgb(201, 165, 247); fill-opacity: 1;"/><path class="point plotly-customdata" transform="translate(399.2,139.51)" d="M3,0A3,3 0 1,1 0,-3A3,3 0 0,1 3,0Z" style="opacity: 1; stroke-width: 0px; fill: rgb(201, 165, 247); fill-opacity: 1;"/><path class="point plotly-customdata" transform="translate(437.3,107.47)" d="M3,0A3,3 0 1,1 0,-3A3,3 0 0,1 3,0Z" style="opacity: 1; stroke-width: 0px; fill: rgb(201, 165, 247); fill-opacity: 1;"/><path class="point plotly-customdata" transform="translate(444.57,232.6)" d="M3,0A3,3 0 1,1 0,-3A3,3 0 0,1 3,0Z" style="opacity: 1; stroke-width: 0px; fill: rgb(201, 165, 247); fill-opacity: 1;"/><path class="point plotly-customdata" transform="translate(416.75,92.14)" d="M3,0A3,3 0 1,1 0,-3A3,3 0 0,1 3,0Z" style="opacity: 1; stroke-width: 0px; fill: rgb(201, 165, 247); fill-opacity: 1;"/><path class="point plotly-customdata" transform="translate(411.98,106.12)" d="M3,0A3,3 0 1,1 0,-3A3,3 0 0,1 3,0Z" style="opacity: 1; stroke-width: 0px; fill: rgb(201, 165, 247); fill-opacity: 1;"/><path class="point plotly-customdata" transform="translate(156.98,91.71)" d="M3,0A3,3 0 1,1 0,-3A3,3 0 0,1 3,0Z" style="opacity: 1; stroke-width: 0px; fill: rgb(201, 165, 247); fill-opacity: 1;"/><path class="point plotly-customdata" transform="translate(308.65,234.12)" d="M3,0A3,3 0 1,1 0,-3A3,3 0 0,1 3,0Z" style="opacity: 1; stroke-width: 0px; fill: rgb(201, 165, 247); fill-opacity: 1;"/><path class="point plotly-customdata" transform="translate(478.31,32.05)" d="M3,0A3,3 0 1,1 0,-3A3,3 0 0,1 3,0Z" style="opacity: 1; stroke-width: 0px; fill: rgb(201, 165, 247); fill-opacity: 1;"/><path class="point plotly-customdata" transform="translate(398.38,121.69)" d="M3,0A3,3 0 1,1 0,-3A3,3 0 0,1 3,0Z" style="opacity: 1; stroke-width: 0px; fill: rgb(201, 165, 247); fill-opacity: 1;"/><path class="point plotly-customdata" transform="translate(205.37,155.71)" d="M3,0A3,3 0 1,1 0,-3A3,3 0 0,1 3,0Z" style="opacity: 1; stroke-width: 0px; fill: rgb(201, 165, 247); fill-opacity: 1;"/><path class="point plotly-customdata" transform="translate(475.74,214.83)" d="M3,0A3,3 0 1,1 0,-3A3,3 0 0,1 3,0Z" style="opacity: 1; stroke-width: 0px; fill: rgb(201, 165, 247); fill-opacity: 1;"/><path class="point plotly-customdata" transform="translate(504.66,146.7)" d="M3,0A3,3 0 1,1 0,-3A3,3 0 0,1 3,0Z" style="opacity: 1; stroke-width: 0px; fill: rgb(201, 165, 247); fill-opacity: 1;"/><path class="point plotly-customdata" transform="translate(355.58,111.49)" d="M3,0A3,3 0 1,1 0,-3A3,3 0 0,1 3,0Z" style="opacity: 1; stroke-width: 0px; fill: rgb(201, 165, 247); fill-opacity: 1;"/><path class="point plotly-customdata" transform="translate(351.62,128.59)" d="M3,0A3,3 0 1,1 0,-3A3,3 0 0,1 3,0Z" style="opacity: 1; stroke-width: 0px; fill: rgb(201, 165, 247); fill-opacity: 1;"/><path class="point plotly-customdata" transform="translate(394.16,151.14)" d="M3,0A3,3 0 1,1 0,-3A3,3 0 0,1 3,0Z" style="opacity: 1; stroke-width: 0px; fill: rgb(201, 165, 247); fill-opacity: 1;"/><path class="point plotly-customdata" transform="translate(448.43,64.53)" d="M3,0A3,3 0 1,1 0,-3A3,3 0 0,1 3,0Z" style="opacity: 1; stroke-width: 0px; fill: rgb(201, 165, 247); fill-opacity: 1;"/><path class="point plotly-customdata" transform="translate(318.05,41.97)" d="M3,0A3,3 0 1,1 0,-3A3,3 0 0,1 3,0Z" style="opacity: 1; stroke-width: 0px; fill: rgb(201, 165, 247); fill-opacity: 1;"/><path class="point plotly-customdata" transform="translate(459.93,235.57)" d="M3,0A3,3 0 1,1 0,-3A3,3 0 0,1 3,0Z" style="opacity: 1; stroke-width: 0px; fill: rgb(201, 165, 247); fill-opacity: 1;"/><path class="point plotly-customdata" transform="translate(503.54,175.09)" d="M3,0A3,3 0 1,1 0,-3A3,3 0 0,1 3,0Z" style="opacity: 1; stroke-width: 0px; fill: rgb(201, 165, 247); fill-opacity: 1;"/><path class="point plotly-customdata" transform="translate(463.7,213.59)" d="M3,0A3,3 0 1,1 0,-3A3,3 0 0,1 3,0Z" style="opacity: 1; stroke-width: 0px; fill: rgb(201, 165, 247); fill-opacity: 1;"/><path class="point plotly-customdata" transform="translate(211.25,69)" d="M3,0A3,3 0 1,1 0,-3A3,3 0 0,1 3,0Z" style="opacity: 1; stroke-width: 0px; fill: rgb(201, 165, 247); fill-opacity: 1;"/><path class="point plotly-customdata" transform="translate(348.51,92.07)" d="M3,0A3,3 0 1,1 0,-3A3,3 0 0,1 3,0Z" style="opacity: 1; stroke-width: 0px; fill: rgb(201, 165, 247); fill-opacity: 1;"/><path class="point plotly-customdata" transform="translate(508.3,153.38)" d="M3,0A3,3 0 1,1 0,-3A3,3 0 0,1 3,0Z" style="opacity: 1; stroke-width: 0px; fill: rgb(201, 165, 247); fill-opacity: 1;"/><path class="point plotly-customdata" transform="translate(341.57,182.72)" d="M3,0A3,3 0 1,1 0,-3A3,3 0 0,1 3,0Z" style="opacity: 1; stroke-width: 0px; fill: rgb(201, 165, 247); fill-opacity: 1;"/><path class="point plotly-customdata" transform="translate(386.1,62.44)" d="M3,0A3,3 0 1,1 0,-3A3,3 0 0,1 3,0Z" style="opacity: 1; stroke-width: 0px; fill: rgb(201, 165, 247); fill-opacity: 1;"/><path class="point plotly-customdata" transform="translate(281.35,113.57)" d="M3,0A3,3 0 1,1 0,-3A3,3 0 0,1 3,0Z" style="opacity: 1; stroke-width: 0px; fill: rgb(201, 165, 247); fill-opacity: 1;"/><path class="point plotly-customdata" transform="translate(448.92,103.17)" d="M3,0A3,3 0 1,1 0,-3A3,3 0 0,1 3,0Z" style="opacity: 1; stroke-width: 0px; fill: rgb(201, 165, 247); fill-opacity: 1;"/><path class="point plotly-customdata" transform="translate(429.61,64.64)" d="M3,0A3,3 0 1,1 0,-3A3,3 0 0,1 3,0Z" style="opacity: 1; stroke-width: 0px; fill: rgb(201, 165, 247); fill-opacity: 1;"/><path class="point plotly-customdata" transform="translate(478.81,141.64)" d="M3,0A3,3 0 1,1 0,-3A3,3 0 0,1 3,0Z" style="opacity: 1; stroke-width: 0px; fill: rgb(201, 165, 247); fill-opacity: 1;"/><path class="point plotly-customdata" transform="translate(384.12,89.99)" d="M3,0A3,3 0 1,1 0,-3A3,3 0 0,1 3,0Z" style="opacity: 1; stroke-width: 0px; fill: rgb(201, 165, 247); fill-opacity: 1;"/><path class="point plotly-customdata" transform="translate(350.81,167.51)" d="M3,0A3,3 0 1,1 0,-3A3,3 0 0,1 3,0Z" style="opacity: 1; stroke-width: 0px; fill: rgb(201, 165, 247); fill-opacity: 1;"/><path class="point plotly-customdata" transform="translate(463.62,135.52)" d="M3,0A3,3 0 1,1 0,-3A3,3 0 0,1 3,0Z" style="opacity: 1; stroke-width: 0px; fill: rgb(201, 165, 247); fill-opacity: 1;"/><path class="point plotly-customdata" transform="translate(181.11,84.64)" d="M3,0A3,3 0 1,1 0,-3A3,3 0 0,1 3,0Z" style="opacity: 1; stroke-width: 0px; fill: rgb(201, 165, 247); fill-opacity: 1;"/><path class="point plotly-customdata" transform="translate(456.93,197)" d="M3,0A3,3 0 1,1 0,-3A3,3 0 0,1 3,0Z" style="opacity: 1; stroke-width: 0px; fill: rgb(201, 165, 247); fill-opacity: 1;"/><path class="point plotly-customdata" transform="translate(451.96,82.38)" d="M3,0A3,3 0 1,1 0,-3A3,3 0 0,1 3,0Z" style="opacity: 1; stroke-width: 0px; fill: rgb(201, 165, 247); fill-opacity: 1;"/><path class="point plotly-customdata" transform="translate(351.11,207.53)" d="M3,0A3,3 0 1,1 0,-3A3,3 0 0,1 3,0Z" style="opacity: 1; stroke-width: 0px; fill: rgb(201, 165, 247); fill-opacity: 1;"/><path class="point plotly-customdata" transform="translate(157.57,131.18)" d="M3,0A3,3 0 1,1 0,-3A3,3 0 0,1 3,0Z" style="opacity: 1; stroke-width: 0px; fill: rgb(201, 165, 247); fill-opacity: 1;"/><path class="point plotly-customdata" transform="translate(468.53,216.16)" d="M3,0A3,3 0 1,1 0,-3A3,3 0 0,1 3,0Z" style="opacity: 1; stroke-width: 0px; fill: rgb(201, 165, 247); fill-opacity: 1;"/><path class="point plotly-customdata" transform="translate(476.06,100.64)" d="M3,0A3,3 0 1,1 0,-3A3,3 0 0,1 3,0Z" style="opacity: 1; stroke-width: 0px; fill: rgb(201, 165, 247); fill-opacity: 1;"/><path class="point plotly-customdata" transform="translate(412.02,211.78)" d="M3,0A3,3 0 1,1 0,-3A3,3 0 0,1 3,0Z" style="opacity: 1; stroke-width: 0px; fill: rgb(201, 165, 247); fill-opacity: 1;"/><path class="point plotly-customdata" transform="translate(385.11,126.67)" d="M3,0A3,3 0 1,1 0,-3A3,3 0 0,1 3,0Z" style="opacity: 1; stroke-width: 0px; fill: rgb(201, 165, 247); fill-opacity: 1;"/><path class="point plotly-customdata" transform="translate(461.33,21.04)" d="M3,0A3,3 0 1,1 0,-3A3,3 0 0,1 3,0Z" style="opacity: 1; stroke-width: 0px; fill: rgb(201, 165, 247); fill-opacity: 1;"/><path class="point plotly-customdata" transform="translate(275.79,185.67)" d="M3,0A3,3 0 1,1 0,-3A3,3 0 0,1 3,0Z" style="opacity: 1; stroke-width: 0px; fill: rgb(201, 165, 247); fill-opacity: 1;"/><path class="point plotly-customdata" transform="translate(405.55,104.21)" d="M3,0A3,3 0 1,1 0,-3A3,3 0 0,1 3,0Z" style="opacity: 1; stroke-width: 0px; fill: rgb(201, 165, 247); fill-opacity: 1;"/><path class="point plotly-customdata" transform="translate(321.9,75.81)" d="M3,0A3,3 0 1,1 0,-3A3,3 0 0,1 3,0Z" style="opacity: 1; stroke-width: 0px; fill: rgb(201, 165, 247); fill-opacity: 1;"/><path class="point plotly-customdata" transform="translate(485.43,166.42)" d="M3,0A3,3 0 1,1 0,-3A3,3 0 0,1 3,0Z" style="opacity: 1; stroke-width: 0px; fill: rgb(201, 165, 247); fill-opacity: 1;"/><path class="point plotly-customdata" transform="translate(389.53,150.84)" d="M3,0A3,3 0 1,1 0,-3A3,3 0 0,1 3,0Z" style="opacity: 1; stroke-width: 0px; fill: rgb(201, 165, 247); fill-opacity: 1;"/><path class="point plotly-customdata" transform="translate(279.71,187.42)" d="M3,0A3,3 0 1,1 0,-3A3,3 0 0,1 3,0Z" style="opacity: 1; stroke-width: 0px; fill: rgb(201, 165, 247); fill-opacity: 1;"/><path class="point plotly-customdata" transform="translate(462.93,218.59)" d="M3,0A3,3 0 1,1 0,-3A3,3 0 0,1 3,0Z" style="opacity: 1; stroke-width: 0px; fill: rgb(201, 165, 247); fill-opacity: 1;"/><path class="point plotly-customdata" transform="translate(455.46,193.37)" d="M3,0A3,3 0 1,1 0,-3A3,3 0 0,1 3,0Z" style="opacity: 1; stroke-width: 0px; fill: rgb(201, 165, 247); fill-opacity: 1;"/><path class="point plotly-customdata" transform="translate(438.65,40.26)" d="M3,0A3,3 0 1,1 0,-3A3,3 0 0,1 3,0Z" style="opacity: 1; stroke-width: 0px; fill: rgb(201, 165, 247); fill-opacity: 1;"/><path class="point plotly-customdata" transform="translate(433.04,63.87)" d="M3,0A3,3 0 1,1 0,-3A3,3 0 0,1 3,0Z" style="opacity: 1; stroke-width: 0px; fill: rgb(201, 165, 247); fill-opacity: 1;"/><path class="point plotly-customdata" transform="translate(419.42,163.1)" d="M3,0A3,3 0 1,1 0,-3A3,3 0 0,1 3,0Z" style="opacity: 1; stroke-width: 0px; fill: rgb(201, 165, 247); fill-opacity: 1;"/><path class="point plotly-customdata" transform="translate(476.21,188.85)" d="M3,0A3,3 0 1,1 0,-3A3,3 0 0,1 3,0Z" style="opacity: 1; stroke-width: 0px; fill: rgb(201, 165, 247); fill-opacity: 1;"/><path class="point plotly-customdata" transform="translate(405.71,181.35)" d="M3,0A3,3 0 1,1 0,-3A3,3 0 0,1 3,0Z" style="opacity: 1; stroke-width: 0px; fill: rgb(201, 165, 247); fill-opacity: 1;"/><path class="point plotly-customdata" transform="translate(447.21,249.22)" d="M3,0A3,3 0 1,1 0,-3A3,3 0 0,1 3,0Z" style="opacity: 1; stroke-width: 0px; fill: rgb(201, 165, 247); fill-opacity: 1;"/><path class="point plotly-customdata" transform="translate(307.76,67.33)" d="M3,0A3,3 0 1,1 0,-3A3,3 0 0,1 3,0Z" style="opacity: 1; stroke-width: 0px; fill: rgb(201, 165, 247); fill-opacity: 1;"/><path class="point plotly-customdata" transform="translate(355.4,209.67)" d="M3,0A3,3 0 1,1 0,-3A3,3 0 0,1 3,0Z" style="opacity: 1; stroke-width: 0px; fill: rgb(201, 165, 247); fill-opacity: 1;"/><path class="point plotly-customdata" transform="translate(223.7,138.82)" d="M3,0A3,3 0 1,1 0,-3A3,3 0 0,1 3,0Z" style="opacity: 1; stroke-width: 0px; fill: rgb(201, 165, 247); fill-opacity: 1;"/><path class="point plotly-customdata" transform="translate(293.5,149.13)" d="M3,0A3,3 0 1,1 0,-3A3,3 0 0,1 3,0Z" style="opacity: 1; stroke-width: 0px; fill: rgb(201, 165, 247); fill-opacity: 1;"/><path class="point plotly-customdata" transform="translate(496.88,120.34)" d="M3,0A3,3 0 1,1 0,-3A3,3 0 0,1 3,0Z" style="opacity: 1; stroke-width: 0px; fill: rgb(201, 165, 247); fill-opacity: 1;"/><path class="point plotly-customdata" transform="translate(268.49,161.35)" d="M3,0A3,3 0 1,1 0,-3A3,3 0 0,1 3,0Z" style="opacity: 1; stroke-width: 0px; fill: rgb(201, 165, 247); fill-opacity: 1;"/><path class="point plotly-customdata" transform="translate(402.47,98.49)" d="M3,0A3,3 0 1,1 0,-3A3,3 0 0,1 3,0Z" style="opacity: 1; stroke-width: 0px; fill: rgb(201, 165, 247); fill-opacity: 1;"/><path class="point plotly-customdata" transform="translate(408.86,120.45)" d="M3,0A3,3 0 1,1 0,-3A3,3 0 0,1 3,0Z" style="opacity: 1; stroke-width: 0px; fill: rgb(201, 165, 247); fill-opacity: 1;"/><path class="point plotly-customdata" transform="translate(397.73,142.7)" d="M3,0A3,3 0 1,1 0,-3A3,3 0 0,1 3,0Z" style="opacity: 1; stroke-width: 0px; fill: rgb(201, 165, 247); fill-opacity: 1;"/><path class="point plotly-customdata" transform="translate(386.44,19.75)" d="M3,0A3,3 0 1,1 0,-3A3,3 0 0,1 3,0Z" style="opacity: 1; stroke-width: 0px; fill: rgb(201, 165, 247); fill-opacity: 1;"/><path class="point plotly-customdata" transform="translate(399.45,130.4)" d="M3,0A3,3 0 1,1 0,-3A3,3 0 0,1 3,0Z" style="opacity: 1; stroke-width: 0px; fill: rgb(201, 165, 247); fill-opacity: 1;"/><path class="point plotly-customdata" transform="translate(491.78,204.65)" d="M3,0A3,3 0 1,1 0,-3A3,3 0 0,1 3,0Z" style="opacity: 1; stroke-width: 0px; fill: rgb(201, 165, 247); fill-opacity: 1;"/><path class="point plotly-customdata" transform="translate(281.75,72.91)" d="M3,0A3,3 0 1,1 0,-3A3,3 0 0,1 3,0Z" style="opacity: 1; stroke-width: 0px; fill: rgb(201, 165, 247); fill-opacity: 1;"/><path class="point plotly-customdata" transform="translate(484.26,66.06)" d="M3,0A3,3 0 1,1 0,-3A3,3 0 0,1 3,0Z" style="opacity: 1; stroke-width: 0px; fill: rgb(201, 165, 247); fill-opacity: 1;"/><path class="point plotly-customdata" transform="translate(224.03,133.55)" d="M3,0A3,3 0 1,1 0,-3A3,3 0 0,1 3,0Z" style="opacity: 1; stroke-width: 0px; fill: rgb(201, 165, 247); fill-opacity: 1;"/><path class="point plotly-customdata" transform="translate(457.64,236.51)" d="M3,0A3,3 0 1,1 0,-3A3,3 0 0,1 3,0Z" style="opacity: 1; stroke-width: 0px; fill: rgb(201, 165, 247); fill-opacity: 1;"/><path class="point plotly-customdata" transform="translate(472.25,133.22)" d="M3,0A3,3 0 1,1 0,-3A3,3 0 0,1 3,0Z" style="opacity: 1; stroke-width: 0px; fill: rgb(201, 165, 247); fill-opacity: 1;"/><path class="point plotly-customdata" transform="translate(496.91,131.36)" d="M3,0A3,3 0 1,1 0,-3A3,3 0 0,1 3,0Z" style="opacity: 1; stroke-width: 0px; fill: rgb(201, 165, 247); fill-opacity: 1;"/><path class="point plotly-customdata" transform="translate(245.05,74.79)" d="M3,0A3,3 0 1,1 0,-3A3,3 0 0,1 3,0Z" style="opacity: 1; stroke-width: 0px; fill: rgb(201, 165, 247); fill-opacity: 1;"/><path class="point plotly-customdata" transform="translate(418.6,219.78)" d="M3,0A3,3 0 1,1 0,-3A3,3 0 0,1 3,0Z" style="opacity: 1; stroke-width: 0px; fill: rgb(201, 165, 247); fill-opacity: 1;"/><path class="point plotly-customdata" transform="translate(255.63,85.29)" d="M3,0A3,3 0 1,1 0,-3A3,3 0 0,1 3,0Z" style="opacity: 1; stroke-width: 0px; fill: rgb(201, 165, 247); fill-opacity: 1;"/><path class="point plotly-customdata" transform="translate(468.44,135.32)" d="M3,0A3,3 0 1,1 0,-3A3,3 0 0,1 3,0Z" style="opacity: 1; stroke-width: 0px; fill: rgb(201, 165, 247); fill-opacity: 1;"/><path class="point plotly-customdata" transform="translate(480.86,127.57)" d="M3,0A3,3 0 1,1 0,-3A3,3 0 0,1 3,0Z" style="opacity: 1; stroke-width: 0px; fill: rgb(201, 165, 247); fill-opacity: 1;"/><path class="point plotly-customdata" transform="translate(429.71,138.83)" d="M3,0A3,3 0 1,1 0,-3A3,3 0 0,1 3,0Z" style="opacity: 1; stroke-width: 0px; fill: rgb(201, 165, 247); fill-opacity: 1;"/><path class="point plotly-customdata" transform="translate(407.16,221.52)" d="M3,0A3,3 0 1,1 0,-3A3,3 0 0,1 3,0Z" style="opacity: 1; stroke-width: 0px; fill: rgb(201, 165, 247); fill-opacity: 1;"/></g><g class="text"/></g></g></g><g class="overplot"/><path class="xlines-above crisp" d="M0,0" style="fill: none;"/><path class="ylines-above crisp" d="M0,0" style="fill: none;"/><g class="overlines-above"/><g class="xaxislayer-above"><g class="xtick"><text text-anchor="middle" x="0" y="433" transform="translate(106.96000000000001,0)" style="font-family: 'Open Sans', verdana, arial, sans-serif; font-size: 12px; fill: rgb(42, 63, 95); fill-opacity: 1; white-space: pre; opacity: 1;">0</text></g><g class="xtick"><text text-anchor="middle" x="0" y="433" style="font-family: 'Open Sans', verdana, arial, sans-serif; font-size: 12px; fill: rgb(42, 63, 95); fill-opacity: 1; white-space: pre; opacity: 1;" transform="translate(208.8,0)">0.2</text></g><g class="xtick"><text text-anchor="middle" x="0" y="433" style="font-family: 'Open Sans', verdana, arial, sans-serif; font-size: 12px; fill: rgb(42, 63, 95); fill-opacity: 1; white-space: pre; opacity: 1;" transform="translate(310.64,0)">0.4</text></g><g class="xtick"><text text-anchor="middle" x="0" y="433" style="font-family: 'Open Sans', verdana, arial, sans-serif; font-size: 12px; fill: rgb(42, 63, 95); fill-opacity: 1; white-space: pre; opacity: 1;" transform="translate(412.49,0)">0.6</text></g><g class="xtick"><text text-anchor="middle" x="0" y="433" style="font-family: 'Open Sans', verdana, arial, sans-serif; font-size: 12px; fill: rgb(42, 63, 95); fill-opacity: 1; white-space: pre; opacity: 1;" transform="translate(514.3299999999999,0)">0.8</text></g><g class="xtick"><text text-anchor="middle" x="0" y="433" style="font-family: 'Open Sans', verdana, arial, sans-serif; font-size: 12px; fill: rgb(42, 63, 95); fill-opacity: 1; white-space: pre; opacity: 1;" transform="translate(616.17,0)">1</text></g></g><g class="yaxislayer-above"><g class="ytick"><text text-anchor="end" x="79" y="4.199999999999999" transform="translate(0,396.72)" style="font-family: 'Open Sans', verdana, arial, sans-serif; font-size: 12px; fill: rgb(42, 63, 95); fill-opacity: 1; white-space: pre; opacity: 1;">0</text></g><g class="ytick"><text text-anchor="end" x="79" y="4.199999999999999" style="font-family: 'Open Sans', verdana, arial, sans-serif; font-size: 12px; fill: rgb(42, 63, 95); fill-opacity: 1; white-space: pre; opacity: 1;" transform="translate(0,322.34000000000003)">5</text></g><g class="ytick"><text text-anchor="end" x="79" y="4.199999999999999" style="font-family: 'Open Sans', verdana, arial, sans-serif; font-size: 12px; fill: rgb(42, 63, 95); fill-opacity: 1; white-space: pre; opacity: 1;" transform="translate(0,247.97)">10</text></g><g class="ytick"><text text-anchor="end" x="79" y="4.199999999999999" style="font-family: 'Open Sans', verdana, arial, sans-serif; font-size: 12px; fill: rgb(42, 63, 95); fill-opacity: 1; white-space: pre; opacity: 1;" transform="translate(0,173.59)">15</text></g></g><g class="overaxes-above"/></g></g><g class="polarlayer"/><g class="ternarylayer"/><g class="geolayer"/><g class="funnelarealayer"/><g class="pielayer"/><g class="iciclelayer"/><g class="treemaplayer"/><g class="sunburstlayer"/><g class="glimages"/><defs id="topdefs-9cfaa4"><g class="clips"/><clipPath id="legend9cfaa4"><rect width="58" height="67" x="0" y="0"/></clipPath></defs><g class="layer-above"><g class="imagelayer"/><g class="shapelayer"/></g><g class="infolayer"><g class="legend" pointer-events="all" transform="translate(630.8,100)"><rect class="bg" shape-rendering="crispEdges" width="58" height="67" x="0" y="0" style="stroke: rgb(68, 68, 68); stroke-opacity: 1; fill: rgb(255, 255, 255); fill-opacity: 1; stroke-width: 0px;"/><g class="scrollbox" transform="" clip-path="url(#legend9cfaa4)"><text class="legendtitletext" text-anchor="start" x="2" y="18.2" style="font-family: 'Open Sans', verdana, arial, sans-serif; font-size: 14px; fill: rgb(42, 63, 95); fill-opacity: 1; white-space: pre;">token</text><g class="groups" transform=""><g class="traces" transform="translate(0,32.7)" style="opacity: 1;"><text class="legendtext" text-anchor="start" x="40" y="4.680000000000001" style="font-family: 'Open Sans', verdana, arial, sans-serif; font-size: 12px; fill: rgb(42, 63, 95); fill-opacity: 1; white-space: pre;">S</text><g class="layers" style="opacity: 1;"><g class="legendfill"/><g class="legendlines"/><g class="legendsymbols"><g class="legendpoints"><path class="scatterpts" transform="translate(20,0)" d="M3,0A3,3 0 1,1 0,-3A3,3 0 0,1 3,0Z" style="opacity: 1; stroke-width: 0px; fill: rgb(114, 255, 100); fill-opacity: 1;"/></g></g></g><rect class="legendtoggle" x="0" y="-9.5" width="52.984375" height="19" style="fill: rgb(0, 0, 0); fill-opacity: 0;"/></g></g><g class="groups" transform=""><g class="traces" transform="translate(0,51.7)" style="opacity: 1;"><text class="legendtext" text-anchor="start" x="40" y="4.680000000000001" style="font-family: 'Open Sans', verdana, arial, sans-serif; font-size: 12px; fill: rgb(42, 63, 95); fill-opacity: 1; white-space: pre;">IO</text><g class="layers" style="opacity: 1;"><g class="legendfill"/><g class="legendlines"/><g class="legendsymbols"><g class="legendpoints"><path class="scatterpts" transform="translate(20,0)" d="M3,0A3,3 0 1,1 0,-3A3,3 0 0,1 3,0Z" style="opacity: 1; stroke-width: 0px; fill: rgb(201, 165, 247); fill-opacity: 1;"/></g></g></g><rect class="legendtoggle" x="0" y="-9.5" width="52.984375" height="19" style="fill: rgb(0, 0, 0); fill-opacity: 0;"/></g></g></g><rect class="scrollbar" rx="20" ry="3" width="0" height="0" x="0" y="0" style="fill: rgb(128, 139, 164); fill-opacity: 1;"/></g><g class="g-gtitle"><text class="gtitle" x="35" y="50" text-anchor="start" dy="0em" style="font-family: 'Open Sans', verdana, arial, sans-serif; font-size: 17px; fill: rgb(42, 63, 95); opacity: 1; font-weight: normal; white-space: pre;">How 9.9 affects logits (change after patch-and-freeze)</text></g><g class="g-xtitle"><text class="xtitle" x="349.5" y="460.8" text-anchor="middle" style="font-family: 'Open Sans', verdana, arial, sans-serif; font-size: 14px; fill: rgb(42, 63, 95); opacity: 1; font-weight: normal; white-space: pre;">Attention on token</text></g><g class="g-ytitle"><text class="ytitle" transform="rotate(-90,38.91875,260)" x="38.91875" y="260" text-anchor="middle" style="font-family: 'Open Sans', verdana, arial, sans-serif; font-size: 14px; fill: rgb(42, 63, 95); opacity: 1; font-weight: normal; white-space: pre;">Change in logits</text></g></g></svg>