<svg class="main-svg" xmlns="http://www.w3.org/2000/svg" xmlns:xlink="http://www.w3.org/1999/xlink" width="700" height="500" style="" viewBox="0 0 700 500"><rect x="0" y="0" width="700" height="500" style="fill: rgb(255, 255, 255); fill-opacity: 1;"/><defs id="defs-dd775f"><g class="clips"><clipPath id="clipdd775fxyplot" class="plotclip"><rect width="539" height="320"/></clipPath><clipPath class="axesclip" id="clipdd775fx"><rect x="80" y="0" width="539" height="500"/></clipPath><clipPath class="axesclip" id="clipdd775fy"><rect x="0" y="100" width="700" height="320"/></clipPath><clipPath class="axesclip" id="clipdd775fxy"><rect x="80" y="100" width="539" height="320"/></clipPath></g><g class="gradients"/><g class="patterns"/></defs><g class="bglayer"><rect class="bg" x="80" y="100" width="539" height="320" style="fill: rgb(229, 236, 246); fill-opacity: 1; stroke-width: 0;"/></g><g class="layer-below"><g class="imagelayer"/><g class="shapelayer"/></g><g class="cartesianlayer"><g class="subplot xy"><g class="layer-subplot"><g class="shapelayer"/><g class="imagelayer"/></g><g class="gridlayer"><g class="x"><path class="xgrid crisp" transform="translate(210.17,0)" d="M0,100v320" style="stroke: rgb(255, 255, 255); stroke-opacity: 1; stroke-width: 1px;"/><path class="xgrid crisp" transform="translate(314.59000000000003,0)" d="M0,100v320" style="stroke: rgb(255, 255, 255); stroke-opacity: 1; stroke-width: 1px;"/><path class="xgrid crisp" transform="translate(419.01,0)" d="M0,100v320" style="stroke: rgb(255, 255, 255); stroke-opacity: 1; stroke-width: 1px;"/><path class="xgrid crisp" transform="translate(523.4300000000001,0)" d="M0,100v320" style="stroke: rgb(255, 255, 255); stroke-opacity: 1; stroke-width: 1px;"/></g><g class="y"><path class="ygrid crisp" transform="translate(0,373.28)" d="M80,0h539" style="stroke: rgb(255, 255, 255); stroke-opacity: 1; stroke-width: 1px;"/><path class="ygrid crisp" transform="translate(0,275.8)" d="M80,0h539" style="stroke: rgb(255, 255, 255); stroke-opacity: 1; stroke-width: 1px;"/><path class="ygrid crisp" transform="translate(0,227.06)" d="M80,0h539" style="stroke: rgb(255, 255, 255); stroke-opacity: 1; stroke-width: 1px;"/><path class="ygrid crisp" transform="translate(0,178.32)" d="M80,0h539" style="stroke: rgb(255, 255, 255); stroke-opacity: 1; stroke-width: 1px;"/><path class="ygrid crisp" transform="translate(0,129.57999999999998)" d="M80,0h539" style="stroke: rgb(255, 255, 255); stroke-opacity: 1; stroke-width: 1px;"/></g></g><g class="zerolinelayer"><path class="xzl zl crisp" transform="translate(105.75,0)" d="M0,100v320" style="stroke: rgb(255, 255, 255); stroke-opacity: 1; stroke-width: 2px;"/><path class="yzl zl crisp" transform="translate(0,324.53999999999996)" d="M80,0h539" style="stroke: rgb(255, 255, 255); stroke-opacity: 1; stroke-width: 2px;"/></g><path class="xlines-below"/><path class="ylines-below"/><g class="overlines-below"/><g class="xaxislayer-below"/><g class="yaxislayer-below"/><g class="overaxes-below"/><g class="plot" transform="translate(80,100)" clip-path="url(#clipdd775fxyplot)"><g class="scatterlayer mlayer"><g class="trace scatter tracefc9e1a" style="stroke-miterlimit: 2; opacity: 1;"><g class="fills"/><g class="errorbars"/><g class="lines"/><g class="points"><path class="point plotly-customdata" transform="translate(51.5,188.9)" d="M3,0A3,3 0 1,1 0,-3A3,3 0 0,1 3,0Z" style="opacity: 1; stroke-width: 0px; fill: rgb(114, 255, 100); fill-opacity: 1;"/><path class="point plotly-customdata" transform="translate(32.84,234.37)" d="M3,0A3,3 0 1,1 0,-3A3,3 0 0,1 3,0Z" style="opacity: 1; stroke-width: 0px; fill: rgb(114, 255, 100); fill-opacity: 1;"/><path class="point plotly-customdata" transform="translate(97.81,234.7)" d="M3,0A3,3 0 1,1 0,-3A3,3 0 0,1 3,0Z" style="opacity: 1; stroke-width: 0px; fill: rgb(114, 255, 100); fill-opacity: 1;"/><path class="point plotly-customdata" transform="translate(73.79,225.98)" d="M3,0A3,3 0 1,1 0,-3A3,3 0 0,1 3,0Z" style="opacity: 1; stroke-width: 0px; fill: rgb(114, 255, 100); fill-opacity: 1;"/><path class="point plotly-customdata" transform="translate(94.46,173.53)" d="M3,0A3,3 0 1,1 0,-3A3,3 0 0,1 3,0Z" style="opacity: 1; stroke-width: 0px; fill: rgb(114, 255, 100); fill-opacity: 1;"/><path class="point plotly-customdata" transform="translate(170.58,136.02)" d="M3,0A3,3 0 1,1 0,-3A3,3 0 0,1 3,0Z" style="opacity: 1; stroke-width: 0px; fill: rgb(114, 255, 100); fill-opacity: 1;"/><path class="point plotly-customdata" transform="translate(52.29,189.22)" d="M3,0A3,3 0 1,1 0,-3A3,3 0 0,1 3,0Z" style="opacity: 1; stroke-width: 0px; fill: rgb(114, 255, 100); fill-opacity: 1;"/><path class="point plotly-customdata" transform="translate(83.51,224.57)" d="M3,0A3,3 0 1,1 0,-3A3,3 0 0,1 3,0Z" style="opacity: 1; stroke-width: 0px; fill: rgb(114, 255, 100); fill-opacity: 1;"/><path class="point plotly-customdata" transform="translate(83.67,184.59)" d="M3,0A3,3 0 1,1 0,-3A3,3 0 0,1 3,0Z" style="opacity: 1; stroke-width: 0px; fill: rgb(114, 255, 100); fill-opacity: 1;"/><path class="point plotly-customdata" transform="translate(111.91,190.01)" d="M3,0A3,3 0 1,1 0,-3A3,3 0 0,1 3,0Z" style="opacity: 1; stroke-width: 0px; fill: rgb(114, 255, 100); fill-opacity: 1;"/><path class="point plotly-customdata" transform="translate(58.56,239.62)" d="M3,0A3,3 0 1,1 0,-3A3,3 0 0,1 3,0Z" style="opacity: 1; stroke-width: 0px; fill: rgb(114, 255, 100); fill-opacity: 1;"/><path class="point plotly-customdata" transform="translate(65.85,189.15)" d="M3,0A3,3 0 1,1 0,-3A3,3 0 0,1 3,0Z" style="opacity: 1; stroke-width: 0px; fill: rgb(114, 255, 100); fill-opacity: 1;"/><path class="point plotly-customdata" transform="translate(115.37,156.17)" d="M3,0A3,3 0 1,1 0,-3A3,3 0 0,1 3,0Z" style="opacity: 1; stroke-width: 0px; fill: rgb(114, 255, 100); fill-opacity: 1;"/><path class="point plotly-customdata" transform="translate(102.14,182.01)" d="M3,0A3,3 0 1,1 0,-3A3,3 0 0,1 3,0Z" style="opacity: 1; stroke-width: 0px; fill: rgb(114, 255, 100); fill-opacity: 1;"/><path class="point plotly-customdata" transform="translate(125,172.05)" d="M3,0A3,3 0 1,1 0,-3A3,3 0 0,1 3,0Z" style="opacity: 1; stroke-width: 0px; fill: rgb(114, 255, 100); fill-opacity: 1;"/><path class="point plotly-customdata" transform="translate(32.33,246.96)" d="M3,0A3,3 0 1,1 0,-3A3,3 0 0,1 3,0Z" style="opacity: 1; stroke-width: 0px; fill: rgb(114, 255, 100); fill-opacity: 1;"/><path class="point plotly-customdata" transform="translate(78.27,230.99)" d="M3,0A3,3 0 1,1 0,-3A3,3 0 0,1 3,0Z" style="opacity: 1; stroke-width: 0px; fill: rgb(114, 255, 100); fill-opacity: 1;"/><path class="point plotly-customdata" transform="translate(65.89,236.77)" d="M3,0A3,3 0 1,1 0,-3A3,3 0 0,1 3,0Z" style="opacity: 1; stroke-width: 0px; fill: rgb(114, 255, 100); fill-opacity: 1;"/><path class="point plotly-customdata" transform="translate(148.99,146.19)" d="M3,0A3,3 0 1,1 0,-3A3,3 0 0,1 3,0Z" style="opacity: 1; stroke-width: 0px; fill: rgb(114, 255, 100); fill-opacity: 1;"/><path class="point plotly-customdata" transform="translate(70.9,179.28)" d="M3,0A3,3 0 1,1 0,-3A3,3 0 0,1 3,0Z" style="opacity: 1; stroke-width: 0px; fill: rgb(114, 255, 100); fill-opacity: 1;"/><path class="point plotly-customdata" transform="translate(54.51,219.1)" d="M3,0A3,3 0 1,1 0,-3A3,3 0 0,1 3,0Z" style="opacity: 1; stroke-width: 0px; fill: rgb(114, 255, 100); fill-opacity: 1;"/><path class="point plotly-customdata" transform="translate(81.19,208.55)" d="M3,0A3,3 0 1,1 0,-3A3,3 0 0,1 3,0Z" style="opacity: 1; stroke-width: 0px; fill: rgb(114, 255, 100); fill-opacity: 1;"/><path class="point plotly-customdata" transform="translate(67.41,194.6)" d="M3,0A3,3 0 1,1 0,-3A3,3 0 0,1 3,0Z" style="opacity: 1; stroke-width: 0px; fill: rgb(114, 255, 100); fill-opacity: 1;"/><path class="point plotly-customdata" transform="translate(146.6,158.6)" d="M3,0A3,3 0 1,1 0,-3A3,3 0 0,1 3,0Z" style="opacity: 1; stroke-width: 0px; fill: rgb(114, 255, 100); fill-opacity: 1;"/><path class="point plotly-customdata" transform="translate(135.79,109.84)" d="M3,0A3,3 0 1,1 0,-3A3,3 0 0,1 3,0Z" style="opacity: 1; stroke-width: 0px; fill: rgb(114, 255, 100); fill-opacity: 1;"/><path class="point plotly-customdata" transform="translate(59.91,230.33)" d="M3,0A3,3 0 1,1 0,-3A3,3 0 0,1 3,0Z" style="opacity: 1; stroke-width: 0px; fill: rgb(114, 255, 100); fill-opacity: 1;"/><path class="point plotly-customdata" transform="translate(66.99,182.66)" d="M3,0A3,3 0 1,1 0,-3A3,3 0 0,1 3,0Z" style="opacity: 1; stroke-width: 0px; fill: rgb(114, 255, 100); fill-opacity: 1;"/><path class="point plotly-customdata" transform="translate(55.21,223.3)" d="M3,0A3,3 0 1,1 0,-3A3,3 0 0,1 3,0Z" style="opacity: 1; stroke-width: 0px; fill: rgb(114, 255, 100); fill-opacity: 1;"/><path class="point plotly-customdata" transform="translate(109.32,167.02)" d="M3,0A3,3 0 1,1 0,-3A3,3 0 0,1 3,0Z" style="opacity: 1; stroke-width: 0px; fill: rgb(114, 255, 100); fill-opacity: 1;"/><path class="point plotly-customdata" transform="translate(61.56,194.33)" d="M3,0A3,3 0 1,1 0,-3A3,3 0 0,1 3,0Z" style="opacity: 1; stroke-width: 0px; fill: rgb(114, 255, 100); fill-opacity: 1;"/><path class="point plotly-customdata" transform="translate(100.52,157.42)" d="M3,0A3,3 0 1,1 0,-3A3,3 0 0,1 3,0Z" style="opacity: 1; stroke-width: 0px; fill: rgb(114, 255, 100); fill-opacity: 1;"/><path class="point plotly-customdata" transform="translate(67.78,184.81)" d="M3,0A3,3 0 1,1 0,-3A3,3 0 0,1 3,0Z" style="opacity: 1; stroke-width: 0px; fill: rgb(114, 255, 100); fill-opacity: 1;"/><path class="point plotly-customdata" transform="translate(94.41,176.11)" d="M3,0A3,3 0 1,1 0,-3A3,3 0 0,1 3,0Z" style="opacity: 1; stroke-width: 0px; fill: rgb(114, 255, 100); fill-opacity: 1;"/><path class="point plotly-customdata" transform="translate(117.45,242.08)" d="M3,0A3,3 0 1,1 0,-3A3,3 0 0,1 3,0Z" style="opacity: 1; stroke-width: 0px; fill: rgb(114, 255, 100); fill-opacity: 1;"/><path class="point plotly-customdata" transform="translate(74.57,175.44)" d="M3,0A3,3 0 1,1 0,-3A3,3 0 0,1 3,0Z" style="opacity: 1; stroke-width: 0px; fill: rgb(114, 255, 100); fill-opacity: 1;"/><path class="point plotly-customdata" transform="translate(116.06,187.68)" d="M3,0A3,3 0 1,1 0,-3A3,3 0 0,1 3,0Z" style="opacity: 1; stroke-width: 0px; fill: rgb(114, 255, 100); fill-opacity: 1;"/><path class="point plotly-customdata" transform="translate(67.88,183.36)" d="M3,0A3,3 0 1,1 0,-3A3,3 0 0,1 3,0Z" style="opacity: 1; stroke-width: 0px; fill: rgb(114, 255, 100); fill-opacity: 1;"/><path class="point plotly-customdata" transform="translate(56.4,203.03)" d="M3,0A3,3 0 1,1 0,-3A3,3 0 0,1 3,0Z" style="opacity: 1; stroke-width: 0px; fill: rgb(114, 255, 100); fill-opacity: 1;"/><path class="point plotly-customdata" transform="translate(42.72,221.67)" d="M3,0A3,3 0 1,1 0,-3A3,3 0 0,1 3,0Z" style="opacity: 1; stroke-width: 0px; fill: rgb(114, 255, 100); fill-opacity: 1;"/><path class="point plotly-customdata" transform="translate(94.83,211.5)" d="M3,0A3,3 0 1,1 0,-3A3,3 0 0,1 3,0Z" style="opacity: 1; stroke-width: 0px; fill: rgb(114, 255, 100); fill-opacity: 1;"/><path class="point plotly-customdata" transform="translate(63.9,220.35)" d="M3,0A3,3 0 1,1 0,-3A3,3 0 0,1 3,0Z" style="opacity: 1; stroke-width: 0px; fill: rgb(114, 255, 100); fill-opacity: 1;"/><path class="point plotly-customdata" transform="translate(147.49,177.48)" d="M3,0A3,3 0 1,1 0,-3A3,3 0 0,1 3,0Z" style="opacity: 1; stroke-width: 0px; fill: rgb(114, 255, 100); fill-opacity: 1;"/><path class="point plotly-customdata" transform="translate(99.81,189.92)" d="M3,0A3,3 0 1,1 0,-3A3,3 0 0,1 3,0Z" style="opacity: 1; stroke-width: 0px; fill: rgb(114, 255, 100); fill-opacity: 1;"/><path class="point plotly-customdata" transform="translate(107.62,207.01)" d="M3,0A3,3 0 1,1 0,-3A3,3 0 0,1 3,0Z" style="opacity: 1; stroke-width: 0px; fill: rgb(114, 255, 100); fill-opacity: 1;"/><path class="point plotly-customdata" transform="translate(98.49,242.07)" d="M3,0A3,3 0 1,1 0,-3A3,3 0 0,1 3,0Z" style="opacity: 1; stroke-width: 0px; fill: rgb(114, 255, 100); fill-opacity: 1;"/><path class="point plotly-customdata" transform="translate(68.46,222.97)" d="M3,0A3,3 0 1,1 0,-3A3,3 0 0,1 3,0Z" style="opacity: 1; stroke-width: 0px; fill: rgb(114, 255, 100); fill-opacity: 1;"/><path class="point plotly-customdata" transform="translate(60.77,213.27)" d="M3,0A3,3 0 1,1 0,-3A3,3 0 0,1 3,0Z" style="opacity: 1; stroke-width: 0px; fill: rgb(114, 255, 100); fill-opacity: 1;"/><path class="point plotly-customdata" transform="translate(89.55,217.88)" d="M3,0A3,3 0 1,1 0,-3A3,3 0 0,1 3,0Z" style="opacity: 1; stroke-width: 0px; fill: rgb(114, 255, 100); fill-opacity: 1;"/><path class="point plotly-customdata" transform="translate(130.19,175.5)" d="M3,0A3,3 0 1,1 0,-3A3,3 0 0,1 3,0Z" style="opacity: 1; stroke-width: 0px; fill: rgb(114, 255, 100); fill-opacity: 1;"/><path class="point plotly-customdata" transform="translate(98.05,225.09)" d="M3,0A3,3 0 1,1 0,-3A3,3 0 0,1 3,0Z" style="opacity: 1; stroke-width: 0px; fill: rgb(114, 255, 100); fill-opacity: 1;"/><path class="point plotly-customdata" transform="translate(92.28,214.71)" d="M3,0A3,3 0 1,1 0,-3A3,3 0 0,1 3,0Z" style="opacity: 1; stroke-width: 0px; fill: rgb(114, 255, 100); fill-opacity: 1;"/><path class="point plotly-customdata" transform="translate(71.25,179.34)" d="M3,0A3,3 0 1,1 0,-3A3,3 0 0,1 3,0Z" style="opacity: 1; stroke-width: 0px; fill: rgb(114, 255, 100); fill-opacity: 1;"/><path class="point plotly-customdata" transform="translate(39.16,269.15)" d="M3,0A3,3 0 1,1 0,-3A3,3 0 0,1 3,0Z" style="opacity: 1; stroke-width: 0px; fill: rgb(114, 255, 100); fill-opacity: 1;"/><path class="point plotly-customdata" transform="translate(104.99,166.4)" d="M3,0A3,3 0 1,1 0,-3A3,3 0 0,1 3,0Z" style="opacity: 1; stroke-width: 0px; fill: rgb(114, 255, 100); fill-opacity: 1;"/><path class="point plotly-customdata" transform="translate(79.85,168.4)" d="M3,0A3,3 0 1,1 0,-3A3,3 0 0,1 3,0Z" style="opacity: 1; stroke-width: 0px; fill: rgb(114, 255, 100); fill-opacity: 1;"/><path class="point plotly-customdata" transform="translate(79.93,137.39)" d="M3,0A3,3 0 1,1 0,-3A3,3 0 0,1 3,0Z" style="opacity: 1; stroke-width: 0px; fill: rgb(114, 255, 100); fill-opacity: 1;"/><path class="point plotly-customdata" transform="translate(40.95,264.51)" d="M3,0A3,3 0 1,1 0,-3A3,3 0 0,1 3,0Z" style="opacity: 1; stroke-width: 0px; fill: rgb(114, 255, 100); fill-opacity: 1;"/><path class="point plotly-customdata" transform="translate(30.7,235.41)" d="M3,0A3,3 0 1,1 0,-3A3,3 0 0,1 3,0Z" style="opacity: 1; stroke-width: 0px; fill: rgb(114, 255, 100); fill-opacity: 1;"/><path class="point plotly-customdata" transform="translate(79.71,181.8)" d="M3,0A3,3 0 1,1 0,-3A3,3 0 0,1 3,0Z" style="opacity: 1; stroke-width: 0px; fill: rgb(114, 255, 100); fill-opacity: 1;"/><path class="point plotly-customdata" transform="translate(78.04,144.51)" d="M3,0A3,3 0 1,1 0,-3A3,3 0 0,1 3,0Z" style="opacity: 1; stroke-width: 0px; fill: rgb(114, 255, 100); fill-opacity: 1;"/><path class="point plotly-customdata" transform="translate(92.17,210.76)" d="M3,0A3,3 0 1,1 0,-3A3,3 0 0,1 3,0Z" style="opacity: 1; stroke-width: 0px; fill: rgb(114, 255, 100); fill-opacity: 1;"/><path class="point plotly-customdata" transform="translate(65.25,197.87)" d="M3,0A3,3 0 1,1 0,-3A3,3 0 0,1 3,0Z" style="opacity: 1; stroke-width: 0px; fill: rgb(114, 255, 100); fill-opacity: 1;"/><path class="point plotly-customdata" transform="translate(42.17,207.95)" d="M3,0A3,3 0 1,1 0,-3A3,3 0 0,1 3,0Z" style="opacity: 1; stroke-width: 0px; fill: rgb(114, 255, 100); fill-opacity: 1;"/><path class="point plotly-customdata" transform="translate(80.54,221.88)" d="M3,0A3,3 0 1,1 0,-3A3,3 0 0,1 3,0Z" style="opacity: 1; stroke-width: 0px; fill: rgb(114, 255, 100); fill-opacity: 1;"/><path class="point plotly-customdata" transform="translate(108.81,159.52)" d="M3,0A3,3 0 1,1 0,-3A3,3 0 0,1 3,0Z" style="opacity: 1; stroke-width: 0px; fill: rgb(114, 255, 100); fill-opacity: 1;"/><path class="point plotly-customdata" transform="translate(48.25,249.18)" d="M3,0A3,3 0 1,1 0,-3A3,3 0 0,1 3,0Z" style="opacity: 1; stroke-width: 0px; fill: rgb(114, 255, 100); fill-opacity: 1;"/><path class="point plotly-customdata" transform="translate(123.73,98.06)" d="M3,0A3,3 0 1,1 0,-3A3,3 0 0,1 3,0Z" style="opacity: 1; stroke-width: 0px; fill: rgb(114, 255, 100); fill-opacity: 1;"/><path class="point plotly-customdata" transform="translate(79.87,185.17)" d="M3,0A3,3 0 1,1 0,-3A3,3 0 0,1 3,0Z" style="opacity: 1; stroke-width: 0px; fill: rgb(114, 255, 100); fill-opacity: 1;"/><path class="point plotly-customdata" transform="translate(128.61,190.18)" d="M3,0A3,3 0 1,1 0,-3A3,3 0 0,1 3,0Z" style="opacity: 1; stroke-width: 0px; fill: rgb(114, 255, 100); fill-opacity: 1;"/><path class="point plotly-customdata" transform="translate(37.7,300.25)" d="M3,0A3,3 0 1,1 0,-3A3,3 0 0,1 3,0Z" style="opacity: 1; stroke-width: 0px; fill: rgb(114, 255, 100); fill-opacity: 1;"/><path class="point plotly-customdata" transform="translate(63.61,167.74)" d="M3,0A3,3 0 1,1 0,-3A3,3 0 0,1 3,0Z" style="opacity: 1; stroke-width: 0px; fill: rgb(114, 255, 100); fill-opacity: 1;"/><path class="point plotly-customdata" transform="translate(159.3,164.93)" d="M3,0A3,3 0 1,1 0,-3A3,3 0 0,1 3,0Z" style="opacity: 1; stroke-width: 0px; fill: rgb(114, 255, 100); fill-opacity: 1;"/><path class="point plotly-customdata" transform="translate(172.63,122.3)" d="M3,0A3,3 0 1,1 0,-3A3,3 0 0,1 3,0Z" style="opacity: 1; stroke-width: 0px; fill: rgb(114, 255, 100); fill-opacity: 1;"/><path class="point plotly-customdata" transform="translate(96.18,210.31)" d="M3,0A3,3 0 1,1 0,-3A3,3 0 0,1 3,0Z" style="opacity: 1; stroke-width: 0px; fill: rgb(114, 255, 100); fill-opacity: 1;"/><path class="point plotly-customdata" transform="translate(69.42,193.78)" d="M3,0A3,3 0 1,1 0,-3A3,3 0 0,1 3,0Z" style="opacity: 1; stroke-width: 0px; fill: rgb(114, 255, 100); fill-opacity: 1;"/><path class="point plotly-customdata" transform="translate(109.68,161.71)" d="M3,0A3,3 0 1,1 0,-3A3,3 0 0,1 3,0Z" style="opacity: 1; stroke-width: 0px; fill: rgb(114, 255, 100); fill-opacity: 1;"/><path class="point plotly-customdata" transform="translate(44.78,247.23)" d="M3,0A3,3 0 1,1 0,-3A3,3 0 0,1 3,0Z" style="opacity: 1; stroke-width: 0px; fill: rgb(114, 255, 100); fill-opacity: 1;"/><path class="point plotly-customdata" transform="translate(94.72,226.85)" d="M3,0A3,3 0 1,1 0,-3A3,3 0 0,1 3,0Z" style="opacity: 1; stroke-width: 0px; fill: rgb(114, 255, 100); fill-opacity: 1;"/><path class="point plotly-customdata" transform="translate(100.89,195.03)" d="M3,0A3,3 0 1,1 0,-3A3,3 0 0,1 3,0Z" style="opacity: 1; stroke-width: 0px; fill: rgb(114, 255, 100); fill-opacity: 1;"/><path class="point plotly-customdata" transform="translate(40.11,255.59)" d="M3,0A3,3 0 1,1 0,-3A3,3 0 0,1 3,0Z" style="opacity: 1; stroke-width: 0px; fill: rgb(114, 255, 100); fill-opacity: 1;"/><path class="point plotly-customdata" transform="translate(123.63,223.87)" d="M3,0A3,3 0 1,1 0,-3A3,3 0 0,1 3,0Z" style="opacity: 1; stroke-width: 0px; fill: rgb(114, 255, 100); fill-opacity: 1;"/><path class="point plotly-customdata" transform="translate(130.28,167.46)" d="M3,0A3,3 0 1,1 0,-3A3,3 0 0,1 3,0Z" style="opacity: 1; stroke-width: 0px; fill: rgb(114, 255, 100); fill-opacity: 1;"/><path class="point plotly-customdata" transform="translate(108.8,201.06)" d="M3,0A3,3 0 1,1 0,-3A3,3 0 0,1 3,0Z" style="opacity: 1; stroke-width: 0px; fill: rgb(114, 255, 100); fill-opacity: 1;"/><path class="point plotly-customdata" transform="translate(71.38,193.44)" d="M3,0A3,3 0 1,1 0,-3A3,3 0 0,1 3,0Z" style="opacity: 1; stroke-width: 0px; fill: rgb(114, 255, 100); fill-opacity: 1;"/><path class="point plotly-customdata" transform="translate(76.77,204.46)" d="M3,0A3,3 0 1,1 0,-3A3,3 0 0,1 3,0Z" style="opacity: 1; stroke-width: 0px; fill: rgb(114, 255, 100); fill-opacity: 1;"/><path class="point plotly-customdata" transform="translate(71.01,197.77)" d="M3,0A3,3 0 1,1 0,-3A3,3 0 0,1 3,0Z" style="opacity: 1; stroke-width: 0px; fill: rgb(114, 255, 100); fill-opacity: 1;"/><path class="point plotly-customdata" transform="translate(143.16,213.37)" d="M3,0A3,3 0 1,1 0,-3A3,3 0 0,1 3,0Z" style="opacity: 1; stroke-width: 0px; fill: rgb(114, 255, 100); fill-opacity: 1;"/><path class="point plotly-customdata" transform="translate(58.59,240.04)" d="M3,0A3,3 0 1,1 0,-3A3,3 0 0,1 3,0Z" style="opacity: 1; stroke-width: 0px; fill: rgb(114, 255, 100); fill-opacity: 1;"/><path class="point plotly-customdata" transform="translate(107.84,229.17)" d="M3,0A3,3 0 1,1 0,-3A3,3 0 0,1 3,0Z" style="opacity: 1; stroke-width: 0px; fill: rgb(114, 255, 100); fill-opacity: 1;"/><path class="point plotly-customdata" transform="translate(84.6,173.26)" d="M3,0A3,3 0 1,1 0,-3A3,3 0 0,1 3,0Z" style="opacity: 1; stroke-width: 0px; fill: rgb(114, 255, 100); fill-opacity: 1;"/><path class="point plotly-customdata" transform="translate(47.93,227.81)" d="M3,0A3,3 0 1,1 0,-3A3,3 0 0,1 3,0Z" style="opacity: 1; stroke-width: 0px; fill: rgb(114, 255, 100); fill-opacity: 1;"/><path class="point plotly-customdata" transform="translate(43.17,300.07)" d="M3,0A3,3 0 1,1 0,-3A3,3 0 0,1 3,0Z" style="opacity: 1; stroke-width: 0px; fill: rgb(114, 255, 100); fill-opacity: 1;"/><path class="point plotly-customdata" transform="translate(124.02,179.73)" d="M3,0A3,3 0 1,1 0,-3A3,3 0 0,1 3,0Z" style="opacity: 1; stroke-width: 0px; fill: rgb(114, 255, 100); fill-opacity: 1;"/><path class="point plotly-customdata" transform="translate(48.68,216.94)" d="M3,0A3,3 0 1,1 0,-3A3,3 0 0,1 3,0Z" style="opacity: 1; stroke-width: 0px; fill: rgb(114, 255, 100); fill-opacity: 1;"/><path class="point plotly-customdata" transform="translate(73.71,208.4)" d="M3,0A3,3 0 1,1 0,-3A3,3 0 0,1 3,0Z" style="opacity: 1; stroke-width: 0px; fill: rgb(114, 255, 100); fill-opacity: 1;"/><path class="point plotly-customdata" transform="translate(131.58,183.53)" d="M3,0A3,3 0 1,1 0,-3A3,3 0 0,1 3,0Z" style="opacity: 1; stroke-width: 0px; fill: rgb(114, 255, 100); fill-opacity: 1;"/><path class="point plotly-customdata" transform="translate(140.57,186.06)" d="M3,0A3,3 0 1,1 0,-3A3,3 0 0,1 3,0Z" style="opacity: 1; stroke-width: 0px; fill: rgb(114, 255, 100); fill-opacity: 1;"/><path class="point plotly-customdata" transform="translate(32.69,214.29)" d="M3,0A3,3 0 1,1 0,-3A3,3 0 0,1 3,0Z" style="opacity: 1; stroke-width: 0px; fill: rgb(114, 255, 100); fill-opacity: 1;"/><path class="point plotly-customdata" transform="translate(185.52,129.23)" d="M3,0A3,3 0 1,1 0,-3A3,3 0 0,1 3,0Z" style="opacity: 1; stroke-width: 0px; fill: rgb(114, 255, 100); fill-opacity: 1;"/><path class="point plotly-customdata" transform="translate(59.52,218.26)" d="M3,0A3,3 0 1,1 0,-3A3,3 0 0,1 3,0Z" style="opacity: 1; stroke-width: 0px; fill: rgb(114, 255, 100); fill-opacity: 1;"/></g><g class="text"/></g><g class="trace scatter trace302dc0" style="stroke-miterlimit: 2; opacity: 1;"><g class="fills"/><g class="errorbars"/><g class="lines"/><g class="points"><path class="point plotly-customdata" transform="translate(438.89,102.05)" d="M3,0A3,3 0 1,1 0,-3A3,3 0 0,1 3,0Z" style="opacity: 1; stroke-width: 0px; fill: rgb(201, 165, 247); fill-opacity: 1;"/><path class="point plotly-customdata" transform="translate(508.3,19.75)" d="M3,0A3,3 0 1,1 0,-3A3,3 0 0,1 3,0Z" style="opacity: 1; stroke-width: 0px; fill: rgb(201, 165, 247); fill-opacity: 1;"/><path class="point plotly-customdata" transform="translate(274.81,171.71)" d="M3,0A3,3 0 1,1 0,-3A3,3 0 0,1 3,0Z" style="opacity: 1; stroke-width: 0px; fill: rgb(201, 165, 247); fill-opacity: 1;"/><path class="point plotly-customdata" transform="translate(314.46,199.35)" d="M3,0A3,3 0 1,1 0,-3A3,3 0 0,1 3,0Z" style="opacity: 1; stroke-width: 0px; fill: rgb(201, 165, 247); fill-opacity: 1;"/><path class="point plotly-customdata" transform="translate(362.16,101.9)" d="M3,0A3,3 0 1,1 0,-3A3,3 0 0,1 3,0Z" style="opacity: 1; stroke-width: 0px; fill: rgb(201, 165, 247); fill-opacity: 1;"/><path class="point plotly-customdata" transform="translate(182.24,181.52)" d="M3,0A3,3 0 1,1 0,-3A3,3 0 0,1 3,0Z" style="opacity: 1; stroke-width: 0px; fill: rgb(201, 165, 247); fill-opacity: 1;"/><path class="point plotly-customdata" transform="translate(396.5,83.45)" d="M3,0A3,3 0 1,1 0,-3A3,3 0 0,1 3,0Z" style="opacity: 1; stroke-width: 0px; fill: rgb(201, 165, 247); fill-opacity: 1;"/><path class="point plotly-customdata" transform="translate(293.59,186.51)" d="M3,0A3,3 0 1,1 0,-3A3,3 0 0,1 3,0Z" style="opacity: 1; stroke-width: 0px; fill: rgb(201, 165, 247); fill-opacity: 1;"/><path class="point plotly-customdata" transform="translate(332.28,118.84)" d="M3,0A3,3 0 1,1 0,-3A3,3 0 0,1 3,0Z" style="opacity: 1; stroke-width: 0px; fill: rgb(201, 165, 247); fill-opacity: 1;"/><path class="point plotly-customdata" transform="translate(282.01,123.05)" d="M3,0A3,3 0 1,1 0,-3A3,3 0 0,1 3,0Z" style="opacity: 1; stroke-width: 0px; fill: rgb(201, 165, 247); fill-opacity: 1;"/><path class="point plotly-customdata" transform="translate(442.53,109.36)" d="M3,0A3,3 0 1,1 0,-3A3,3 0 0,1 3,0Z" style="opacity: 1; stroke-width: 0px; fill: rgb(201, 165, 247); fill-opacity: 1;"/><path class="point plotly-customdata" transform="translate(453.75,89.67)" d="M3,0A3,3 0 1,1 0,-3A3,3 0 0,1 3,0Z" style="opacity: 1; stroke-width: 0px; fill: rgb(201, 165, 247); fill-opacity: 1;"/><path class="point plotly-customdata" transform="translate(344.7,144.49)" d="M3,0A3,3 0 1,1 0,-3A3,3 0 0,1 3,0Z" style="opacity: 1; stroke-width: 0px; fill: rgb(201, 165, 247); fill-opacity: 1;"/><path class="point plotly-customdata" transform="translate(270.34,136.55)" d="M3,0A3,3 0 1,1 0,-3A3,3 0 0,1 3,0Z" style="opacity: 1; stroke-width: 0px; fill: rgb(201, 165, 247); fill-opacity: 1;"/><path class="point plotly-customdata" transform="translate(312.08,150.47)" d="M3,0A3,3 0 1,1 0,-3A3,3 0 0,1 3,0Z" style="opacity: 1; stroke-width: 0px; fill: rgb(201, 165, 247); fill-opacity: 1;"/><path class="point plotly-customdata" transform="translate(482.71,47.43)" d="M3,0A3,3 0 1,1 0,-3A3,3 0 0,1 3,0Z" style="opacity: 1; stroke-width: 0px; fill: rgb(201, 165, 247); fill-opacity: 1;"/><path class="point plotly-customdata" transform="translate(346.34,104.63)" d="M3,0A3,3 0 1,1 0,-3A3,3 0 0,1 3,0Z" style="opacity: 1; stroke-width: 0px; fill: rgb(201, 165, 247); fill-opacity: 1;"/><path class="point plotly-customdata" transform="translate(446.82,101.95)" d="M3,0A3,3 0 1,1 0,-3A3,3 0 0,1 3,0Z" style="opacity: 1; stroke-width: 0px; fill: rgb(201, 165, 247); fill-opacity: 1;"/><path class="point plotly-customdata" transform="translate(260.16,150.44)" d="M3,0A3,3 0 1,1 0,-3A3,3 0 0,1 3,0Z" style="opacity: 1; stroke-width: 0px; fill: rgb(201, 165, 247); fill-opacity: 1;"/><path class="point plotly-customdata" transform="translate(395.09,94.31)" d="M3,0A3,3 0 1,1 0,-3A3,3 0 0,1 3,0Z" style="opacity: 1; stroke-width: 0px; fill: rgb(201, 165, 247); fill-opacity: 1;"/><path class="point plotly-customdata" transform="translate(433.69,73.18)" d="M3,0A3,3 0 1,1 0,-3A3,3 0 0,1 3,0Z" style="opacity: 1; stroke-width: 0px; fill: rgb(201, 165, 247); fill-opacity: 1;"/><path class="point plotly-customdata" transform="translate(368.55,95.25)" d="M3,0A3,3 0 1,1 0,-3A3,3 0 0,1 3,0Z" style="opacity: 1; stroke-width: 0px; fill: rgb(201, 165, 247); fill-opacity: 1;"/><path class="point plotly-customdata" transform="translate(403.18,71.44)" d="M3,0A3,3 0 1,1 0,-3A3,3 0 0,1 3,0Z" style="opacity: 1; stroke-width: 0px; fill: rgb(201, 165, 247); fill-opacity: 1;"/><path class="point plotly-customdata" transform="translate(344.21,115.79)" d="M3,0A3,3 0 1,1 0,-3A3,3 0 0,1 3,0Z" style="opacity: 1; stroke-width: 0px; fill: rgb(201, 165, 247); fill-opacity: 1;"/><path class="point plotly-customdata" transform="translate(219.08,207)" d="M3,0A3,3 0 1,1 0,-3A3,3 0 0,1 3,0Z" style="opacity: 1; stroke-width: 0px; fill: rgb(201, 165, 247); fill-opacity: 1;"/><path class="point plotly-customdata" transform="translate(433.38,118.17)" d="M3,0A3,3 0 1,1 0,-3A3,3 0 0,1 3,0Z" style="opacity: 1; stroke-width: 0px; fill: rgb(201, 165, 247); fill-opacity: 1;"/><path class="point plotly-customdata" transform="translate(350.47,83.88)" d="M3,0A3,3 0 1,1 0,-3A3,3 0 0,1 3,0Z" style="opacity: 1; stroke-width: 0px; fill: rgb(201, 165, 247); fill-opacity: 1;"/><path class="point plotly-customdata" transform="translate(447,93.78)" d="M3,0A3,3 0 1,1 0,-3A3,3 0 0,1 3,0Z" style="opacity: 1; stroke-width: 0px; fill: rgb(201, 165, 247); fill-opacity: 1;"/><path class="point plotly-customdata" transform="translate(269.05,134.3)" d="M3,0A3,3 0 1,1 0,-3A3,3 0 0,1 3,0Z" style="opacity: 1; stroke-width: 0px; fill: rgb(201, 165, 247); fill-opacity: 1;"/><path class="point plotly-customdata" transform="translate(434.3,123.75)" d="M3,0A3,3 0 1,1 0,-3A3,3 0 0,1 3,0Z" style="opacity: 1; stroke-width: 0px; fill: rgb(201, 165, 247); fill-opacity: 1;"/><path class="point plotly-customdata" transform="translate(388.69,99.99)" d="M3,0A3,3 0 1,1 0,-3A3,3 0 0,1 3,0Z" style="opacity: 1; stroke-width: 0px; fill: rgb(201, 165, 247); fill-opacity: 1;"/><path class="point plotly-customdata" transform="translate(475.33,72.91)" d="M3,0A3,3 0 1,1 0,-3A3,3 0 0,1 3,0Z" style="opacity: 1; stroke-width: 0px; fill: rgb(201, 165, 247); fill-opacity: 1;"/><path class="point plotly-customdata" transform="translate(370.84,107.21)" d="M3,0A3,3 0 1,1 0,-3A3,3 0 0,1 3,0Z" style="opacity: 1; stroke-width: 0px; fill: rgb(201, 165, 247); fill-opacity: 1;"/><path class="point plotly-customdata" transform="translate(385.24,127.58)" d="M3,0A3,3 0 1,1 0,-3A3,3 0 0,1 3,0Z" style="opacity: 1; stroke-width: 0px; fill: rgb(201, 165, 247); fill-opacity: 1;"/><path class="point plotly-customdata" transform="translate(371.78,76.84)" d="M3,0A3,3 0 1,1 0,-3A3,3 0 0,1 3,0Z" style="opacity: 1; stroke-width: 0px; fill: rgb(201, 165, 247); fill-opacity: 1;"/><path class="point plotly-customdata" transform="translate(272.69,124.11)" d="M3,0A3,3 0 1,1 0,-3A3,3 0 0,1 3,0Z" style="opacity: 1; stroke-width: 0px; fill: rgb(201, 165, 247); fill-opacity: 1;"/><path class="point plotly-customdata" transform="translate(375.26,86.07)" d="M3,0A3,3 0 1,1 0,-3A3,3 0 0,1 3,0Z" style="opacity: 1; stroke-width: 0px; fill: rgb(201, 165, 247); fill-opacity: 1;"/><path class="point plotly-customdata" transform="translate(464.22,100.33)" d="M3,0A3,3 0 1,1 0,-3A3,3 0 0,1 3,0Z" style="opacity: 1; stroke-width: 0px; fill: rgb(201, 165, 247); fill-opacity: 1;"/><path class="point plotly-customdata" transform="translate(501.9,62.2)" d="M3,0A3,3 0 1,1 0,-3A3,3 0 0,1 3,0Z" style="opacity: 1; stroke-width: 0px; fill: rgb(201, 165, 247); fill-opacity: 1;"/><path class="point plotly-customdata" transform="translate(304.76,112.05)" d="M3,0A3,3 0 1,1 0,-3A3,3 0 0,1 3,0Z" style="opacity: 1; stroke-width: 0px; fill: rgb(201, 165, 247); fill-opacity: 1;"/><path class="point plotly-customdata" transform="translate(258.08,179.01)" d="M3,0A3,3 0 1,1 0,-3A3,3 0 0,1 3,0Z" style="opacity: 1; stroke-width: 0px; fill: rgb(201, 165, 247); fill-opacity: 1;"/><path class="point plotly-customdata" transform="translate(290.36,159.87)" d="M3,0A3,3 0 1,1 0,-3A3,3 0 0,1 3,0Z" style="opacity: 1; stroke-width: 0px; fill: rgb(201, 165, 247); fill-opacity: 1;"/><path class="point plotly-customdata" transform="translate(397.15,153.08)" d="M3,0A3,3 0 1,1 0,-3A3,3 0 0,1 3,0Z" style="opacity: 1; stroke-width: 0px; fill: rgb(201, 165, 247); fill-opacity: 1;"/><path class="point plotly-customdata" transform="translate(304.65,172.61)" d="M3,0A3,3 0 1,1 0,-3A3,3 0 0,1 3,0Z" style="opacity: 1; stroke-width: 0px; fill: rgb(201, 165, 247); fill-opacity: 1;"/><path class="point plotly-customdata" transform="translate(144.88,238.58)" d="M3,0A3,3 0 1,1 0,-3A3,3 0 0,1 3,0Z" style="opacity: 1; stroke-width: 0px; fill: rgb(201, 165, 247); fill-opacity: 1;"/><path class="point plotly-customdata" transform="translate(360.85,88.42)" d="M3,0A3,3 0 1,1 0,-3A3,3 0 0,1 3,0Z" style="opacity: 1; stroke-width: 0px; fill: rgb(201, 165, 247); fill-opacity: 1;"/><path class="point plotly-customdata" transform="translate(323.62,127.5)" d="M3,0A3,3 0 1,1 0,-3A3,3 0 0,1 3,0Z" style="opacity: 1; stroke-width: 0px; fill: rgb(201, 165, 247); fill-opacity: 1;"/><path class="point plotly-customdata" transform="translate(320.76,117.94)" d="M3,0A3,3 0 1,1 0,-3A3,3 0 0,1 3,0Z" style="opacity: 1; stroke-width: 0px; fill: rgb(201, 165, 247); fill-opacity: 1;"/><path class="point plotly-customdata" transform="translate(306.4,141.8)" d="M3,0A3,3 0 1,1 0,-3A3,3 0 0,1 3,0Z" style="opacity: 1; stroke-width: 0px; fill: rgb(201, 165, 247); fill-opacity: 1;"/><path class="point plotly-customdata" transform="translate(356.97,130.78)" d="M3,0A3,3 0 1,1 0,-3A3,3 0 0,1 3,0Z" style="opacity: 1; stroke-width: 0px; fill: rgb(201, 165, 247); fill-opacity: 1;"/><path class="point plotly-customdata" transform="translate(301.61,173.52)" d="M3,0A3,3 0 1,1 0,-3A3,3 0 0,1 3,0Z" style="opacity: 1; stroke-width: 0px; fill: rgb(201, 165, 247); fill-opacity: 1;"/><path class="point plotly-customdata" transform="translate(397.45,109.19)" d="M3,0A3,3 0 1,1 0,-3A3,3 0 0,1 3,0Z" style="opacity: 1; stroke-width: 0px; fill: rgb(201, 165, 247); fill-opacity: 1;"/><path class="point plotly-customdata" transform="translate(490.71,110.12)" d="M3,0A3,3 0 1,1 0,-3A3,3 0 0,1 3,0Z" style="opacity: 1; stroke-width: 0px; fill: rgb(201, 165, 247); fill-opacity: 1;"/><path class="point plotly-customdata" transform="translate(279.38,145.31)" d="M3,0A3,3 0 1,1 0,-3A3,3 0 0,1 3,0Z" style="opacity: 1; stroke-width: 0px; fill: rgb(201, 165, 247); fill-opacity: 1;"/><path class="point plotly-customdata" transform="translate(444.96,86)" d="M3,0A3,3 0 1,1 0,-3A3,3 0 0,1 3,0Z" style="opacity: 1; stroke-width: 0px; fill: rgb(201, 165, 247); fill-opacity: 1;"/><path class="point plotly-customdata" transform="translate(402.85,66.69)" d="M3,0A3,3 0 1,1 0,-3A3,3 0 0,1 3,0Z" style="opacity: 1; stroke-width: 0px; fill: rgb(201, 165, 247); fill-opacity: 1;"/><path class="point plotly-customdata" transform="translate(455.05,68.8)" d="M3,0A3,3 0 1,1 0,-3A3,3 0 0,1 3,0Z" style="opacity: 1; stroke-width: 0px; fill: rgb(201, 165, 247); fill-opacity: 1;"/><path class="point plotly-customdata" transform="translate(498.04,124.21)" d="M3,0A3,3 0 1,1 0,-3A3,3 0 0,1 3,0Z" style="opacity: 1; stroke-width: 0px; fill: rgb(201, 165, 247); fill-opacity: 1;"/><path class="point plotly-customdata" transform="translate(337.86,133.43)" d="M3,0A3,3 0 1,1 0,-3A3,3 0 0,1 3,0Z" style="opacity: 1; stroke-width: 0px; fill: rgb(201, 165, 247); fill-opacity: 1;"/><path class="point plotly-customdata" transform="translate(385.05,63.07)" d="M3,0A3,3 0 1,1 0,-3A3,3 0 0,1 3,0Z" style="opacity: 1; stroke-width: 0px; fill: rgb(201, 165, 247); fill-opacity: 1;"/><path class="point plotly-customdata" transform="translate(330.69,157.64)" d="M3,0A3,3 0 1,1 0,-3A3,3 0 0,1 3,0Z" style="opacity: 1; stroke-width: 0px; fill: rgb(201, 165, 247); fill-opacity: 1;"/><path class="point plotly-customdata" transform="translate(380.66,88.25)" d="M3,0A3,3 0 1,1 0,-3A3,3 0 0,1 3,0Z" style="opacity: 1; stroke-width: 0px; fill: rgb(201, 165, 247); fill-opacity: 1;"/><path class="point plotly-customdata" transform="translate(416,102.96)" d="M3,0A3,3 0 1,1 0,-3A3,3 0 0,1 3,0Z" style="opacity: 1; stroke-width: 0px; fill: rgb(201, 165, 247); fill-opacity: 1;"/><path class="point plotly-customdata" transform="translate(247.83,176.17)" d="M3,0A3,3 0 1,1 0,-3A3,3 0 0,1 3,0Z" style="opacity: 1; stroke-width: 0px; fill: rgb(201, 165, 247); fill-opacity: 1;"/><path class="point plotly-customdata" transform="translate(264.12,170.34)" d="M3,0A3,3 0 1,1 0,-3A3,3 0 0,1 3,0Z" style="opacity: 1; stroke-width: 0px; fill: rgb(201, 165, 247); fill-opacity: 1;"/><path class="point plotly-customdata" transform="translate(347.59,136.85)" d="M3,0A3,3 0 1,1 0,-3A3,3 0 0,1 3,0Z" style="opacity: 1; stroke-width: 0px; fill: rgb(201, 165, 247); fill-opacity: 1;"/><path class="point plotly-customdata" transform="translate(306.39,54.26)" d="M3,0A3,3 0 1,1 0,-3A3,3 0 0,1 3,0Z" style="opacity: 1; stroke-width: 0px; fill: rgb(201, 165, 247); fill-opacity: 1;"/><path class="point plotly-customdata" transform="translate(321.82,148.31)" d="M3,0A3,3 0 1,1 0,-3A3,3 0 0,1 3,0Z" style="opacity: 1; stroke-width: 0px; fill: rgb(201, 165, 247); fill-opacity: 1;"/><path class="point plotly-customdata" transform="translate(330.08,189.25)" d="M3,0A3,3 0 1,1 0,-3A3,3 0 0,1 3,0Z" style="opacity: 1; stroke-width: 0px; fill: rgb(201, 165, 247); fill-opacity: 1;"/><path class="point plotly-customdata" transform="translate(463.12,42.3)" d="M3,0A3,3 0 1,1 0,-3A3,3 0 0,1 3,0Z" style="opacity: 1; stroke-width: 0px; fill: rgb(201, 165, 247); fill-opacity: 1;"/><path class="point plotly-customdata" transform="translate(363.8,145.05)" d="M3,0A3,3 0 1,1 0,-3A3,3 0 0,1 3,0Z" style="opacity: 1; stroke-width: 0px; fill: rgb(201, 165, 247); fill-opacity: 1;"/><path class="point plotly-customdata" transform="translate(222.16,160.23)" d="M3,0A3,3 0 1,1 0,-3A3,3 0 0,1 3,0Z" style="opacity: 1; stroke-width: 0px; fill: rgb(201, 165, 247); fill-opacity: 1;"/><path class="point plotly-customdata" transform="translate(231.5,153.06)" d="M3,0A3,3 0 1,1 0,-3A3,3 0 0,1 3,0Z" style="opacity: 1; stroke-width: 0px; fill: rgb(201, 165, 247); fill-opacity: 1;"/><path class="point plotly-customdata" transform="translate(291.08,152.07)" d="M3,0A3,3 0 1,1 0,-3A3,3 0 0,1 3,0Z" style="opacity: 1; stroke-width: 0px; fill: rgb(201, 165, 247); fill-opacity: 1;"/><path class="point plotly-customdata" transform="translate(363.24,92.37)" d="M3,0A3,3 0 1,1 0,-3A3,3 0 0,1 3,0Z" style="opacity: 1; stroke-width: 0px; fill: rgb(201, 165, 247); fill-opacity: 1;"/><path class="point plotly-customdata" transform="translate(330.88,129.06)" d="M3,0A3,3 0 1,1 0,-3A3,3 0 0,1 3,0Z" style="opacity: 1; stroke-width: 0px; fill: rgb(201, 165, 247); fill-opacity: 1;"/><path class="point plotly-customdata" transform="translate(443.61,73.62)" d="M3,0A3,3 0 1,1 0,-3A3,3 0 0,1 3,0Z" style="opacity: 1; stroke-width: 0px; fill: rgb(201, 165, 247); fill-opacity: 1;"/><path class="point plotly-customdata" transform="translate(294.78,154.05)" d="M3,0A3,3 0 1,1 0,-3A3,3 0 0,1 3,0Z" style="opacity: 1; stroke-width: 0px; fill: rgb(201, 165, 247); fill-opacity: 1;"/><path class="point plotly-customdata" transform="translate(219.46,185.83)" d="M3,0A3,3 0 1,1 0,-3A3,3 0 0,1 3,0Z" style="opacity: 1; stroke-width: 0px; fill: rgb(201, 165, 247); fill-opacity: 1;"/><path class="point plotly-customdata" transform="translate(395.02,74.2)" d="M3,0A3,3 0 1,1 0,-3A3,3 0 0,1 3,0Z" style="opacity: 1; stroke-width: 0px; fill: rgb(201, 165, 247); fill-opacity: 1;"/><path class="point plotly-customdata" transform="translate(349.82,128.1)" d="M3,0A3,3 0 1,1 0,-3A3,3 0 0,1 3,0Z" style="opacity: 1; stroke-width: 0px; fill: rgb(201, 165, 247); fill-opacity: 1;"/><path class="point plotly-customdata" transform="translate(184.48,214.91)" d="M3,0A3,3 0 1,1 0,-3A3,3 0 0,1 3,0Z" style="opacity: 1; stroke-width: 0px; fill: rgb(201, 165, 247); fill-opacity: 1;"/><path class="point plotly-customdata" transform="translate(237.59,164.08)" d="M3,0A3,3 0 1,1 0,-3A3,3 0 0,1 3,0Z" style="opacity: 1; stroke-width: 0px; fill: rgb(201, 165, 247); fill-opacity: 1;"/><path class="point plotly-customdata" transform="translate(256.56,162.88)" d="M3,0A3,3 0 1,1 0,-3A3,3 0 0,1 3,0Z" style="opacity: 1; stroke-width: 0px; fill: rgb(201, 165, 247); fill-opacity: 1;"/><path class="point plotly-customdata" transform="translate(382.6,100.68)" d="M3,0A3,3 0 1,1 0,-3A3,3 0 0,1 3,0Z" style="opacity: 1; stroke-width: 0px; fill: rgb(201, 165, 247); fill-opacity: 1;"/><path class="point plotly-customdata" transform="translate(438.9,140.53)" d="M3,0A3,3 0 1,1 0,-3A3,3 0 0,1 3,0Z" style="opacity: 1; stroke-width: 0px; fill: rgb(201, 165, 247); fill-opacity: 1;"/><path class="point plotly-customdata" transform="translate(296.14,151.98)" d="M3,0A3,3 0 1,1 0,-3A3,3 0 0,1 3,0Z" style="opacity: 1; stroke-width: 0px; fill: rgb(201, 165, 247); fill-opacity: 1;"/><path class="point plotly-customdata" transform="translate(409.24,65.33)" d="M3,0A3,3 0 1,1 0,-3A3,3 0 0,1 3,0Z" style="opacity: 1; stroke-width: 0px; fill: rgb(201, 165, 247); fill-opacity: 1;"/><path class="point plotly-customdata" transform="translate(253.95,185.39)" d="M3,0A3,3 0 1,1 0,-3A3,3 0 0,1 3,0Z" style="opacity: 1; stroke-width: 0px; fill: rgb(201, 165, 247); fill-opacity: 1;"/><path class="point plotly-customdata" transform="translate(314.18,131.56)" d="M3,0A3,3 0 1,1 0,-3A3,3 0 0,1 3,0Z" style="opacity: 1; stroke-width: 0px; fill: rgb(201, 165, 247); fill-opacity: 1;"/><path class="point plotly-customdata" transform="translate(441.19,97.79)" d="M3,0A3,3 0 1,1 0,-3A3,3 0 0,1 3,0Z" style="opacity: 1; stroke-width: 0px; fill: rgb(201, 165, 247); fill-opacity: 1;"/><path class="point plotly-customdata" transform="translate(451.32,84.1)" d="M3,0A3,3 0 1,1 0,-3A3,3 0 0,1 3,0Z" style="opacity: 1; stroke-width: 0px; fill: rgb(201, 165, 247); fill-opacity: 1;"/><path class="point plotly-customdata" transform="translate(302.84,147.49)" d="M3,0A3,3 0 1,1 0,-3A3,3 0 0,1 3,0Z" style="opacity: 1; stroke-width: 0px; fill: rgb(201, 165, 247); fill-opacity: 1;"/><path class="point plotly-customdata" transform="translate(422.35,63.06)" d="M3,0A3,3 0 1,1 0,-3A3,3 0 0,1 3,0Z" style="opacity: 1; stroke-width: 0px; fill: rgb(201, 165, 247); fill-opacity: 1;"/><path class="point plotly-customdata" transform="translate(355.9,98.3)" d="M3,0A3,3 0 1,1 0,-3A3,3 0 0,1 3,0Z" style="opacity: 1; stroke-width: 0px; fill: rgb(201, 165, 247); fill-opacity: 1;"/><path class="point plotly-customdata" transform="translate(317.87,140.16)" d="M3,0A3,3 0 1,1 0,-3A3,3 0 0,1 3,0Z" style="opacity: 1; stroke-width: 0px; fill: rgb(201, 165, 247); fill-opacity: 1;"/><path class="point plotly-customdata" transform="translate(319.04,153.07)" d="M3,0A3,3 0 1,1 0,-3A3,3 0 0,1 3,0Z" style="opacity: 1; stroke-width: 0px; fill: rgb(201, 165, 247); fill-opacity: 1;"/><path class="point plotly-customdata" transform="translate(491.12,20.6)" d="M3,0A3,3 0 1,1 0,-3A3,3 0 0,1 3,0Z" style="opacity: 1; stroke-width: 0px; fill: rgb(201, 165, 247); fill-opacity: 1;"/><path class="point plotly-customdata" transform="translate(164.12,177.5)" d="M3,0A3,3 0 1,1 0,-3A3,3 0 0,1 3,0Z" style="opacity: 1; stroke-width: 0px; fill: rgb(201, 165, 247); fill-opacity: 1;"/><path class="point plotly-customdata" transform="translate(451.87,89.99)" d="M3,0A3,3 0 1,1 0,-3A3,3 0 0,1 3,0Z" style="opacity: 1; stroke-width: 0px; fill: rgb(201, 165, 247); fill-opacity: 1;"/></g><g class="text"/></g></g></g><g class="overplot"/><path class="xlines-above crisp" d="M0,0" style="fill: none;"/><path class="ylines-above crisp" d="M0,0" style="fill: none;"/><g class="overlines-above"/><g class="xaxislayer-above"><g class="xtick"><text text-anchor="middle" x="0" y="433" transform="translate(105.75,0)" style="font-family: 'Open Sans', verdana, arial, sans-serif; font-size: 12px; fill: rgb(42, 63, 95); fill-opacity: 1; white-space: pre; opacity: 1;">0</text></g><g class="xtick"><text text-anchor="middle" x="0" y="433" style="font-family: 'Open Sans', verdana, arial, sans-serif; font-size: 12px; fill: rgb(42, 63, 95); fill-opacity: 1; white-space: pre; opacity: 1;" transform="translate(210.17,0)">0.2</text></g><g class="xtick"><text text-anchor="middle" x="0" y="433" style="font-family: 'Open Sans', verdana, arial, sans-serif; font-size: 12px; fill: rgb(42, 63, 95); fill-opacity: 1; white-space: pre; opacity: 1;" transform="translate(314.59000000000003,0)">0.4</text></g><g class="xtick"><text text-anchor="middle" x="0" y="433" style="font-family: 'Open Sans', verdana, arial, sans-serif; font-size: 12px; fill: rgb(42, 63, 95); fill-opacity: 1; white-space: pre; opacity: 1;" transform="translate(419.01,0)">0.6</text></g><g class="xtick"><text text-anchor="middle" x="0" y="433" style="font-family: 'Open Sans', verdana, arial, sans-serif; font-size: 12px; fill: rgb(42, 63, 95); fill-opacity: 1; white-space: pre; opacity: 1;" transform="translate(523.4300000000001,0)">0.8</text></g></g><g class="yaxislayer-above"><g class="ytick"><text text-anchor="end" x="79" y="4.199999999999999" transform="translate(0,373.28)" style="font-family: 'Open Sans', verdana, arial, sans-serif; font-size: 12px; fill: rgb(42, 63, 95); fill-opacity: 1; white-space: pre; opacity: 1;">−0.5</text></g><g class="ytick"><text text-anchor="end" x="79" y="4.199999999999999" style="font-family: 'Open Sans', verdana, arial, sans-serif; font-size: 12px; fill: rgb(42, 63, 95); fill-opacity: 1; white-space: pre; opacity: 1;" transform="translate(0,324.53999999999996)">0</text></g><g class="ytick"><text text-anchor="end" x="79" y="4.199999999999999" style="font-family: 'Open Sans', verdana, arial, sans-serif; font-size: 12px; fill: rgb(42, 63, 95); fill-opacity: 1; white-space: pre; opacity: 1;" transform="translate(0,275.8)">0.5</text></g><g class="ytick"><text text-anchor="end" x="79" y="4.199999999999999" style="font-family: 'Open Sans', verdana, arial, sans-serif; font-size: 12px; fill: rgb(42, 63, 95); fill-opacity: 1; white-space: pre; opacity: 1;" transform="translate(0,227.06)">1</text></g><g class="ytick"><text text-anchor="end" x="79" y="4.199999999999999" style="font-family: 'Open Sans', verdana, arial, sans-serif; font-size: 12px; fill: rgb(42, 63, 95); fill-opacity: 1; white-space: pre; opacity: 1;" transform="translate(0,178.32)">1.5</text></g><g class="ytick"><text text-anchor="end" x="79" y="4.199999999999999" style="font-family: 'Open Sans', verdana, arial, sans-serif; font-size: 12px; fill: rgb(42, 63, 95); fill-opacity: 1; white-space: pre; opacity: 1;" transform="translate(0,129.57999999999998)">2</text></g></g><g class="overaxes-above"/></g></g><g class="polarlayer"/><g class="ternarylayer"/><g class="geolayer"/><g class="funnelarealayer"/><g class="pielayer"/><g class="iciclelayer"/><g class="treemaplayer"/><g class="sunburstlayer"/><g class="glimages"/><defs id="topdefs-dd775f"><g class="clips"/><clipPath id="legenddd775f"><rect width="58" height="67" x="0" y="0"/></clipPath></defs><g class="layer-above"><g class="imagelayer"/><g class="shapelayer"/></g><g class="infolayer"><g class="legend" pointer-events="all" transform="translate(630.8,100)"><rect class="bg" shape-rendering="crispEdges" style="stroke: rgb(68, 68, 68); stroke-opacity: 1; fill: rgb(255, 255, 255); fill-opacity: 1; stroke-width: 0px;" width="58" height="67" x="0" y="0"/><g class="scrollbox" transform="" clip-path="url(#legenddd775f)"><text class="legendtitletext" text-anchor="start" x="2" y="18.2" style="font-family: 'Open Sans', verdana, arial, sans-serif; font-size: 14px; fill: rgb(42, 63, 95); fill-opacity: 1; white-space: pre;">token</text><g class="groups" transform=""><g class="traces" transform="translate(0,32.7)" style="opacity: 1;"><text class="legendtext" text-anchor="start" x="40" y="4.680000000000001" style="font-family: 'Open Sans', verdana, arial, sans-serif; font-size: 12px; fill: rgb(42, 63, 95); fill-opacity: 1; white-space: pre;">S</text><g class="layers" style="opacity: 1;"><g class="legendfill"/><g class="legendlines"/><g class="legendsymbols"><g class="legendpoints"><path class="scatterpts" transform="translate(20,0)" d="M3,0A3,3 0 1,1 0,-3A3,3 0 0,1 3,0Z" style="opacity: 1; stroke-width: 0px; fill: rgb(114, 255, 100); fill-opacity: 1;"/></g></g></g><rect class="legendtoggle" x="0" y="-9.5" width="52.984375" height="19" style="fill: rgb(0, 0, 0); fill-opacity: 0;"/></g></g><g class="groups" transform=""><g class="traces" transform="translate(0,51.7)" style="opacity: 1;"><text class="legendtext" text-anchor="start" x="40" y="4.680000000000001" style="font-family: 'Open Sans', verdana, arial, sans-serif; font-size: 12px; fill: rgb(42, 63, 95); fill-opacity: 1; white-space: pre;">IO</text><g class="layers" style="opacity: 1;"><g class="legendfill"/><g class="legendlines"/><g class="legendsymbols"><g class="legendpoints"><path class="scatterpts" transform="translate(20,0)" d="M3,0A3,3 0 1,1 0,-3A3,3 0 0,1 3,0Z" style="opacity: 1; stroke-width: 0px; fill: rgb(201, 165, 247); fill-opacity: 1;"/></g></g></g><rect class="legendtoggle" x="0" y="-9.5" width="52.984375" height="19" style="fill: rgb(0, 0, 0); fill-opacity: 0;"/></g></g></g><rect class="scrollbar" rx="20" ry="3" width="0" height="0" style="fill: rgb(128, 139, 164); fill-opacity: 1;" x="0" y="0"/></g><g class="g-gtitle"><text class="gtitle" x="35" y="50" text-anchor="start" dy="0em" style="font-family: 'Open Sans', verdana, arial, sans-serif; font-size: 17px; fill: rgb(42, 63, 95); opacity: 1; font-weight: normal; white-space: pre;">How 11.10 affects logit difference (change after patch-and-freeze)</text></g><g class="g-xtitle"><text class="xtitle" x="349.5" y="460.8" text-anchor="middle" style="font-family: 'Open Sans', verdana, arial, sans-serif; font-size: 14px; fill: rgb(42, 63, 95); opacity: 1; font-weight: normal; white-space: pre;">Attention on token</text></g><g class="g-ytitle"><text class="ytitle" transform="rotate(-90,25.059375000000003,260)" x="25.059375000000003" y="260" text-anchor="middle" style="font-family: 'Open Sans', verdana, arial, sans-serif; font-size: 14px; fill: rgb(42, 63, 95); opacity: 1; font-weight: normal; white-space: pre;">Change in logit difference</text></g></g></svg>