<svg class="main-svg" xmlns="http://www.w3.org/2000/svg" xmlns:xlink="http://www.w3.org/1999/xlink" width="600" height="500" style="" viewBox="0 0 600 500"><rect x="0" y="0" width="600" height="500" style="fill: rgb(255, 255, 255); fill-opacity: 1;"/><defs id="defs-516f13"><g class="clips"><clipPath id="clip516f13xyplot" class="plotclip"><rect width="440" height="320"/></clipPath><clipPath class="axesclip" id="clip516f13x"><rect x="80" y="0" width="440" height="500"/></clipPath><clipPath class="axesclip" id="clip516f13y"><rect x="0" y="100" width="600" height="320"/></clipPath><clipPath class="axesclip" id="clip516f13xy"><rect x="80" y="100" width="440" height="320"/></clipPath></g><g class="gradients"/><g class="patterns"/></defs><g class="bglayer"/><g class="layer-below"><g class="imagelayer"/><g class="shapelayer"/></g><g class="cartesianlayer"><g class="subplot xy"><g class="layer-subplot"><g class="shapelayer"/><g class="imagelayer"/></g><g class="minor-gridlayer"><g class="x"/><g class="y"/></g><g class="gridlayer"><g class="x"><path class="xgrid crisp" transform="translate(357.6,0)" d="M0,100v320" style="stroke: rgb(0, 0, 0); stroke-opacity: 1; stroke-width: 1px;"/><path class="xgrid crisp" transform="translate(501.6,0)" d="M0,100v320" style="stroke: rgb(0, 0, 0); stroke-opacity: 1; stroke-width: 1px;"/></g><g class="y"><path class="ygrid crisp" transform="translate(0,404)" d="M80,0h440" style="stroke: rgb(0, 0, 0); stroke-opacity: 1; stroke-width: 1px;"/><path class="ygrid crisp" transform="translate(0,288.8)" d="M80,0h440" style="stroke: rgb(0, 0, 0); stroke-opacity: 1; stroke-width: 1px;"/><path class="ygrid crisp" transform="translate(0,231.2)" d="M80,0h440" style="stroke: rgb(0, 0, 0); stroke-opacity: 1; stroke-width: 1px;"/><path class="ygrid crisp" transform="translate(0,173.6)" d="M80,0h440" style="stroke: rgb(0, 0, 0); stroke-opacity: 1; stroke-width: 1px;"/><path class="ygrid crisp" transform="translate(0,116)" d="M80,0h440" style="stroke: rgb(0, 0, 0); stroke-opacity: 1; stroke-width: 1px;"/></g></g><g class="zerolinelayer"><path class="xzl zl crisp" transform="translate(213.6,0)" d="M0,100v320" style="stroke: rgb(0, 0, 0); stroke-opacity: 1; stroke-width: 2px;"/><path class="yzl zl crisp" transform="translate(0,346.4)" d="M80,0h440" style="stroke: rgb(0, 0, 0); stroke-opacity: 1; stroke-width: 2px;"/></g><path class="xlines-below"/><path class="ylines-below"/><g class="overlines-below"/><g class="xaxislayer-below"/><g class="yaxislayer-below"/><g class="overaxes-below"/><g class="plot" transform="translate(80,100)" clip-path="url(#clip516f13xyplot)"><g class="scatterlayer mlayer"><g class="trace scatter trace8ddb44" style="stroke-miterlimit: 2; opacity: 1;"><g class="fills"/><g class="errorbars"/><g class="lines"/><g class="points"><path class="point" transform="translate(158.63,215.28)" d="M0,2.83l2.83,2.83l2.83,-2.83l-2.83,-2.83l2.83,-2.83l-2.83,-2.83l-2.83,2.83l-2.83,-2.83l-2.83,2.83l2.83,2.83l-2.83,2.83l2.83,2.83Z" style="opacity: 1; stroke-width: 0px; fill: rgb(27, 158, 119); fill-opacity: 1;"/></g><g class="text"/></g><g class="trace scatter trace0c2341" style="stroke-miterlimit: 2; opacity: 1;"><g class="fills"/><g class="errorbars"/><g class="lines"/><g class="points"><path class="point" transform="translate(280.09,80.91)" d="M0,2.83l2.83,2.83l2.83,-2.83l-2.83,-2.83l2.83,-2.83l-2.83,-2.83l-2.83,2.83l-2.83,-2.83l-2.83,2.83l2.83,2.83l-2.83,2.83l2.83,2.83Z" style="opacity: 1; stroke-width: 0px; fill: rgb(217, 95, 2); fill-opacity: 1;"/></g><g class="text"/></g><g class="trace scatter trace21dd45" style="stroke-miterlimit: 2; opacity: 1;"><g class="fills"/><g class="errorbars"/><g class="lines"/><g class="points"><path class="point" transform="translate(146.07,230.23)" d="M0,2.83l2.83,2.83l2.83,-2.83l-2.83,-2.83l2.83,-2.83l-2.83,-2.83l-2.83,2.83l-2.83,-2.83l-2.83,2.83l2.83,2.83l-2.83,2.83l2.83,2.83Z" style="opacity: 1; stroke-width: 0px; fill: rgb(117, 112, 179); fill-opacity: 1;"/></g><g class="text"/></g><g class="trace scatter tracee9ba1b" style="stroke-miterlimit: 2; opacity: 1;"><g class="fills"/><g class="errorbars"/><g class="lines"/><g class="points"><path class="point" transform="translate(166,198.32)" d="M0,2.83l2.83,2.83l2.83,-2.83l-2.83,-2.83l2.83,-2.83l-2.83,-2.83l-2.83,2.83l-2.83,-2.83l-2.83,2.83l2.83,2.83l-2.83,2.83l2.83,2.83Z" style="opacity: 1; stroke-width: 0px; fill: rgb(230, 171, 2); fill-opacity: 1;"/></g><g class="text"/></g><g class="trace scatter tracebfe8fe" style="stroke-miterlimit: 2; opacity: 1;"><g class="fills"/><g class="errorbars"/><g class="lines"/><g class="points"><path class="point" transform="translate(163.66,200.82)" d="M0,2.83l2.83,2.83l2.83,-2.83l-2.83,-2.83l2.83,-2.83l-2.83,-2.83l-2.83,2.83l-2.83,-2.83l-2.83,2.83l2.83,2.83l-2.83,2.83l2.83,2.83Z" style="opacity: 1; stroke-width: 0px; fill: rgb(231, 41, 138); fill-opacity: 1;"/></g><g class="text"/></g><g class="trace scatter tracebd4e6c" style="stroke-miterlimit: 2; opacity: 1;"><g class="fills"/><g class="errorbars"/><g class="lines"/><g class="points"><path class="point" transform="translate(188.88,160.97)" d="M0,2.83l2.83,2.83l2.83,-2.83l-2.83,-2.83l2.83,-2.83l-2.83,-2.83l-2.83,2.83l-2.83,-2.83l-2.83,2.83l2.83,2.83l-2.83,2.83l2.83,2.83Z" style="opacity: 1; stroke-width: 0px; fill: rgb(166, 118, 29); fill-opacity: 1;"/></g><g class="text"/></g><g class="trace scatter trace7f755b" style="stroke-miterlimit: 2; opacity: 1;"><g class="fills"/><g class="errorbars"/><g class="lines"/><g class="points"><path class="point" transform="translate(223.19,150.09)" d="M0,2.83l2.83,2.83l2.83,-2.83l-2.83,-2.83l2.83,-2.83l-2.83,-2.83l-2.83,2.83l-2.83,-2.83l-2.83,2.83l2.83,2.83l-2.83,2.83l2.83,2.83Z" style="opacity: 1; stroke-width: 0px; fill: rgb(102, 102, 102); fill-opacity: 1;"/></g><g class="text"/></g><g class="trace scatter trace6a51d9" style="stroke-miterlimit: 2;"><g class="fills"><g><path class="js-fill" d="M104.8,246.4L335.2,16L335.2,73.6L104.8,304Z" style="fill: rgb(128, 128, 128); fill-opacity: 0.5; stroke-width: 0;"/></g></g><g class="errorbars"/><g class="lines"><path class="js-line" d="M104.8,304L335.2,73.6" style="vector-effect: non-scaling-stroke; fill: none; stroke: rgb(128, 128, 128); stroke-opacity: 1; stroke-width: 2px; opacity: 1;"/></g><g class="points"/><g class="text"/></g><g class="trace scatter traceef7158" style="stroke-miterlimit: 2;"><g class="fills"/><g class="errorbars"/><g class="lines"><path class="js-line" d="M104.8,246.4L335.2,16" style="vector-effect: non-scaling-stroke; fill: none; stroke: rgb(128, 128, 128); stroke-opacity: 1; stroke-width: 2px; opacity: 1;"/></g><g class="points"/><g class="text"/></g></g></g><g class="overplot"/><path class="xlines-above crisp" d="M0,0" style="fill: none;"/><path class="ylines-above crisp" d="M0,0" style="fill: none;"/><g class="overlines-above"/><g class="xaxislayer-above"><g class="xtick"><text text-anchor="middle" x="0" y="433" transform="translate(213.6,0)" style="font-family: 'Open Sans', verdana, arial, sans-serif; font-size: 12px; fill: rgb(42, 63, 95); fill-opacity: 1; white-space: pre; opacity: 1;">0</text></g><g class="xtick"><text text-anchor="middle" x="0" y="433" style="font-family: 'Open Sans', verdana, arial, sans-serif; font-size: 12px; fill: rgb(42, 63, 95); fill-opacity: 1; white-space: pre; opacity: 1;" transform="translate(357.6,0)">5</text></g><g class="xtick"><text text-anchor="middle" x="0" y="433" style="font-family: 'Open Sans', verdana, arial, sans-serif; font-size: 12px; fill: rgb(42, 63, 95); fill-opacity: 1; white-space: pre; opacity: 1;" transform="translate(501.6,0)">10</text></g></g><g class="yaxislayer-above"><g class="ytick"><text text-anchor="end" x="79" y="4.199999999999999" transform="translate(0,404)" style="font-family: 'Open Sans', verdana, arial, sans-serif; font-size: 12px; fill: rgb(42, 63, 95); fill-opacity: 1; white-space: pre; opacity: 1;">−2</text></g><g class="ytick"><text text-anchor="end" x="79" y="4.199999999999999" style="font-family: 'Open Sans', verdana, arial, sans-serif; font-size: 12px; fill: rgb(42, 63, 95); fill-opacity: 1; white-space: pre; opacity: 1;" transform="translate(0,346.4)">0</text></g><g class="ytick"><text text-anchor="end" x="79" y="4.199999999999999" style="font-family: 'Open Sans', verdana, arial, sans-serif; font-size: 12px; fill: rgb(42, 63, 95); fill-opacity: 1; white-space: pre; opacity: 1;" transform="translate(0,288.8)">2</text></g><g class="ytick"><text text-anchor="end" x="79" y="4.199999999999999" style="font-family: 'Open Sans', verdana, arial, sans-serif; font-size: 12px; fill: rgb(42, 63, 95); fill-opacity: 1; white-space: pre; opacity: 1;" transform="translate(0,231.2)">4</text></g><g class="ytick"><text text-anchor="end" x="79" y="4.199999999999999" style="font-family: 'Open Sans', verdana, arial, sans-serif; font-size: 12px; fill: rgb(42, 63, 95); fill-opacity: 1; white-space: pre; opacity: 1;" transform="translate(0,173.6)">6</text></g><g class="ytick"><text text-anchor="end" x="79" y="4.199999999999999" style="font-family: 'Open Sans', verdana, arial, sans-serif; font-size: 12px; fill: rgb(42, 63, 95); fill-opacity: 1; white-space: pre; opacity: 1;" transform="translate(0,116)">8</text></g></g><g class="overaxes-above"/></g></g><g class="polarlayer"/><g class="smithlayer"/><g class="ternarylayer"/><g class="geolayer"/><g class="funnelarealayer"/><g class="pielayer"/><g class="iciclelayer"/><g class="treemaplayer"/><g class="sunburstlayer"/><g class="glimages"/><defs id="topdefs-516f13"><g class="clips"/></defs><g class="layer-above"><g class="imagelayer"/><g class="shapelayer"/></g><g class="infolayer"><g class="g-gtitle"/><g class="g-xtitle"/><g class="g-ytitle"/><g class="annotation" data-index="0" style="opacity: 1;"><g class="annotation-text-g" transform="rotate(0,238.63,315.28)"><g class="cursor-pointer" transform="translate(237,313)"><rect class="bg" x="0.5" y="0.5" width="3" height="3" style="stroke-width: 1px; stroke: rgb(0, 0, 0); stroke-opacity: 0; fill: rgb(0, 0, 0); fill-opacity: 0;"/><text class="annotation-text" text-anchor="middle" x="2" y="2" style="font-family: 'Open Sans', verdana, arial, sans-serif; font-size: 12px; fill: rgb(42, 63, 95); fill-opacity: 1; white-space: pre;"></text></g></g><g class="annotation-arrow-g" style="opacity: 1;"><path d="M237.13,313.78L235.58,312.23" style="stroke-width: 1px; stroke: rgb(0, 0, 0); stroke-opacity: 1; stroke-dasharray: 0px, 0px, 0.642024px, 2.19202px;"/><path d="M-4.45,-3L-1.65,-0.2V0.2L-4.45,3L1.55,0Z" transform="translate(236.676025390625,313.3260192871094)rotate(-135)" style="fill: rgb(0, 0, 0); stroke-width: 0;"/></g></g><g class="annotation" data-index="1" style="opacity: 1;"><g class="annotation-text-g" transform="rotate(0,238.63,315.28)"><g class="cursor-pointer" transform="translate(237,313)"><rect class="bg" x="0.5" y="0.5" width="3" height="3" style="stroke-width: 1px; stroke: rgb(0, 0, 0); stroke-opacity: 0; fill: rgb(0, 0, 0); fill-opacity: 0;"/><text class="annotation-text" text-anchor="middle" x="2" y="2" style="font-family: 'Open Sans', verdana, arial, sans-serif; font-size: 12px; fill: rgb(42, 63, 95); fill-opacity: 1; white-space: pre;"></text></g></g><g class="annotation-arrow-g" style="opacity: 1;"><path d="M240.13,316.7750819672131L241.68,318.32" style="stroke-width: 1px; stroke: rgb(0, 0, 0); stroke-opacity: 1; stroke-dasharray: 0px, 0px, 0.638435px, 2.18843px;"/><path d="M-4.45,-3L-1.65,-0.2V0.2L-4.45,3L1.55,0Z" transform="translate(240.58218383789062,317.2257995605469)rotate(44.90108636583063)" style="fill: rgb(0, 0, 0); stroke-width: 0;"/></g></g><g class="annotation" data-index="2" style="opacity: 1;"><g class="annotation-text-g" transform="rotate(0,360.09,180.91)"><g class="cursor-pointer" transform="translate(358,179)"><rect class="bg" x="0.5" y="0.5" width="3" height="3" style="stroke-width: 1px; stroke: rgb(0, 0, 0); stroke-opacity: 0; fill: rgb(0, 0, 0); fill-opacity: 0;"/><text class="annotation-text" text-anchor="middle" x="2" y="2" style="font-family: 'Open Sans', verdana, arial, sans-serif; font-size: 12px; fill: rgb(42, 63, 95); fill-opacity: 1; white-space: pre;"></text></g></g><g class="annotation-arrow-g" style="opacity: 1;"><path d="M358.59,179.41L350.58,171.4" style="stroke-width: 1px; stroke: rgb(0, 0, 0); stroke-opacity: 1; stroke-dasharray: 0px, 0px, 9.77786px, 11.3279px;"/><path d="M-4.45,-3L-1.65,-0.2V0.2L-4.45,3L1.55,0Z" transform="translate(351.6759948730469,172.49600219726562)rotate(-135)" style="fill: rgb(0, 0, 0); stroke-width: 0;"/></g></g><g class="annotation" data-index="3" style="opacity: 1;"><g class="annotation-text-g" transform="rotate(0,360.09,180.91)"><g class="cursor-pointer" transform="translate(358,179)"><rect class="bg" x="0.5" y="0.5" width="3" height="3" style="stroke-width: 1px; stroke: rgb(0, 0, 0); stroke-opacity: 0; fill: rgb(0, 0, 0); fill-opacity: 0;"/><text class="annotation-text" text-anchor="middle" x="2" y="2" style="font-family: 'Open Sans', verdana, arial, sans-serif; font-size: 12px; fill: rgb(42, 63, 95); fill-opacity: 1; white-space: pre;"></text></g></g><g class="annotation-arrow-g" style="opacity: 1;"><path d="M361.59,182.41L369.59,190.41" style="stroke-width: 1px; stroke: rgb(0, 0, 0); stroke-opacity: 1; stroke-dasharray: 0px, 0px, 9.76371px, 11.3137px;"/><path d="M-4.45,-3L-1.65,-0.2V0.2L-4.45,3L1.55,0Z" transform="translate(368.4939880371094,189.31399536132812)rotate(45)" style="fill: rgb(0, 0, 0); stroke-width: 0;"/></g></g><g class="annotation" data-index="4" style="opacity: 1;"><g class="annotation-text-g" transform="rotate(0,226.07,330.23)"><g class="cursor-pointer" transform="translate(224,328)"><rect class="bg" x="0.5" y="0.5" width="3" height="3" style="stroke-width: 1px; stroke: rgb(0, 0, 0); stroke-opacity: 0; fill: rgb(0, 0, 0); fill-opacity: 0;"/><text class="annotation-text" text-anchor="middle" x="2" y="2" style="font-family: 'Open Sans', verdana, arial, sans-serif; font-size: 12px; fill: rgb(42, 63, 95); fill-opacity: 1; white-space: pre;"></text></g></g><g class="annotation-arrow-g" style="opacity: 1;"><path d="M224.57000000000002,328.73L224.22,328.38" style="stroke-width: 1px; stroke: rgb(0, 0, 0); stroke-opacity: 1; stroke-dasharray: 0px, 100px;"/></g></g><g class="annotation" data-index="5" style="opacity: 1;"><g class="annotation-text-g" transform="rotate(0,226.07,330.23)"><g class="cursor-pointer" transform="translate(224,328)"><rect class="bg" x="0.5" y="0.5" width="3" height="3" style="stroke-width: 1px; stroke: rgb(0, 0, 0); stroke-opacity: 0; fill: rgb(0, 0, 0); fill-opacity: 0;"/><text class="annotation-text" text-anchor="middle" x="2" y="2" style="font-family: 'Open Sans', verdana, arial, sans-serif; font-size: 12px; fill: rgb(42, 63, 95); fill-opacity: 1; white-space: pre;"></text></g></g><g class="annotation-arrow-g" style="opacity: 1;"><path d="M227.56999999999996,331.73L227.92,332.08000000000004" style="stroke-width: 1px; stroke: rgb(0, 0, 0); stroke-opacity: 1; stroke-dasharray: 0px, 100px;"/></g></g><g class="annotation" data-index="6" style="opacity: 1;"><g class="annotation-text-g" transform="rotate(0,246,298.32)"><g class="cursor-pointer" transform="translate(244,296)"><rect class="bg" x="0.5" y="0.5" width="3" height="3" style="stroke-width: 1px; stroke: rgb(0, 0, 0); stroke-opacity: 0; fill: rgb(0, 0, 0); fill-opacity: 0;"/><text class="annotation-text" text-anchor="middle" x="2" y="2" style="font-family: 'Open Sans', verdana, arial, sans-serif; font-size: 12px; fill: rgb(42, 63, 95); fill-opacity: 1; white-space: pre;"></text></g></g><g class="annotation-arrow-g" style="opacity: 1;"><path d="M244.50191082802547,296.82L238.16,290.47" style="stroke-width: 1px; stroke: rgb(0, 0, 0); stroke-opacity: 1; stroke-dasharray: 0px, 0px, 7.42454px, 8.97454px;"/><path d="M-4.45,-3L-1.65,-0.2V0.2L-4.45,3L1.55,0Z" transform="translate(239.2553253173828,291.56671142578125)rotate(-134.9567299190481)" style="fill: rgb(0, 0, 0); stroke-width: 0;"/></g></g><g class="annotation" data-index="7" style="opacity: 1;"><g class="annotation-text-g" transform="rotate(0,246,298.32)"><g class="cursor-pointer" transform="translate(244,296)"><rect class="bg" x="0.5" y="0.5" width="3" height="3" style="stroke-width: 1px; stroke: rgb(0, 0, 0); stroke-opacity: 0; fill: rgb(0, 0, 0); fill-opacity: 0;"/><text class="annotation-text" text-anchor="middle" x="2" y="2" style="font-family: 'Open Sans', verdana, arial, sans-serif; font-size: 12px; fill: rgb(42, 63, 95); fill-opacity: 1; white-space: pre;"></text></g></g><g class="annotation-arrow-g" style="opacity: 1;"><path d="M247.5,299.82L253.84,306.15999999999997" style="stroke-width: 1px; stroke: rgb(0, 0, 0); stroke-opacity: 1; stroke-dasharray: 0px, 0px, 7.41611px, 8.96611px;"/><path d="M-4.45,-3L-1.65,-0.2V0.2L-4.45,3L1.55,0Z" transform="translate(252.74398803710938,305.0639953613281)rotate(45)" style="fill: rgb(0, 0, 0); stroke-width: 0;"/></g></g><g class="annotation" data-index="8" style="opacity: 1;"><g class="annotation-text-g" transform="rotate(0,243.66,300.82)"><g class="cursor-pointer" transform="translate(242,299)"><rect class="bg" x="0.5" y="0.5" width="3" height="3" style="stroke-width: 1px; stroke: rgb(0, 0, 0); stroke-opacity: 0; fill: rgb(0, 0, 0); fill-opacity: 0;"/><text class="annotation-text" text-anchor="middle" x="2" y="2" style="font-family: 'Open Sans', verdana, arial, sans-serif; font-size: 12px; fill: rgb(42, 63, 95); fill-opacity: 1; white-space: pre;"></text></g></g><g class="annotation-arrow-g" style="opacity: 1;"><path d="M242.16,299.3219305019305L235.89,293.06" style="stroke-width: 1px; stroke: rgb(0, 0, 0); stroke-opacity: 1; stroke-dasharray: 0px, 0px, 7.31142px, 8.86142px;"/><path d="M-4.45,-3L-1.65,-0.2V0.2L-4.45,3L1.55,0Z" transform="translate(236.98672485351562,294.1553039550781)rotate(-135.0309072035579)" style="fill: rgb(0, 0, 0); stroke-width: 0;"/></g></g><g class="annotation" data-index="9" style="opacity: 1;"><g class="annotation-text-g" transform="rotate(0,243.66,300.82)"><g class="cursor-pointer" transform="translate(242,299)"><rect class="bg" x="0.5" y="0.5" width="3" height="3" style="stroke-width: 1px; stroke: rgb(0, 0, 0); stroke-opacity: 0; fill: rgb(0, 0, 0); fill-opacity: 0;"/><text class="annotation-text" text-anchor="middle" x="2" y="2" style="font-family: 'Open Sans', verdana, arial, sans-serif; font-size: 12px; fill: rgb(42, 63, 95); fill-opacity: 1; white-space: pre;"></text></g></g><g class="annotation-arrow-g" style="opacity: 1;"><path d="M245.16,302.32L251.42,308.58000000000004" style="stroke-width: 1px; stroke: rgb(0, 0, 0); stroke-opacity: 1; stroke-dasharray: 0px, 0px, 7.30296px, 8.85296px;"/><path d="M-4.45,-3L-1.65,-0.2V0.2L-4.45,3L1.55,0Z" transform="translate(250.323974609375,307.4839782714844)rotate(45)" style="fill: rgb(0, 0, 0); stroke-width: 0;"/></g></g><g class="annotation" data-index="10" style="opacity: 1;"><g class="annotation-text-g" transform="rotate(0,268.88,260.97)"><g class="cursor-pointer" transform="translate(267,259)"><rect class="bg" x="0.5" y="0.5" width="3" height="3" style="stroke-width: 1px; stroke: rgb(0, 0, 0); stroke-opacity: 0; fill: rgb(0, 0, 0); fill-opacity: 0;"/><text class="annotation-text" text-anchor="middle" x="2" y="2" style="font-family: 'Open Sans', verdana, arial, sans-serif; font-size: 12px; fill: rgb(42, 63, 95); fill-opacity: 1; white-space: pre;"></text></g></g><g class="annotation-arrow-g" style="opacity: 1;"><path d="M267.38,259.47L253.8,245.89" style="stroke-width: 1px; stroke: rgb(0, 0, 0); stroke-opacity: 1; stroke-dasharray: 0px, 0px, 17.655px, 19.205px;"/><path d="M-4.45,-3L-1.65,-0.2V0.2L-4.45,3L1.55,0Z" transform="translate(254.89601135253906,246.9860076904297)rotate(-135)" style="fill: rgb(0, 0, 0); stroke-width: 0;"/></g></g><g class="annotation" data-index="11" style="opacity: 1;"><g class="annotation-text-g" transform="rotate(0,268.88,260.97)"><g class="cursor-pointer" transform="translate(267,259)"><rect class="bg" x="0.5" y="0.5" width="3" height="3" style="stroke-width: 1px; stroke: rgb(0, 0, 0); stroke-opacity: 0; fill: rgb(0, 0, 0); fill-opacity: 0;"/><text class="annotation-text" text-anchor="middle" x="2" y="2" style="font-family: 'Open Sans', verdana, arial, sans-serif; font-size: 12px; fill: rgb(42, 63, 95); fill-opacity: 1; white-space: pre;"></text></g></g><g class="annotation-arrow-g" style="opacity: 1;"><path d="M270.3790053050398,262.47L283.95,276.05" style="stroke-width: 1px; stroke: rgb(0, 0, 0); stroke-opacity: 1; stroke-dasharray: 0px, 0px, 17.6487px, 19.1987px;"/><path d="M-4.45,-3L-1.65,-0.2V0.2L-4.45,3L1.55,0Z" transform="translate(282.8543701171875,274.95361328125)rotate(45.024728431573386)" style="fill: rgb(0, 0, 0); stroke-width: 0;"/></g></g><g class="annotation" data-index="12" style="opacity: 1;"><g class="annotation-text-g" transform="rotate(0,303.19,250.09)"><g class="cursor-pointer" transform="translate(301,248)"><rect class="bg" x="0.5" y="0.5" width="3" height="3" style="stroke-width: 1px; stroke: rgb(0, 0, 0); stroke-opacity: 0; fill: rgb(0, 0, 0); fill-opacity: 0;"/><text class="annotation-text" text-anchor="middle" x="2" y="2" style="font-family: 'Open Sans', verdana, arial, sans-serif; font-size: 12px; fill: rgb(42, 63, 95); fill-opacity: 1; white-space: pre;"></text></g></g><g class="annotation-arrow-g" style="opacity: 1;"><path d="M301.69,248.59L299.83000000000004,246.73" style="stroke-width: 1px; stroke: rgb(0, 0, 0); stroke-opacity: 1; stroke-dasharray: 0px, 0px, 1.08045px, 2.63045px;"/><path d="M-4.45,-3L-1.65,-0.2V0.2L-4.45,3L1.55,0Z" transform="translate(300.9259948730469,247.8260040283203)rotate(-135)" style="fill: rgb(0, 0, 0); stroke-width: 0;"/></g></g><g class="annotation" data-index="13" style="opacity: 1;"><g class="annotation-text-g" transform="rotate(0,303.19,250.09)"><g class="cursor-pointer" transform="translate(301,248)"><rect class="bg" x="0.5" y="0.5" width="3" height="3" style="stroke-width: 1px; stroke: rgb(0, 0, 0); stroke-opacity: 0; fill: rgb(0, 0, 0); fill-opacity: 0;"/><text class="annotation-text" text-anchor="middle" x="2" y="2" style="font-family: 'Open Sans', verdana, arial, sans-serif; font-size: 12px; fill: rgb(42, 63, 95); fill-opacity: 1; white-space: pre;"></text></g></g><g class="annotation-arrow-g" style="opacity: 1;"><path d="M304.69,251.59L306.55,253.45" style="stroke-width: 1px; stroke: rgb(0, 0, 0); stroke-opacity: 1; stroke-dasharray: 0px, 0px, 1.08043px, 2.63043px;"/><path d="M-4.45,-3L-1.65,-0.2V0.2L-4.45,3L1.55,0Z" transform="translate(305.4539794921875,252.35397338867188)rotate(45)" style="fill: rgb(0, 0, 0); stroke-width: 0;"/></g></g></g></svg>