<svg class="main-svg" xmlns="http://www.w3.org/2000/svg" xmlns:xlink="http://www.w3.org/1999/xlink" width="700" height="500" style="" viewBox="0 0 700 500"><rect x="0" y="0" width="700" height="500" style="fill: rgb(255, 255, 255); fill-opacity: 1;"/><defs id="defs-1862d0"><g class="clips"><clipPath id="clip1862d0xyplot" class="plotclip"><rect width="473" height="320"/></clipPath><clipPath class="axesclip" id="clip1862d0x"><rect x="80" y="0" width="473" height="500"/></clipPath><clipPath class="axesclip" id="clip1862d0y"><rect x="0" y="100" width="700" height="320"/></clipPath><clipPath class="axesclip" id="clip1862d0xy"><rect x="80" y="100" width="473" height="320"/></clipPath></g><g class="gradients"/><g class="patterns"/></defs><g class="bglayer"/><g class="layer-below"><g class="imagelayer"/><g class="shapelayer"/></g><g class="cartesianlayer"><g class="subplot xy"><g class="layer-subplot"><g class="shapelayer"/><g class="imagelayer"/></g><g class="minor-gridlayer"><g class="x"/><g class="y"/></g><g class="gridlayer"><g class="x"><path class="xgrid crisp" transform="translate(86.1,0)" d="M0,100v320" style="stroke: rgb(0, 0, 0); stroke-opacity: 1; stroke-width: 1px;"/><path class="xgrid crisp" transform="translate(374.1,0)" d="M0,100v320" style="stroke: rgb(0, 0, 0); stroke-opacity: 1; stroke-width: 1px;"/><path class="xgrid crisp" transform="translate(518.1,0)" d="M0,100v320" style="stroke: rgb(0, 0, 0); stroke-opacity: 1; stroke-width: 1px;"/></g><g class="y"><path class="ygrid crisp" transform="translate(0,404)" d="M80,0h473" style="stroke: rgb(0, 0, 0); stroke-opacity: 1; stroke-width: 1px;"/><path class="ygrid crisp" transform="translate(0,288.8)" d="M80,0h473" style="stroke: rgb(0, 0, 0); stroke-opacity: 1; stroke-width: 1px;"/><path class="ygrid crisp" transform="translate(0,231.2)" d="M80,0h473" style="stroke: rgb(0, 0, 0); stroke-opacity: 1; stroke-width: 1px;"/><path class="ygrid crisp" transform="translate(0,173.6)" d="M80,0h473" style="stroke: rgb(0, 0, 0); stroke-opacity: 1; stroke-width: 1px;"/><path class="ygrid crisp" transform="translate(0,116)" d="M80,0h473" style="stroke: rgb(0, 0, 0); stroke-opacity: 1; stroke-width: 1px;"/></g></g><g class="zerolinelayer"><path class="xzl zl crisp" transform="translate(230.1,0)" d="M0,100v320" style="stroke: rgb(0, 0, 0); stroke-opacity: 1; stroke-width: 2px;"/><path class="yzl zl crisp" transform="translate(0,346.4)" d="M80,0h473" style="stroke: rgb(0, 0, 0); stroke-opacity: 1; stroke-width: 2px;"/></g><path class="xlines-below"/><path class="ylines-below"/><g class="overlines-below"/><g class="xaxislayer-below"/><g class="yaxislayer-below"/><g class="overaxes-below"/><g class="plot" transform="translate(80,100)" clip-path="url(#clip1862d0xyplot)"><g class="scatterlayer mlayer"><g class="trace scatter trace32ed45" style="stroke-miterlimit: 2; opacity: 1;"><g class="fills"/><g class="errorbars"/><g class="lines"/><g class="points"><path class="point" transform="translate(175.13,215.28)" d="M0,2.83l2.83,2.83l2.83,-2.83l-2.83,-2.83l2.83,-2.83l-2.83,-2.83l-2.83,2.83l-2.83,-2.83l-2.83,2.83l2.83,2.83l-2.83,2.83l2.83,2.83Z" style="opacity: 1; stroke-width: 0px; fill: rgb(27, 158, 119); fill-opacity: 1;"/></g><g class="text"/></g><g class="trace scatter tracec9a024" style="stroke-miterlimit: 2; opacity: 1;"><g class="fills"/><g class="errorbars"/><g class="lines"/><g class="points"><path class="point" transform="translate(296.59,80.91)" d="M0,2.83l2.83,2.83l2.83,-2.83l-2.83,-2.83l2.83,-2.83l-2.83,-2.83l-2.83,2.83l-2.83,-2.83l-2.83,2.83l2.83,2.83l-2.83,2.83l2.83,2.83Z" style="opacity: 1; stroke-width: 0px; fill: rgb(217, 95, 2); fill-opacity: 1;"/></g><g class="text"/></g><g class="trace scatter trace8297e9" style="stroke-miterlimit: 2; opacity: 1;"><g class="fills"/><g class="errorbars"/><g class="lines"/><g class="points"><path class="point" transform="translate(162.57,230.23)" d="M0,2.83l2.83,2.83l2.83,-2.83l-2.83,-2.83l2.83,-2.83l-2.83,-2.83l-2.83,2.83l-2.83,-2.83l-2.83,2.83l2.83,2.83l-2.83,2.83l2.83,2.83Z" style="opacity: 1; stroke-width: 0px; fill: rgb(117, 112, 179); fill-opacity: 1;"/></g><g class="text"/></g><g class="trace scatter trace1730d0" style="stroke-miterlimit: 2; opacity: 1;"><g class="fills"/><g class="errorbars"/><g class="lines"/><g class="points"><path class="point" transform="translate(182.5,198.32)" d="M0,2.83l2.83,2.83l2.83,-2.83l-2.83,-2.83l2.83,-2.83l-2.83,-2.83l-2.83,2.83l-2.83,-2.83l-2.83,2.83l2.83,2.83l-2.83,2.83l2.83,2.83Z" style="opacity: 1; stroke-width: 0px; fill: rgb(230, 171, 2); fill-opacity: 1;"/></g><g class="text"/></g><g class="trace scatter tracecfe9af" style="stroke-miterlimit: 2; opacity: 1;"><g class="fills"/><g class="errorbars"/><g class="lines"/><g class="points"><path class="point" transform="translate(180.16,200.82)" d="M0,2.83l2.83,2.83l2.83,-2.83l-2.83,-2.83l2.83,-2.83l-2.83,-2.83l-2.83,2.83l-2.83,-2.83l-2.83,2.83l2.83,2.83l-2.83,2.83l2.83,2.83Z" style="opacity: 1; stroke-width: 0px; fill: rgb(231, 41, 138); fill-opacity: 1;"/></g><g class="text"/></g><g class="trace scatter trace923e4e" style="stroke-miterlimit: 2; opacity: 1;"><g class="fills"/><g class="errorbars"/><g class="lines"/><g class="points"><path class="point" transform="translate(205.38,160.97)" d="M0,2.83l2.83,2.83l2.83,-2.83l-2.83,-2.83l2.83,-2.83l-2.83,-2.83l-2.83,2.83l-2.83,-2.83l-2.83,2.83l2.83,2.83l-2.83,2.83l2.83,2.83Z" style="opacity: 1; stroke-width: 0px; fill: rgb(166, 118, 29); fill-opacity: 1;"/></g><g class="text"/></g><g class="trace scatter trace998f57" style="stroke-miterlimit: 2; opacity: 1;"><g class="fills"/><g class="errorbars"/><g class="lines"/><g class="points"><path class="point" transform="translate(239.69,150.09)" d="M0,2.83l2.83,2.83l2.83,-2.83l-2.83,-2.83l2.83,-2.83l-2.83,-2.83l-2.83,2.83l-2.83,-2.83l-2.83,2.83l2.83,2.83l-2.83,2.83l2.83,2.83Z" style="opacity: 1; stroke-width: 0px; fill: rgb(102, 102, 102); fill-opacity: 1;"/></g><g class="text"/></g><g class="trace scatter trace971db0" style="stroke-miterlimit: 2;"><g class="fills"><g><path class="js-fill" d="M121.3,246.4L351.7,16L351.7,73.6L121.3,304Z" style="fill: rgb(128, 128, 128); fill-opacity: 0.5; stroke-width: 0;"/></g></g><g class="errorbars"/><g class="lines"><path class="js-line" d="M121.3,304L351.7,73.6" style="vector-effect: non-scaling-stroke; fill: none; stroke: rgb(128, 128, 128); stroke-opacity: 1; stroke-width: 2px; opacity: 1;"/></g><g class="points"/><g class="text"/></g><g class="trace scatter tracedc7fdf" style="stroke-miterlimit: 2;"><g class="fills"/><g class="errorbars"/><g class="lines"><path class="js-line" d="M121.3,246.4L351.7,16" style="vector-effect: non-scaling-stroke; fill: none; stroke: rgb(128, 128, 128); stroke-opacity: 1; stroke-width: 2px; opacity: 1;"/></g><g class="points"/><g class="text"/></g></g></g><g class="overplot"/><path class="xlines-above crisp" d="M0,0" style="fill: none;"/><path class="ylines-above crisp" d="M0,0" style="fill: none;"/><g class="overlines-above"/><g class="xaxislayer-above"><g class="xtick"><text text-anchor="middle" x="0" y="433" transform="translate(86.1,0)" style="font-family: 'Open Sans', verdana, arial, sans-serif; font-size: 12px; fill: rgb(42, 63, 95); fill-opacity: 1; white-space: pre; opacity: 1;">−5</text></g><g class="xtick"><text text-anchor="middle" x="0" y="433" style="font-family: 'Open Sans', verdana, arial, sans-serif; font-size: 12px; fill: rgb(42, 63, 95); fill-opacity: 1; white-space: pre; opacity: 1;" transform="translate(230.1,0)">0</text></g><g class="xtick"><text text-anchor="middle" x="0" y="433" style="font-family: 'Open Sans', verdana, arial, sans-serif; font-size: 12px; fill: rgb(42, 63, 95); fill-opacity: 1; white-space: pre; opacity: 1;" transform="translate(374.1,0)">5</text></g><g class="xtick"><text text-anchor="middle" x="0" y="433" style="font-family: 'Open Sans', verdana, arial, sans-serif; font-size: 12px; fill: rgb(42, 63, 95); fill-opacity: 1; white-space: pre; opacity: 1;" transform="translate(518.1,0)">10</text></g></g><g class="yaxislayer-above"><g class="ytick"><text text-anchor="end" x="79" y="4.199999999999999" transform="translate(0,404)" style="font-family: 'Open Sans', verdana, arial, sans-serif; font-size: 12px; fill: rgb(42, 63, 95); fill-opacity: 1; white-space: pre; opacity: 1;">−2</text></g><g class="ytick"><text text-anchor="end" x="79" y="4.199999999999999" style="font-family: 'Open Sans', verdana, arial, sans-serif; font-size: 12px; fill: rgb(42, 63, 95); fill-opacity: 1; white-space: pre; opacity: 1;" transform="translate(0,346.4)">0</text></g><g class="ytick"><text text-anchor="end" x="79" y="4.199999999999999" style="font-family: 'Open Sans', verdana, arial, sans-serif; font-size: 12px; fill: rgb(42, 63, 95); fill-opacity: 1; white-space: pre; opacity: 1;" transform="translate(0,288.8)">2</text></g><g class="ytick"><text text-anchor="end" x="79" y="4.199999999999999" style="font-family: 'Open Sans', verdana, arial, sans-serif; font-size: 12px; fill: rgb(42, 63, 95); fill-opacity: 1; white-space: pre; opacity: 1;" transform="translate(0,231.2)">4</text></g><g class="ytick"><text text-anchor="end" x="79" y="4.199999999999999" style="font-family: 'Open Sans', verdana, arial, sans-serif; font-size: 12px; fill: rgb(42, 63, 95); fill-opacity: 1; white-space: pre; opacity: 1;" transform="translate(0,173.6)">6</text></g><g class="ytick"><text text-anchor="end" x="79" y="4.199999999999999" style="font-family: 'Open Sans', verdana, arial, sans-serif; font-size: 12px; fill: rgb(42, 63, 95); fill-opacity: 1; white-space: pre; opacity: 1;" transform="translate(0,116)">8</text></g></g><g class="overaxes-above"/></g></g><g class="polarlayer"/><g class="smithlayer"/><g class="ternarylayer"/><g class="geolayer"/><g class="funnelarealayer"/><g class="pielayer"/><g class="iciclelayer"/><g class="treemaplayer"/><g class="sunburstlayer"/><g class="glimages"/><defs id="topdefs-1862d0"><g class="clips"/><clipPath id="legend1862d0"><rect width="126" height="162" x="0" y="0"/></clipPath></defs><g class="layer-above"><g class="imagelayer"/><g class="shapelayer"/></g><g class="infolayer"><g class="legend" pointer-events="all" transform="translate(562.46,100)"><rect class="bg" shape-rendering="crispEdges" width="126" height="162" x="0" y="0" style="stroke: rgb(68, 68, 68); stroke-opacity: 1; fill: rgb(255, 255, 255); fill-opacity: 1; stroke-width: 0px;"/><g class="scrollbox" transform="" clip-path="url(#legend1862d0)"><g class="groups"><g class="traces" transform="translate(0,14.5)" style="opacity: 1;"><text class="legendtext" text-anchor="start" x="40" y="4.680000000000001" style="font-family: 'Open Sans', verdana, arial, sans-serif; font-size: 12px; fill: rgb(42, 63, 95); fill-opacity: 1; white-space: pre;">eps=1.0</text><g class="layers"><g class="legendfill"><path class="js-fill" d="M5,-2h30v6h-30z" style="stroke-width: 0; fill: rgb(128, 128, 128); fill-opacity: 0.5;"/></g><g class="legendlines"><path class="js-line" d="M5,-2h30" style="fill: none; stroke: rgb(128, 128, 128); stroke-opacity: 1; stroke-width: 2px;"/></g><g class="legendsymbols"><g class="legendpoints"/></g></g><rect class="legendtoggle" x="0" y="-9.5" width="120.734375" height="19" style="fill: rgb(0, 0, 0); fill-opacity: 0;"/></g><g class="traces" transform="translate(0,33.5)" style="opacity: 1;"><text class="legendtext" text-anchor="start" x="40" y="4.680000000000001" style="font-family: 'Open Sans', verdana, arial, sans-serif; font-size: 12px; fill: rgb(42, 63, 95); fill-opacity: 1; white-space: pre;">none</text><g class="layers" style="opacity: 1;"><g class="legendfill"/><g class="legendlines"/><g class="legendsymbols"><g class="legendpoints"><path class="scatterpts" transform="translate(20,0)" d="M0,2.83l2.83,2.83l2.83,-2.83l-2.83,-2.83l2.83,-2.83l-2.83,-2.83l-2.83,2.83l-2.83,-2.83l-2.83,2.83l2.83,2.83l-2.83,2.83l2.83,2.83Z" style="opacity: 1; stroke-width: 0px; fill: rgb(102, 102, 102); fill-opacity: 1;"/></g></g></g><rect class="legendtoggle" x="0" y="-9.5" width="120.734375" height="19" style="fill: rgb(0, 0, 0); fill-opacity: 0;"/></g><g class="traces" transform="translate(0,52.5)" style="opacity: 1;"><text class="legendtext" text-anchor="start" x="40" y="4.680000000000001" style="font-family: 'Open Sans', verdana, arial, sans-serif; font-size: 12px; fill: rgb(42, 63, 95); fill-opacity: 1; white-space: pre;">previous token</text><g class="layers" style="opacity: 1;"><g class="legendfill"/><g class="legendlines"/><g class="legendsymbols"><g class="legendpoints"><path class="scatterpts" transform="translate(20,0)" d="M0,2.83l2.83,2.83l2.83,-2.83l-2.83,-2.83l2.83,-2.83l-2.83,-2.83l-2.83,2.83l-2.83,-2.83l-2.83,2.83l2.83,2.83l-2.83,2.83l2.83,2.83Z" style="opacity: 1; stroke-width: 0px; fill: rgb(166, 118, 29); fill-opacity: 1;"/></g></g></g><rect class="legendtoggle" x="0" y="-9.5" width="120.734375" height="19" style="fill: rgb(0, 0, 0); fill-opacity: 0;"/></g><g class="traces" transform="translate(0,71.5)" style="opacity: 1;"><text class="legendtext" text-anchor="start" x="40" y="4.680000000000001" style="font-family: 'Open Sans', verdana, arial, sans-serif; font-size: 12px; fill: rgb(42, 63, 95); fill-opacity: 1; white-space: pre;">duplicate token</text><g class="layers" style="opacity: 1;"><g class="legendfill"/><g class="legendlines"/><g class="legendsymbols"><g class="legendpoints"><path class="scatterpts" transform="translate(20,0)" d="M0,2.83l2.83,2.83l2.83,-2.83l-2.83,-2.83l2.83,-2.83l-2.83,-2.83l-2.83,2.83l-2.83,-2.83l-2.83,2.83l2.83,2.83l-2.83,2.83l2.83,2.83Z" style="opacity: 1; stroke-width: 0px; fill: rgb(231, 41, 138); fill-opacity: 1;"/></g></g></g><rect class="legendtoggle" x="0" y="-9.5" width="120.734375" height="19" style="fill: rgb(0, 0, 0); fill-opacity: 0;"/></g><g class="traces" transform="translate(0,90.5)" style="opacity: 1;"><text class="legendtext" text-anchor="start" x="40" y="4.680000000000001" style="font-family: 'Open Sans', verdana, arial, sans-serif; font-size: 12px; fill: rgb(42, 63, 95); fill-opacity: 1; white-space: pre;">induction</text><g class="layers" style="opacity: 1;"><g class="legendfill"/><g class="legendlines"/><g class="legendsymbols"><g class="legendpoints"><path class="scatterpts" transform="translate(20,0)" d="M0,2.83l2.83,2.83l2.83,-2.83l-2.83,-2.83l2.83,-2.83l-2.83,-2.83l-2.83,2.83l-2.83,-2.83l-2.83,2.83l2.83,2.83l-2.83,2.83l2.83,2.83Z" style="opacity: 1; stroke-width: 0px; fill: rgb(230, 171, 2); fill-opacity: 1;"/></g></g></g><rect class="legendtoggle" x="0" y="-9.5" width="120.734375" height="19" style="fill: rgb(0, 0, 0); fill-opacity: 0;"/></g><g class="traces" transform="translate(0,109.5)" style="opacity: 1;"><text class="legendtext" text-anchor="start" x="40" y="4.680000000000001" style="font-family: 'Open Sans', verdana, arial, sans-serif; font-size: 12px; fill: rgb(42, 63, 95); fill-opacity: 1; white-space: pre;">s2 inhibition</text><g class="layers" style="opacity: 1;"><g class="legendfill"/><g class="legendlines"/><g class="legendsymbols"><g class="legendpoints"><path class="scatterpts" transform="translate(20,0)" d="M0,2.83l2.83,2.83l2.83,-2.83l-2.83,-2.83l2.83,-2.83l-2.83,-2.83l-2.83,2.83l-2.83,-2.83l-2.83,2.83l2.83,2.83l-2.83,2.83l2.83,2.83Z" style="opacity: 1; stroke-width: 0px; fill: rgb(117, 112, 179); fill-opacity: 1;"/></g></g></g><rect class="legendtoggle" x="0" y="-9.5" width="120.734375" height="19" style="fill: rgb(0, 0, 0); fill-opacity: 0;"/></g><g class="traces" transform="translate(0,128.5)" style="opacity: 1;"><text class="legendtext" text-anchor="start" x="40" y="4.680000000000001" style="font-family: 'Open Sans', verdana, arial, sans-serif; font-size: 12px; fill: rgb(42, 63, 95); fill-opacity: 1; white-space: pre;">negative</text><g class="layers" style="opacity: 1;"><g class="legendfill"/><g class="legendlines"/><g class="legendsymbols"><g class="legendpoints"><path class="scatterpts" transform="translate(20,0)" d="M0,2.83l2.83,2.83l2.83,-2.83l-2.83,-2.83l2.83,-2.83l-2.83,-2.83l-2.83,2.83l-2.83,-2.83l-2.83,2.83l2.83,2.83l-2.83,2.83l2.83,2.83Z" style="opacity: 1; stroke-width: 0px; fill: rgb(217, 95, 2); fill-opacity: 1;"/></g></g></g><rect class="legendtoggle" x="0" y="-9.5" width="120.734375" height="19" style="fill: rgb(0, 0, 0); fill-opacity: 0;"/></g><g class="traces" transform="translate(0,147.5)" style="opacity: 1;"><text class="legendtext" text-anchor="start" x="40" y="4.680000000000001" style="font-family: 'Open Sans', verdana, arial, sans-serif; font-size: 12px; fill: rgb(42, 63, 95); fill-opacity: 1; white-space: pre;">name mover</text><g class="layers" style="opacity: 1;"><g class="legendfill"/><g class="legendlines"/><g class="legendsymbols"><g class="legendpoints"><path class="scatterpts" transform="translate(20,0)" d="M0,2.83l2.83,2.83l2.83,-2.83l-2.83,-2.83l2.83,-2.83l-2.83,-2.83l-2.83,2.83l-2.83,-2.83l-2.83,2.83l2.83,2.83l-2.83,2.83l2.83,2.83Z" style="opacity: 1; stroke-width: 0px; fill: rgb(27, 158, 119); fill-opacity: 1;"/></g></g></g><rect class="legendtoggle" x="0" y="-9.5" width="120.734375" height="19" style="fill: rgb(0, 0, 0); fill-opacity: 0;"/></g></g></g><rect class="scrollbar" rx="20" ry="3" width="0" height="0" x="0" y="0" style="fill: rgb(128, 139, 164); fill-opacity: 1;"/></g><g class="g-gtitle"/><g class="g-xtitle"/><g class="g-ytitle"/><g class="annotation" data-index="0" style="opacity: 1;"><g class="annotation-text-g" transform="rotate(0,255.13,315.28)"><g class="cursor-pointer" transform="translate(253,313)"><rect class="bg" x="0.5" y="0.5" width="3" height="3" style="stroke-width: 1px; stroke: rgb(0, 0, 0); stroke-opacity: 0; fill: rgb(0, 0, 0); fill-opacity: 0;"/><text class="annotation-text" text-anchor="middle" x="2" y="2" style="font-family: 'Open Sans', verdana, arial, sans-serif; font-size: 12px; fill: rgb(42, 63, 95); fill-opacity: 1; white-space: pre;"></text></g></g><g class="annotation-arrow-g" style="opacity: 1;"><path d="M253.63,313.78L252.08,312.23" style="stroke-width: 1px; stroke: rgb(0, 0, 0); stroke-opacity: 1; stroke-dasharray: 0px, 0px, 0.642024px, 2.19202px;"/><path d="M-4.45,-3L-1.65,-0.2V0.2L-4.45,3L1.55,0Z" transform="translate(253.176025390625,313.3260192871094)rotate(-135)" style="fill: rgb(0, 0, 0); stroke-width: 0;"/></g></g><g class="annotation" data-index="1" style="opacity: 1;"><g class="annotation-text-g" transform="rotate(0,255.13,315.28)"><g class="cursor-pointer" transform="translate(253,313)"><rect class="bg" x="0.5" y="0.5" width="3" height="3" style="stroke-width: 1px; stroke: rgb(0, 0, 0); stroke-opacity: 0; fill: rgb(0, 0, 0); fill-opacity: 0;"/><text class="annotation-text" text-anchor="middle" x="2" y="2" style="font-family: 'Open Sans', verdana, arial, sans-serif; font-size: 12px; fill: rgb(42, 63, 95); fill-opacity: 1; white-space: pre;"></text></g></g><g class="annotation-arrow-g" style="opacity: 1;"><path d="M256.63,316.7750819672131L258.18,318.32" style="stroke-width: 1px; stroke: rgb(0, 0, 0); stroke-opacity: 1; stroke-dasharray: 0px, 0px, 0.638435px, 2.18843px;"/><path d="M-4.45,-3L-1.65,-0.2V0.2L-4.45,3L1.55,0Z" transform="translate(257.0821838378906,317.2257995605469)rotate(44.90108636583063)" style="fill: rgb(0, 0, 0); stroke-width: 0;"/></g></g><g class="annotation" data-index="2" style="opacity: 1;"><g class="annotation-text-g" transform="rotate(0,376.59,180.91)"><g class="cursor-pointer" transform="translate(375,179)"><rect class="bg" x="0.5" y="0.5" width="3" height="3" style="stroke-width: 1px; stroke: rgb(0, 0, 0); stroke-opacity: 0; fill: rgb(0, 0, 0); fill-opacity: 0;"/><text class="annotation-text" text-anchor="middle" x="2" y="2" style="font-family: 'Open Sans', verdana, arial, sans-serif; font-size: 12px; fill: rgb(42, 63, 95); fill-opacity: 1; white-space: pre;"></text></g></g><g class="annotation-arrow-g" style="opacity: 1;"><path d="M375.09,179.41L367.08,171.4" style="stroke-width: 1px; stroke: rgb(0, 0, 0); stroke-opacity: 1; stroke-dasharray: 0px, 0px, 9.77786px, 11.3279px;"/><path d="M-4.45,-3L-1.65,-0.2V0.2L-4.45,3L1.55,0Z" transform="translate(368.1759948730469,172.49600219726562)rotate(-135)" style="fill: rgb(0, 0, 0); stroke-width: 0;"/></g></g><g class="annotation" data-index="3" style="opacity: 1;"><g class="annotation-text-g" transform="rotate(0,376.59,180.91)"><g class="cursor-pointer" transform="translate(375,179)"><rect class="bg" x="0.5" y="0.5" width="3" height="3" style="stroke-width: 1px; stroke: rgb(0, 0, 0); stroke-opacity: 0; fill: rgb(0, 0, 0); fill-opacity: 0;"/><text class="annotation-text" text-anchor="middle" x="2" y="2" style="font-family: 'Open Sans', verdana, arial, sans-serif; font-size: 12px; fill: rgb(42, 63, 95); fill-opacity: 1; white-space: pre;"></text></g></g><g class="annotation-arrow-g" style="opacity: 1;"><path d="M378.09,182.41L386.09,190.41" style="stroke-width: 1px; stroke: rgb(0, 0, 0); stroke-opacity: 1; stroke-dasharray: 0px, 0px, 9.76371px, 11.3137px;"/><path d="M-4.45,-3L-1.65,-0.2V0.2L-4.45,3L1.55,0Z" transform="translate(384.9939880371094,189.31399536132812)rotate(45)" style="fill: rgb(0, 0, 0); stroke-width: 0;"/></g></g><g class="annotation" data-index="4" style="opacity: 1;"><g class="annotation-text-g" transform="rotate(0,242.57,330.23)"><g class="cursor-pointer" transform="translate(241,328)"><rect class="bg" x="0.5" y="0.5" width="3" height="3" style="stroke-width: 1px; stroke: rgb(0, 0, 0); stroke-opacity: 0; fill: rgb(0, 0, 0); fill-opacity: 0;"/><text class="annotation-text" text-anchor="middle" x="2" y="2" style="font-family: 'Open Sans', verdana, arial, sans-serif; font-size: 12px; fill: rgb(42, 63, 95); fill-opacity: 1; white-space: pre;"></text></g></g><g class="annotation-arrow-g" style="opacity: 1;"><path d="M241.07000000000002,328.73L240.72,328.38" style="stroke-width: 1px; stroke: rgb(0, 0, 0); stroke-opacity: 1; stroke-dasharray: 0px, 100px;"/></g></g><g class="annotation" data-index="5" style="opacity: 1;"><g class="annotation-text-g" transform="rotate(0,242.57,330.23)"><g class="cursor-pointer" transform="translate(241,328)"><rect class="bg" x="0.5" y="0.5" width="3" height="3" style="stroke-width: 1px; stroke: rgb(0, 0, 0); stroke-opacity: 0; fill: rgb(0, 0, 0); fill-opacity: 0;"/><text class="annotation-text" text-anchor="middle" x="2" y="2" style="font-family: 'Open Sans', verdana, arial, sans-serif; font-size: 12px; fill: rgb(42, 63, 95); fill-opacity: 1; white-space: pre;"></text></g></g><g class="annotation-arrow-g" style="opacity: 1;"><path d="M244.06999999999996,331.73L244.42,332.08000000000004" style="stroke-width: 1px; stroke: rgb(0, 0, 0); stroke-opacity: 1; stroke-dasharray: 0px, 100px;"/></g></g><g class="annotation" data-index="6" style="opacity: 1;"><g class="annotation-text-g" transform="rotate(0,262.5,298.32)"><g class="cursor-pointer" transform="translate(261,296)"><rect class="bg" x="0.5" y="0.5" width="3" height="3" style="stroke-width: 1px; stroke: rgb(0, 0, 0); stroke-opacity: 0; fill: rgb(0, 0, 0); fill-opacity: 0;"/><text class="annotation-text" text-anchor="middle" x="2" y="2" style="font-family: 'Open Sans', verdana, arial, sans-serif; font-size: 12px; fill: rgb(42, 63, 95); fill-opacity: 1; white-space: pre;"></text></g></g><g class="annotation-arrow-g" style="opacity: 1;"><path d="M261.0019108280255,296.82L254.66,290.47" style="stroke-width: 1px; stroke: rgb(0, 0, 0); stroke-opacity: 1; stroke-dasharray: 0px, 0px, 7.42455px, 8.97455px;"/><path d="M-4.45,-3L-1.65,-0.2V0.2L-4.45,3L1.55,0Z" transform="translate(255.7553253173828,291.56671142578125)rotate(-134.9567299190481)" style="fill: rgb(0, 0, 0); stroke-width: 0;"/></g></g><g class="annotation" data-index="7" style="opacity: 1;"><g class="annotation-text-g" transform="rotate(0,262.5,298.32)"><g class="cursor-pointer" transform="translate(261,296)"><rect class="bg" x="0.5" y="0.5" width="3" height="3" style="stroke-width: 1px; stroke: rgb(0, 0, 0); stroke-opacity: 0; fill: rgb(0, 0, 0); fill-opacity: 0;"/><text class="annotation-text" text-anchor="middle" x="2" y="2" style="font-family: 'Open Sans', verdana, arial, sans-serif; font-size: 12px; fill: rgb(42, 63, 95); fill-opacity: 1; white-space: pre;"></text></g></g><g class="annotation-arrow-g" style="opacity: 1;"><path d="M264,299.82L270.34000000000003,306.15999999999997" style="stroke-width: 1px; stroke: rgb(0, 0, 0); stroke-opacity: 1; stroke-dasharray: 0px, 0px, 7.41611px, 8.96611px;"/><path d="M-4.45,-3L-1.65,-0.2V0.2L-4.45,3L1.55,0Z" transform="translate(269.2439880371094,305.0639953613281)rotate(45)" style="fill: rgb(0, 0, 0); stroke-width: 0;"/></g></g><g class="annotation" data-index="8" style="opacity: 1;"><g class="annotation-text-g" transform="rotate(0,260.15999999999997,300.82)"><g class="cursor-pointer" transform="translate(258,299)"><rect class="bg" x="0.5" y="0.5" width="3" height="3" style="stroke-width: 1px; stroke: rgb(0, 0, 0); stroke-opacity: 0; fill: rgb(0, 0, 0); fill-opacity: 0;"/><text class="annotation-text" text-anchor="middle" x="2" y="2" style="font-family: 'Open Sans', verdana, arial, sans-serif; font-size: 12px; fill: rgb(42, 63, 95); fill-opacity: 1; white-space: pre;"></text></g></g><g class="annotation-arrow-g" style="opacity: 1;"><path d="M258.65999999999997,299.32193050193047L252.39,293.06" style="stroke-width: 1px; stroke: rgb(0, 0, 0); stroke-opacity: 1; stroke-dasharray: 0px, 0px, 7.31142px, 8.86142px;"/><path d="M-4.45,-3L-1.65,-0.2V0.2L-4.45,3L1.55,0Z" transform="translate(253.48672485351562,294.1553039550781)rotate(-135.0309072035579)" style="fill: rgb(0, 0, 0); stroke-width: 0;"/></g></g><g class="annotation" data-index="9" style="opacity: 1;"><g class="annotation-text-g" transform="rotate(0,260.15999999999997,300.82)"><g class="cursor-pointer" transform="translate(258,299)"><rect class="bg" x="0.5" y="0.5" width="3" height="3" style="stroke-width: 1px; stroke: rgb(0, 0, 0); stroke-opacity: 0; fill: rgb(0, 0, 0); fill-opacity: 0;"/><text class="annotation-text" text-anchor="middle" x="2" y="2" style="font-family: 'Open Sans', verdana, arial, sans-serif; font-size: 12px; fill: rgb(42, 63, 95); fill-opacity: 1; white-space: pre;"></text></g></g><g class="annotation-arrow-g" style="opacity: 1;"><path d="M261.65999999999997,302.32L267.91999999999996,308.58000000000004" style="stroke-width: 1px; stroke: rgb(0, 0, 0); stroke-opacity: 1; stroke-dasharray: 0px, 0px, 7.30297px, 8.85297px;"/><path d="M-4.45,-3L-1.65,-0.2V0.2L-4.45,3L1.55,0Z" transform="translate(266.8240051269531,307.4839782714844)rotate(45)" style="fill: rgb(0, 0, 0); stroke-width: 0;"/></g></g><g class="annotation" data-index="10" style="opacity: 1;"><g class="annotation-text-g" transform="rotate(0,285.38,260.97)"><g class="cursor-pointer" transform="translate(283,259)"><rect class="bg" x="0.5" y="0.5" width="3" height="3" style="stroke-width: 1px; stroke: rgb(0, 0, 0); stroke-opacity: 0; fill: rgb(0, 0, 0); fill-opacity: 0;"/><text class="annotation-text" text-anchor="middle" x="2" y="2" style="font-family: 'Open Sans', verdana, arial, sans-serif; font-size: 12px; fill: rgb(42, 63, 95); fill-opacity: 1; white-space: pre;"></text></g></g><g class="annotation-arrow-g" style="opacity: 1;"><path d="M283.88,259.47L270.3,245.89" style="stroke-width: 1px; stroke: rgb(0, 0, 0); stroke-opacity: 1; stroke-dasharray: 0px, 0px, 17.655px, 19.205px;"/><path d="M-4.45,-3L-1.65,-0.2V0.2L-4.45,3L1.55,0Z" transform="translate(271.39599609375,246.9860076904297)rotate(-135)" style="fill: rgb(0, 0, 0); stroke-width: 0;"/></g></g><g class="annotation" data-index="11" style="opacity: 1;"><g class="annotation-text-g" transform="rotate(0,285.38,260.97)"><g class="cursor-pointer" transform="translate(283,259)"><rect class="bg" x="0.5" y="0.5" width="3" height="3" style="stroke-width: 1px; stroke: rgb(0, 0, 0); stroke-opacity: 0; fill: rgb(0, 0, 0); fill-opacity: 0;"/><text class="annotation-text" text-anchor="middle" x="2" y="2" style="font-family: 'Open Sans', verdana, arial, sans-serif; font-size: 12px; fill: rgb(42, 63, 95); fill-opacity: 1; white-space: pre;"></text></g></g><g class="annotation-arrow-g" style="opacity: 1;"><path d="M286.8790053050398,262.47L300.45,276.05" style="stroke-width: 1px; stroke: rgb(0, 0, 0); stroke-opacity: 1; stroke-dasharray: 0px, 0px, 17.6487px, 19.1987px;"/><path d="M-4.45,-3L-1.65,-0.2V0.2L-4.45,3L1.55,0Z" transform="translate(299.3543701171875,274.95361328125)rotate(45.024728431573386)" style="fill: rgb(0, 0, 0); stroke-width: 0;"/></g></g><g class="annotation" data-index="12" style="opacity: 1;"><g class="annotation-text-g" transform="rotate(0,319.69,250.09)"><g class="cursor-pointer" transform="translate(318,248)"><rect class="bg" x="0.5" y="0.5" width="3" height="3" style="stroke-width: 1px; stroke: rgb(0, 0, 0); stroke-opacity: 0; fill: rgb(0, 0, 0); fill-opacity: 0;"/><text class="annotation-text" text-anchor="middle" x="2" y="2" style="font-family: 'Open Sans', verdana, arial, sans-serif; font-size: 12px; fill: rgb(42, 63, 95); fill-opacity: 1; white-space: pre;"></text></g></g><g class="annotation-arrow-g" style="opacity: 1;"><path d="M318.19,248.59L316.33000000000004,246.73" style="stroke-width: 1px; stroke: rgb(0, 0, 0); stroke-opacity: 1; stroke-dasharray: 0px, 0px, 1.08045px, 2.63045px;"/><path d="M-4.45,-3L-1.65,-0.2V0.2L-4.45,3L1.55,0Z" transform="translate(317.4259948730469,247.8260040283203)rotate(-135)" style="fill: rgb(0, 0, 0); stroke-width: 0;"/></g></g><g class="annotation" data-index="13" style="opacity: 1;"><g class="annotation-text-g" transform="rotate(0,319.69,250.09)"><g class="cursor-pointer" transform="translate(318,248)"><rect class="bg" x="0.5" y="0.5" width="3" height="3" style="stroke-width: 1px; stroke: rgb(0, 0, 0); stroke-opacity: 0; fill: rgb(0, 0, 0); fill-opacity: 0;"/><text class="annotation-text" text-anchor="middle" x="2" y="2" style="font-family: 'Open Sans', verdana, arial, sans-serif; font-size: 12px; fill: rgb(42, 63, 95); fill-opacity: 1; white-space: pre;"></text></g></g><g class="annotation-arrow-g" style="opacity: 1;"><path d="M321.19,251.59L323.05,253.45" style="stroke-width: 1px; stroke: rgb(0, 0, 0); stroke-opacity: 1; stroke-dasharray: 0px, 0px, 1.08043px, 2.63043px;"/><path d="M-4.45,-3L-1.65,-0.2V0.2L-4.45,3L1.55,0Z" transform="translate(321.9539794921875,252.35397338867188)rotate(45)" style="fill: rgb(0, 0, 0); stroke-width: 0;"/></g></g></g></svg>