<svg class="main-svg" xmlns="http://www.w3.org/2000/svg" xmlns:xlink="http://www.w3.org/1999/xlink" width="700" height="500" style="" viewBox="0 0 700 500"><rect x="0" y="0" width="700" height="500" style="fill: rgb(255, 255, 255); fill-opacity: 1;"/><defs id="defs-3d5322"><g class="clips"><clipPath id="clip3d5322xyplot" class="plotclip"><rect width="401" height="315"/></clipPath><clipPath class="axesclip" id="clip3d5322x"><rect x="80" y="0" width="401" height="500"/></clipPath><clipPath class="axesclip" id="clip3d5322y"><rect x="0" y="100" width="700" height="315"/></clipPath><clipPath class="axesclip" id="clip3d5322xy"><rect x="80" y="100" width="401" height="315"/></clipPath></g><g class="gradients"/><g class="patterns"/></defs><g class="bglayer"/><g class="layer-below"><g class="imagelayer"/><g class="shapelayer"/></g><g class="cartesianlayer"><g class="subplot xy"><g class="layer-subplot"><g class="shapelayer"/><g class="imagelayer"/></g><g class="minor-gridlayer"><g class="x"/><g class="y"/></g><g class="gridlayer"><g class="x"><path class="xgrid crisp" transform="translate(103.8,0)" d="M0,100v315" style="stroke: rgb(0, 0, 0); stroke-opacity: 1; stroke-width: 0.1px;"/><path class="xgrid crisp" transform="translate(133.25,0)" d="M0,100v315" style="stroke: rgb(0, 0, 0); stroke-opacity: 1; stroke-width: 0.1px;"/><path class="xgrid crisp" transform="translate(162.7,0)" d="M0,100v315" style="stroke: rgb(0, 0, 0); stroke-opacity: 1; stroke-width: 0.1px;"/><path class="xgrid crisp" transform="translate(192.15,0)" d="M0,100v315" style="stroke: rgb(0, 0, 0); stroke-opacity: 1; stroke-width: 0.1px;"/><path class="xgrid crisp" transform="translate(221.6,0)" d="M0,100v315" style="stroke: rgb(0, 0, 0); stroke-opacity: 1; stroke-width: 0.1px;"/><path class="xgrid crisp" transform="translate(251.05,0)" d="M0,100v315" style="stroke: rgb(0, 0, 0); stroke-opacity: 1; stroke-width: 0.1px;"/><path class="xgrid crisp" transform="translate(280.5,0)" d="M0,100v315" style="stroke: rgb(0, 0, 0); stroke-opacity: 1; stroke-width: 0.1px;"/><path class="xgrid crisp" transform="translate(309.95,0)" d="M0,100v315" style="stroke: rgb(0, 0, 0); stroke-opacity: 1; stroke-width: 0.1px;"/><path class="xgrid crisp" transform="translate(339.4,0)" d="M0,100v315" style="stroke: rgb(0, 0, 0); stroke-opacity: 1; stroke-width: 0.1px;"/><path class="xgrid crisp" transform="translate(368.85,0)" d="M0,100v315" style="stroke: rgb(0, 0, 0); stroke-opacity: 1; stroke-width: 0.1px;"/><path class="xgrid crisp" transform="translate(398.3,0)" d="M0,100v315" style="stroke: rgb(0, 0, 0); stroke-opacity: 1; stroke-width: 0.1px;"/><path class="xgrid crisp" transform="translate(427.75,0)" d="M0,100v315" style="stroke: rgb(0, 0, 0); stroke-opacity: 1; stroke-width: 0.1px;"/><path class="xgrid crisp" transform="translate(457.2,0)" d="M0,100v315" style="stroke: rgb(0, 0, 0); stroke-opacity: 1; stroke-width: 0.1px;"/></g><g class="y"><path class="ygrid crisp" transform="translate(0,409.41)" d="M80,0h401" style="stroke: rgb(0, 0, 0); stroke-opacity: 1; stroke-width: 0.1px;"/><path class="ygrid crisp" transform="translate(0,366.3)" d="M80,0h401" style="stroke: rgb(0, 0, 0); stroke-opacity: 1; stroke-width: 0.1px;"/><path class="ygrid crisp" transform="translate(0,323.19)" d="M80,0h401" style="stroke: rgb(0, 0, 0); stroke-opacity: 1; stroke-width: 0.1px;"/><path class="ygrid crisp" transform="translate(0,280.08000000000004)" d="M80,0h401" style="stroke: rgb(0, 0, 0); stroke-opacity: 1; stroke-width: 0.1px;"/><path class="ygrid crisp" transform="translate(0,236.97)" d="M80,0h401" style="stroke: rgb(0, 0, 0); stroke-opacity: 1; stroke-width: 0.1px;"/><path class="ygrid crisp" transform="translate(0,193.86)" d="M80,0h401" style="stroke: rgb(0, 0, 0); stroke-opacity: 1; stroke-width: 0.1px;"/><path class="ygrid crisp" transform="translate(0,150.75)" d="M80,0h401" style="stroke: rgb(0, 0, 0); stroke-opacity: 1; stroke-width: 0.1px;"/><path class="ygrid crisp" transform="translate(0,107.64)" d="M80,0h401" style="stroke: rgb(0, 0, 0); stroke-opacity: 1; stroke-width: 0.1px;"/></g></g><g class="zerolinelayer"/><path class="xlines-below"/><path class="ylines-below"/><g class="overlines-below"/><g class="xaxislayer-below"/><g class="yaxislayer-below"/><g class="overaxes-below"/><g class="plot" transform="translate(80,100)" clip-path="url(#clip3d5322xyplot)"><g class="barlayer mlayer"><g class="trace bars" style="opacity: 1;"><g class="points"><g class="point"><path d="M9.07,295.5V61.81H38.52V295.5Z" style="vector-effect: non-scaling-stroke; opacity: 1; stroke-width: 0.5px; fill: rgb(27, 158, 119); fill-opacity: 1; stroke: rgb(229, 236, 246); stroke-opacity: 1;"/></g><g class="point"><path d="M38.52,295.5V48.32H67.97V295.5Z" style="vector-effect: non-scaling-stroke; opacity: 1; stroke-width: 0.5px; fill: rgb(27, 158, 119); fill-opacity: 1; stroke: rgb(229, 236, 246); stroke-opacity: 1;"/></g><g class="point"><path d="M67.97,295.5V84.88H97.42V295.5Z" style="vector-effect: non-scaling-stroke; opacity: 1; stroke-width: 0.5px; fill: rgb(27, 158, 119); fill-opacity: 1; stroke: rgb(229, 236, 246); stroke-opacity: 1;"/></g><g class="point"><path d="M97.42,295.5V99.99H126.87V295.5Z" style="vector-effect: non-scaling-stroke; opacity: 1; stroke-width: 0.5px; fill: rgb(27, 158, 119); fill-opacity: 1; stroke: rgb(229, 236, 246); stroke-opacity: 1;"/></g><g class="point"><path d="M126.87,295.5V115H156.32V295.5Z" style="vector-effect: non-scaling-stroke; opacity: 1; stroke-width: 0.5px; fill: rgb(27, 158, 119); fill-opacity: 1; stroke: rgb(229, 236, 246); stroke-opacity: 1;"/></g><g class="point"><path d="M156.32,295.5V168.15H185.77V295.5Z" style="vector-effect: non-scaling-stroke; opacity: 1; stroke-width: 0.5px; fill: rgb(27, 158, 119); fill-opacity: 1; stroke: rgb(229, 236, 246); stroke-opacity: 1;"/></g><g class="point"><path d="M185.77,295.5V200.55H215.22V295.5Z" style="vector-effect: non-scaling-stroke; opacity: 1; stroke-width: 0.5px; fill: rgb(27, 158, 119); fill-opacity: 1; stroke: rgb(229, 236, 246); stroke-opacity: 1;"/></g><g class="point"><path d="M215.22,295.5V214.86H244.67V295.5Z" style="vector-effect: non-scaling-stroke; opacity: 1; stroke-width: 0.5px; fill: rgb(27, 158, 119); fill-opacity: 1; stroke: rgb(229, 236, 246); stroke-opacity: 1;"/></g><g class="point"><path d="M244.67,295.5V235.68H274.12V295.5Z" style="vector-effect: non-scaling-stroke; opacity: 1; stroke-width: 0.5px; fill: rgb(27, 158, 119); fill-opacity: 1; stroke: rgb(229, 236, 246); stroke-opacity: 1;"/></g><g class="point"><path d="M274.12,295.5V240.69H303.58V295.5Z" style="vector-effect: non-scaling-stroke; opacity: 1; stroke-width: 0.5px; fill: rgb(27, 158, 119); fill-opacity: 1; stroke: rgb(229, 236, 246); stroke-opacity: 1;"/></g><g class="point"><path d="M303.58,295.5V245.03H333.03V295.5Z" style="vector-effect: non-scaling-stroke; opacity: 1; stroke-width: 0.5px; fill: rgb(27, 158, 119); fill-opacity: 1; stroke: rgb(229, 236, 246); stroke-opacity: 1;"/></g><g class="point"><path d="M333.03,295.5V257.68H362.48V295.5Z" style="vector-effect: non-scaling-stroke; opacity: 1; stroke-width: 0.5px; fill: rgb(27, 158, 119); fill-opacity: 1; stroke: rgb(229, 236, 246); stroke-opacity: 1;"/></g><g class="point"><path d="M362.48,295.5V262.05H391.92V295.5Z" style="vector-effect: non-scaling-stroke; opacity: 1; stroke-width: 0.5px; fill: rgb(27, 158, 119); fill-opacity: 1; stroke: rgb(229, 236, 246); stroke-opacity: 1;"/></g></g></g></g><g class="scatterlayer mlayer"><g class="trace scatter trace9aca27" style="stroke-miterlimit: 2; opacity: 1;"><g class="fills"/><g class="errorbars"/><g class="lines"><path class="js-line" d="M23.8,295.5L377.2,295.5" style="vector-effect: non-scaling-stroke; fill: none; stroke: rgb(27, 158, 119); stroke-opacity: 1; stroke-width: 2px; opacity: 1;"/></g><g class="points"><path class="point" transform="translate(23.8,295.5)" d="M3,0A3,3 0 1,1 0,-3A3,3 0 0,1 3,0Z" style="opacity: 1; stroke-width: 0px; fill: rgb(27, 158, 119); fill-opacity: 1;"/><path class="point" transform="translate(53.25,295.5)" d="M3,0A3,3 0 1,1 0,-3A3,3 0 0,1 3,0Z" style="opacity: 1; stroke-width: 0px; fill: rgb(27, 158, 119); fill-opacity: 1;"/><path class="point" transform="translate(82.7,295.5)" d="M3,0A3,3 0 1,1 0,-3A3,3 0 0,1 3,0Z" style="opacity: 1; stroke-width: 0px; fill: rgb(27, 158, 119); fill-opacity: 1;"/><path class="point" transform="translate(112.15,295.5)" d="M3,0A3,3 0 1,1 0,-3A3,3 0 0,1 3,0Z" style="opacity: 1; stroke-width: 0px; fill: rgb(27, 158, 119); fill-opacity: 1;"/><path class="point" transform="translate(141.6,295.5)" d="M3,0A3,3 0 1,1 0,-3A3,3 0 0,1 3,0Z" style="opacity: 1; stroke-width: 0px; fill: rgb(27, 158, 119); fill-opacity: 1;"/><path class="point" transform="translate(171.05,295.5)" d="M3,0A3,3 0 1,1 0,-3A3,3 0 0,1 3,0Z" style="opacity: 1; stroke-width: 0px; fill: rgb(27, 158, 119); fill-opacity: 1;"/><path class="point" transform="translate(200.5,295.5)" d="M3,0A3,3 0 1,1 0,-3A3,3 0 0,1 3,0Z" style="opacity: 1; stroke-width: 0px; fill: rgb(27, 158, 119); fill-opacity: 1;"/><path class="point" transform="translate(229.95,295.5)" d="M3,0A3,3 0 1,1 0,-3A3,3 0 0,1 3,0Z" style="opacity: 1; stroke-width: 0px; fill: rgb(27, 158, 119); fill-opacity: 1;"/><path class="point" transform="translate(259.4,295.5)" d="M3,0A3,3 0 1,1 0,-3A3,3 0 0,1 3,0Z" style="opacity: 1; stroke-width: 0px; fill: rgb(27, 158, 119); fill-opacity: 1;"/><path class="point" transform="translate(288.85,295.5)" d="M3,0A3,3 0 1,1 0,-3A3,3 0 0,1 3,0Z" style="opacity: 1; stroke-width: 0px; fill: rgb(27, 158, 119); fill-opacity: 1;"/><path class="point" transform="translate(318.3,295.5)" d="M3,0A3,3 0 1,1 0,-3A3,3 0 0,1 3,0Z" style="opacity: 1; stroke-width: 0px; fill: rgb(27, 158, 119); fill-opacity: 1;"/><path class="point" transform="translate(347.75,295.5)" d="M3,0A3,3 0 1,1 0,-3A3,3 0 0,1 3,0Z" style="opacity: 1; stroke-width: 0px; fill: rgb(27, 158, 119); fill-opacity: 1;"/><path class="point" transform="translate(377.2,295.5)" d="M3,0A3,3 0 1,1 0,-3A3,3 0 0,1 3,0Z" style="opacity: 1; stroke-width: 0px; fill: rgb(27, 158, 119); fill-opacity: 1;"/></g><g class="text"/></g><g class="trace scatter tracede4946" style="stroke-miterlimit: 2; opacity: 1;"><g class="fills"><g><path class="js-fill" d="M23.8,71.96L377.2,71.96Z" style="fill: rgb(0, 0, 0); fill-opacity: 0.5; stroke-width: 0;"/></g></g><g class="errorbars"/><g class="lines"><path class="js-line" d="M23.8,71.96L377.2,71.96" style="vector-effect: non-scaling-stroke; fill: none; stroke: rgb(0, 0, 0); stroke-opacity: 1; stroke-width: 2px; opacity: 1;"/></g><g class="points"/><g class="text"/></g><g class="trace scatter traceb8f545" style="stroke-miterlimit: 2; opacity: 1;"><g class="fills"><g><path class="js-fill" d="M23.8,15.75L377.2,15.75Z" style="fill: rgb(0, 0, 255); fill-opacity: 0.5; stroke-width: 0;"/></g></g><g class="errorbars"/><g class="lines"><path class="js-line" d="M23.8,15.75L377.2,15.75" style="vector-effect: non-scaling-stroke; fill: none; stroke: rgb(0, 0, 255); stroke-opacity: 1; stroke-width: 2px; opacity: 1;"/></g><g class="points"/><g class="text"/></g></g></g><g class="overplot"/><path class="xlines-above crisp" d="M0,0" style="fill: none;"/><path class="ylines-above crisp" d="M0,0" style="fill: none;"/><g class="overlines-above"/><g class="xaxislayer-above"><g class="xtick"><text text-anchor="start" x="0" y="428" transform="translate(103.8,0) rotate(90,0,422)" style="font-family: 'Open Sans', verdana, arial, sans-serif; font-size: 12px; fill: rgb(42, 63, 95); fill-opacity: 1; white-space: pre; opacity: 1;">(9, 9)</text></g><g class="xtick"><text text-anchor="start" x="0" y="428" transform="translate(133.25,0) rotate(90,0,422)" style="font-family: 'Open Sans', verdana, arial, sans-serif; font-size: 12px; fill: rgb(42, 63, 95); fill-opacity: 1; white-space: pre; opacity: 1;">(9, 6)</text></g><g class="xtick"><text text-anchor="start" x="0" y="428" transform="translate(162.7,0) rotate(90,0,422)" style="font-family: 'Open Sans', verdana, arial, sans-serif; font-size: 12px; fill: rgb(42, 63, 95); fill-opacity: 1; white-space: pre; opacity: 1;">(10, 0)</text></g><g class="xtick"><text text-anchor="start" x="0" y="428" transform="translate(192.15,0) rotate(90,0,422)" style="font-family: 'Open Sans', verdana, arial, sans-serif; font-size: 12px; fill: rgb(42, 63, 95); fill-opacity: 1; white-space: pre; opacity: 1;">(10, 10)</text></g><g class="xtick"><text text-anchor="start" x="0" y="428" transform="translate(221.6,0) rotate(90,0,422)" style="font-family: 'Open Sans', verdana, arial, sans-serif; font-size: 12px; fill: rgb(42, 63, 95); fill-opacity: 1; white-space: pre; opacity: 1;">(10, 6)</text></g><g class="xtick"><text text-anchor="start" x="0" y="428" transform="translate(251.05,0) rotate(90,0,422)" style="font-family: 'Open Sans', verdana, arial, sans-serif; font-size: 12px; fill: rgb(42, 63, 95); fill-opacity: 1; white-space: pre; opacity: 1;">(11, 2)</text></g><g class="xtick"><text text-anchor="start" x="0" y="428" transform="translate(280.5,0) rotate(90,0,422)" style="font-family: 'Open Sans', verdana, arial, sans-serif; font-size: 12px; fill: rgb(42, 63, 95); fill-opacity: 1; white-space: pre; opacity: 1;">(10, 2)</text></g><g class="xtick"><text text-anchor="start" x="0" y="428" transform="translate(309.95,0) rotate(90,0,422)" style="font-family: 'Open Sans', verdana, arial, sans-serif; font-size: 12px; fill: rgb(42, 63, 95); fill-opacity: 1; white-space: pre; opacity: 1;">(10, 1)</text></g><g class="xtick"><text text-anchor="start" x="0" y="428" transform="translate(339.4,0) rotate(90,0,422)" style="font-family: 'Open Sans', verdana, arial, sans-serif; font-size: 12px; fill: rgb(42, 63, 95); fill-opacity: 1; white-space: pre; opacity: 1;">(11, 6)</text></g><g class="xtick"><text text-anchor="start" x="0" y="428" transform="translate(368.85,0) rotate(90,0,422)" style="font-family: 'Open Sans', verdana, arial, sans-serif; font-size: 12px; fill: rgb(42, 63, 95); fill-opacity: 1; white-space: pre; opacity: 1;">(11, 9)</text></g><g class="xtick"><text text-anchor="start" x="0" y="428" transform="translate(398.3,0) rotate(90,0,422)" style="font-family: 'Open Sans', verdana, arial, sans-serif; font-size: 12px; fill: rgb(42, 63, 95); fill-opacity: 1; white-space: pre; opacity: 1;">(9, 0)</text></g><g class="xtick"><text text-anchor="start" x="0" y="428" transform="translate(427.75,0) rotate(90,0,422)" style="font-family: 'Open Sans', verdana, arial, sans-serif; font-size: 12px; fill: rgb(42, 63, 95); fill-opacity: 1; white-space: pre; opacity: 1;">(9, 7)</text></g><g class="xtick"><text text-anchor="start" x="0" y="428" transform="translate(457.2,0) rotate(90,0,422)" style="font-family: 'Open Sans', verdana, arial, sans-serif; font-size: 12px; fill: rgb(42, 63, 95); fill-opacity: 1; white-space: pre; opacity: 1;">(11, 1)</text></g></g><g class="yaxislayer-above"><g class="ytick"><text text-anchor="end" x="79" y="4.199999999999999" transform="translate(0,409.41)" style="font-family: 'Open Sans', verdana, arial, sans-serif; font-size: 12px; fill: rgb(42, 63, 95); fill-opacity: 1; white-space: pre; opacity: 1;">0.5</text></g><g class="ytick"><text text-anchor="end" x="79" y="4.199999999999999" style="font-family: 'Open Sans', verdana, arial, sans-serif; font-size: 12px; fill: rgb(42, 63, 95); fill-opacity: 1; white-space: pre; opacity: 1;" transform="translate(0,366.3)">1</text></g><g class="ytick"><text text-anchor="end" x="79" y="4.199999999999999" style="font-family: 'Open Sans', verdana, arial, sans-serif; font-size: 12px; fill: rgb(42, 63, 95); fill-opacity: 1; white-space: pre; opacity: 1;" transform="translate(0,323.19)">1.5</text></g><g class="ytick"><text text-anchor="end" x="79" y="4.199999999999999" style="font-family: 'Open Sans', verdana, arial, sans-serif; font-size: 12px; fill: rgb(42, 63, 95); fill-opacity: 1; white-space: pre; opacity: 1;" transform="translate(0,280.08000000000004)">2</text></g><g class="ytick"><text text-anchor="end" x="79" y="4.199999999999999" style="font-family: 'Open Sans', verdana, arial, sans-serif; font-size: 12px; fill: rgb(42, 63, 95); fill-opacity: 1; white-space: pre; opacity: 1;" transform="translate(0,236.97)">2.5</text></g><g class="ytick"><text text-anchor="end" x="79" y="4.199999999999999" style="font-family: 'Open Sans', verdana, arial, sans-serif; font-size: 12px; fill: rgb(42, 63, 95); fill-opacity: 1; white-space: pre; opacity: 1;" transform="translate(0,193.86)">3</text></g><g class="ytick"><text text-anchor="end" x="79" y="4.199999999999999" style="font-family: 'Open Sans', verdana, arial, sans-serif; font-size: 12px; fill: rgb(42, 63, 95); fill-opacity: 1; white-space: pre; opacity: 1;" transform="translate(0,150.75)">3.5</text></g><g class="ytick"><text text-anchor="end" x="79" y="4.199999999999999" style="font-family: 'Open Sans', verdana, arial, sans-serif; font-size: 12px; fill: rgb(42, 63, 95); fill-opacity: 1; white-space: pre; opacity: 1;" transform="translate(0,107.64)">4</text></g></g><g class="overaxes-above"/></g></g><g class="polarlayer"/><g class="smithlayer"/><g class="ternarylayer"/><g class="geolayer"/><g class="funnelarealayer"/><g class="pielayer"/><g class="iciclelayer"/><g class="treemaplayer"/><g class="sunburstlayer"/><g class="glimages"/><defs id="topdefs-3d5322"><g class="clips"/><clipPath id="legend3d5322"><rect width="199" height="86" x="0" y="0"/></clipPath></defs><g class="layer-above"><g class="imagelayer"/><g class="shapelayer"/></g><g class="infolayer"><g class="legend" pointer-events="all" transform="translate(489.02,100)"><rect class="bg" shape-rendering="crispEdges" width="199" height="86" x="0" y="0" style="stroke: rgb(68, 68, 68); stroke-opacity: 1; fill: rgb(255, 255, 255); fill-opacity: 1; stroke-width: 0px;"/><g class="scrollbox" transform="" clip-path="url(#legend3d5322)"><g class="groups"><g class="traces" transform="translate(0,14.5)" style="opacity: 1;"><text class="legendtext" text-anchor="start" x="40" y="4.680000000000001" style="font-family: 'Open Sans', verdana, arial, sans-serif; font-size: 12px; fill: rgb(42, 63, 95); fill-opacity: 1; white-space: pre;"></text><g class="layers" style="opacity: 1;"><g class="legendfill"/><g class="legendlines"/><g class="legendsymbols"><g class="legendpoints"><path class="legendundefined" d="M6,6H-6V-6H6Z" transform="translate(20,0)" style="stroke-width: 0.5px; fill: rgb(27, 158, 119); fill-opacity: 1; stroke: rgb(229, 236, 246); stroke-opacity: 1;"/></g></g></g><rect class="legendtoggle" x="0" y="-9.5" width="193.078125" height="19" style="fill: rgb(0, 0, 0); fill-opacity: 0;"/></g><g class="traces" transform="translate(0,33.5)" style="opacity: 1;"><text class="legendtext" text-anchor="start" x="40" y="4.680000000000001" style="font-family: 'Open Sans', verdana, arial, sans-serif; font-size: 12px; fill: rgb(42, 63, 95); fill-opacity: 1; white-space: pre;">name mover</text><g class="layers" style="opacity: 1;"><g class="legendfill"/><g class="legendlines"><path class="js-line" d="M5,0h30" style="fill: none; stroke: rgb(27, 158, 119); stroke-opacity: 1; stroke-width: 2px;"/></g><g class="legendsymbols"><g class="legendpoints"><path class="scatterpts" transform="translate(20,0)" d="M3,0A3,3 0 1,1 0,-3A3,3 0 0,1 3,0Z" style="opacity: 1; stroke-width: 0px; fill: rgb(27, 158, 119); fill-opacity: 1;"/></g></g></g><rect class="legendtoggle" x="0" y="-9.5" width="193.078125" height="19" style="fill: rgb(0, 0, 0); fill-opacity: 0;"/></g><g class="traces" transform="translate(0,52.5)" style="opacity: 1;"><text class="legendtext" text-anchor="start" x="40" y="4.680000000000001" style="font-family: 'Open Sans', verdana, arial, sans-serif; font-size: 12px; fill: rgb(42, 63, 95); fill-opacity: 1; white-space: pre;">Baseline model performance</text><g class="layers" style="opacity: 1;"><g class="legendfill"><path class="js-fill" d="M5,-2h30v6h-30z" style="stroke-width: 0; fill: rgb(0, 0, 0); fill-opacity: 0.5;"/></g><g class="legendlines"><path class="js-line" d="M5,-2h30" style="fill: none; stroke: rgb(0, 0, 0); stroke-opacity: 1; stroke-width: 2px;"/></g><g class="legendsymbols"><g class="legendpoints"/></g></g><rect class="legendtoggle" x="0" y="-9.5" width="193.078125" height="19" style="fill: rgb(0, 0, 0); fill-opacity: 0;"/></g><g class="traces" transform="translate(0,71.5)" style="opacity: 1;"><text class="legendtext" text-anchor="start" x="40" y="4.680000000000001" style="font-family: 'Open Sans', verdana, arial, sans-serif; font-size: 12px; fill: rgb(42, 63, 95); fill-opacity: 1; white-space: pre;">Circuit performance</text><g class="layers" style="opacity: 1;"><g class="legendfill"><path class="js-fill" d="M5,-2h30v6h-30z" style="stroke-width: 0; fill: rgb(0, 0, 255); fill-opacity: 0.5;"/></g><g class="legendlines"><path class="js-line" d="M5,-2h30" style="fill: none; stroke: rgb(0, 0, 255); stroke-opacity: 1; stroke-width: 2px;"/></g><g class="legendsymbols"><g class="legendpoints"/></g></g><rect class="legendtoggle" x="0" y="-9.5" width="193.078125" height="19" style="fill: rgb(0, 0, 0); fill-opacity: 0;"/></g></g></g><rect class="scrollbar" rx="20" ry="3" width="0" height="0" x="0" y="0" style="fill: rgb(128, 139, 164); fill-opacity: 1;"/></g><g class="g-gtitle"/><g class="g-xtitle"><text class="xtitle" x="280.5" y="488.159375" text-anchor="middle" style="font-family: 'Open Sans', verdana, arial, sans-serif; font-size: 14px; fill: rgb(42, 63, 95); opacity: 1; font-weight: normal; white-space: pre;">Attention head</text></g><g class="g-ytitle"><text class="ytitle" transform="rotate(-90,37.5125,257.5)" x="37.5125" y="257.5" text-anchor="middle" style="font-family: 'Open Sans', verdana, arial, sans-serif; font-size: 14px; fill: rgb(42, 63, 95); opacity: 1; font-weight: normal; white-space: pre;">Average IO probabilities</text></g></g></svg>