<svg class="main-svg" xmlns="http://www.w3.org/2000/svg" xmlns:xlink="http://www.w3.org/1999/xlink" width="700" height="500" style="" viewBox="0 0 700 500"><rect x="0" y="0" width="700" height="500" style="fill: rgb(255, 255, 255); fill-opacity: 1;"/><defs id="defs-0e3ab4"><g class="clips"><clipPath id="clip0e3ab4xyplot" class="plotclip"><rect width="473" height="320"/></clipPath><clipPath class="axesclip" id="clip0e3ab4x"><rect x="80" y="0" width="473" height="500"/></clipPath><clipPath class="axesclip" id="clip0e3ab4y"><rect x="0" y="100" width="700" height="320"/></clipPath><clipPath class="axesclip" id="clip0e3ab4xy"><rect x="80" y="100" width="473" height="320"/></clipPath></g><g class="gradients"/><g class="patterns"/></defs><g class="bglayer"/><g class="layer-below"><g class="imagelayer"/><g class="shapelayer"/></g><g class="cartesianlayer"><g class="subplot xy"><g class="layer-subplot"><g class="shapelayer"/><g class="imagelayer"/></g><g class="minor-gridlayer"><g class="x"/><g class="y"/></g><g class="gridlayer"><g class="x"><path class="xgrid crisp" transform="translate(86.1,0)" d="M0,100v320" style="stroke: rgb(0, 0, 0); stroke-opacity: 1; stroke-width: 1px;"/><path class="xgrid crisp" transform="translate(374.1,0)" d="M0,100v320" style="stroke: rgb(0, 0, 0); stroke-opacity: 1; stroke-width: 1px;"/><path class="xgrid crisp" transform="translate(518.1,0)" d="M0,100v320" style="stroke: rgb(0, 0, 0); stroke-opacity: 1; stroke-width: 1px;"/></g><g class="y"><path class="ygrid crisp" transform="translate(0,404)" d="M80,0h473" style="stroke: rgb(0, 0, 0); stroke-opacity: 1; stroke-width: 1px;"/><path class="ygrid crisp" transform="translate(0,288.8)" d="M80,0h473" style="stroke: rgb(0, 0, 0); stroke-opacity: 1; stroke-width: 1px;"/><path class="ygrid crisp" transform="translate(0,231.2)" d="M80,0h473" style="stroke: rgb(0, 0, 0); stroke-opacity: 1; stroke-width: 1px;"/><path class="ygrid crisp" transform="translate(0,173.6)" d="M80,0h473" style="stroke: rgb(0, 0, 0); stroke-opacity: 1; stroke-width: 1px;"/><path class="ygrid crisp" transform="translate(0,116)" d="M80,0h473" style="stroke: rgb(0, 0, 0); stroke-opacity: 1; stroke-width: 1px;"/></g></g><g class="zerolinelayer"><path class="xzl zl crisp" transform="translate(230.1,0)" d="M0,100v320" style="stroke: rgb(0, 0, 0); stroke-opacity: 1; stroke-width: 2px;"/><path class="yzl zl crisp" transform="translate(0,346.4)" d="M80,0h473" style="stroke: rgb(0, 0, 0); stroke-opacity: 1; stroke-width: 2px;"/></g><path class="xlines-below"/><path class="ylines-below"/><g class="overlines-below"/><g class="xaxislayer-below"/><g class="yaxislayer-below"/><g class="overaxes-below"/><g class="plot" transform="translate(80,100)" clip-path="url(#clip0e3ab4xyplot)"><g class="scatterlayer mlayer"><g class="trace scatter trace4b91bf" style="stroke-miterlimit: 2; opacity: 1;"><g class="fills"/><g class="errorbars"/><g class="lines"/><g class="points"><path class="point" transform="translate(171.51,216.18)" d="M6.5,0L0,6.5L-6.5,0L0,-6.5ZM-3.25,-3.25L3.25,3.25M-3.25,3.25L3.25,-3.25" style="opacity: 1; stroke-width: 0px; fill: rgb(27, 158, 119); fill-opacity: 1;"/></g><g class="text"/></g><g class="trace scatter trace2705b4" style="stroke-miterlimit: 2; opacity: 1;"><g class="fills"/><g class="errorbars"/><g class="lines"/><g class="points"><path class="point" transform="translate(289.4,77.96)" d="M6.5,0L0,6.5L-6.5,0L0,-6.5ZM-3.25,-3.25L3.25,3.25M-3.25,3.25L3.25,-3.25" style="opacity: 1; stroke-width: 0px; fill: rgb(217, 95, 2); fill-opacity: 1;"/></g><g class="text"/></g><g class="trace scatter traceaf5cba" style="stroke-miterlimit: 2; opacity: 1;"><g class="fills"/><g class="errorbars"/><g class="lines"/><g class="points"><path class="point" transform="translate(160.56,230.86)" d="M6.5,0L0,6.5L-6.5,0L0,-6.5ZM-3.25,-3.25L3.25,3.25M-3.25,3.25L3.25,-3.25" style="opacity: 1; stroke-width: 0px; fill: rgb(117, 112, 179); fill-opacity: 1;"/></g><g class="text"/></g><g class="trace scatter trace2ed981" style="stroke-miterlimit: 2; opacity: 1;"><g class="fills"/><g class="errorbars"/><g class="lines"/><g class="points"><path class="point" transform="translate(183.3,193.91)" d="M6.5,0L0,6.5L-6.5,0L0,-6.5ZM-3.25,-3.25L3.25,3.25M-3.25,3.25L3.25,-3.25" style="opacity: 1; stroke-width: 0px; fill: rgb(230, 171, 2); fill-opacity: 1;"/></g><g class="text"/></g><g class="trace scatter trace71b2b2" style="stroke-miterlimit: 2; opacity: 1;"><g class="fills"/><g class="errorbars"/><g class="lines"/><g class="points"><path class="point" transform="translate(176.53,197.79)" d="M6.5,0L0,6.5L-6.5,0L0,-6.5ZM-3.25,-3.25L3.25,3.25M-3.25,3.25L3.25,-3.25" style="opacity: 1; stroke-width: 0px; fill: rgb(231, 41, 138); fill-opacity: 1;"/></g><g class="text"/></g><g class="trace scatter trace32713a" style="stroke-miterlimit: 2; opacity: 1;"><g class="fills"/><g class="errorbars"/><g class="lines"/><g class="points"><path class="point" transform="translate(204.66,159.26)" d="M6.5,0L0,6.5L-6.5,0L0,-6.5ZM-3.25,-3.25L3.25,3.25M-3.25,3.25L3.25,-3.25" style="opacity: 1; stroke-width: 0px; fill: rgb(166, 118, 29); fill-opacity: 1;"/></g><g class="text"/></g><g class="trace scatter trace7ab8fd" style="stroke-miterlimit: 2; opacity: 1;"><g class="fills"/><g class="errorbars"/><g class="lines"/><g class="points"><path class="point" transform="translate(236.95,147.27)" d="M6.5,0L0,6.5L-6.5,0L0,-6.5ZM-3.25,-3.25L3.25,3.25M-3.25,3.25L3.25,-3.25" style="opacity: 1; stroke-width: 0px; fill: rgb(102, 102, 102); fill-opacity: 1;"/></g><g class="text"/></g><g class="trace scatter tracea13a29" style="stroke-miterlimit: 2;"><g class="fills"><g><path class="js-fill" d="M121.3,246.4L351.7,16L351.7,73.6L121.3,304Z" style="fill: rgb(128, 128, 128); fill-opacity: 0.5; stroke-width: 0;"/></g></g><g class="errorbars"/><g class="lines"><path class="js-line" d="M121.3,304L351.7,73.6" style="vector-effect: non-scaling-stroke; fill: none; stroke: rgb(128, 128, 128); stroke-opacity: 1; stroke-width: 2px; opacity: 1;"/></g><g class="points"/><g class="text"/></g><g class="trace scatter trace83a1f3" style="stroke-miterlimit: 2;"><g class="fills"/><g class="errorbars"/><g class="lines"><path class="js-line" d="M121.3,246.4L351.7,16" style="vector-effect: non-scaling-stroke; fill: none; stroke: rgb(128, 128, 128); stroke-opacity: 1; stroke-width: 2px; opacity: 1;"/></g><g class="points"/><g class="text"/></g></g></g><g class="overplot"/><path class="xlines-above crisp" d="M0,0" style="fill: none;"/><path class="ylines-above crisp" d="M0,0" style="fill: none;"/><g class="overlines-above"/><g class="xaxislayer-above"><g class="xtick"><text text-anchor="middle" x="0" y="433" transform="translate(86.1,0)" style="font-family: 'Open Sans', verdana, arial, sans-serif; font-size: 12px; fill: rgb(42, 63, 95); fill-opacity: 1; white-space: pre; opacity: 1;">−5</text></g><g class="xtick"><text text-anchor="middle" x="0" y="433" style="font-family: 'Open Sans', verdana, arial, sans-serif; font-size: 12px; fill: rgb(42, 63, 95); fill-opacity: 1; white-space: pre; opacity: 1;" transform="translate(230.1,0)">0</text></g><g class="xtick"><text text-anchor="middle" x="0" y="433" style="font-family: 'Open Sans', verdana, arial, sans-serif; font-size: 12px; fill: rgb(42, 63, 95); fill-opacity: 1; white-space: pre; opacity: 1;" transform="translate(374.1,0)">5</text></g><g class="xtick"><text text-anchor="middle" x="0" y="433" style="font-family: 'Open Sans', verdana, arial, sans-serif; font-size: 12px; fill: rgb(42, 63, 95); fill-opacity: 1; white-space: pre; opacity: 1;" transform="translate(518.1,0)">10</text></g></g><g class="yaxislayer-above"><g class="ytick"><text text-anchor="end" x="79" y="4.199999999999999" transform="translate(0,404)" style="font-family: 'Open Sans', verdana, arial, sans-serif; font-size: 12px; fill: rgb(42, 63, 95); fill-opacity: 1; white-space: pre; opacity: 1;">−2</text></g><g class="ytick"><text text-anchor="end" x="79" y="4.199999999999999" style="font-family: 'Open Sans', verdana, arial, sans-serif; font-size: 12px; fill: rgb(42, 63, 95); fill-opacity: 1; white-space: pre; opacity: 1;" transform="translate(0,346.4)">0</text></g><g class="ytick"><text text-anchor="end" x="79" y="4.199999999999999" style="font-family: 'Open Sans', verdana, arial, sans-serif; font-size: 12px; fill: rgb(42, 63, 95); fill-opacity: 1; white-space: pre; opacity: 1;" transform="translate(0,288.8)">2</text></g><g class="ytick"><text text-anchor="end" x="79" y="4.199999999999999" style="font-family: 'Open Sans', verdana, arial, sans-serif; font-size: 12px; fill: rgb(42, 63, 95); fill-opacity: 1; white-space: pre; opacity: 1;" transform="translate(0,231.2)">4</text></g><g class="ytick"><text text-anchor="end" x="79" y="4.199999999999999" style="font-family: 'Open Sans', verdana, arial, sans-serif; font-size: 12px; fill: rgb(42, 63, 95); fill-opacity: 1; white-space: pre; opacity: 1;" transform="translate(0,173.6)">6</text></g><g class="ytick"><text text-anchor="end" x="79" y="4.199999999999999" style="font-family: 'Open Sans', verdana, arial, sans-serif; font-size: 12px; fill: rgb(42, 63, 95); fill-opacity: 1; white-space: pre; opacity: 1;" transform="translate(0,116)">8</text></g></g><g class="overaxes-above"/></g></g><g class="polarlayer"/><g class="smithlayer"/><g class="ternarylayer"/><g class="geolayer"/><g class="funnelarealayer"/><g class="pielayer"/><g class="iciclelayer"/><g class="treemaplayer"/><g class="sunburstlayer"/><g class="glimages"/><defs id="topdefs-0e3ab4"><g class="clips"/><clipPath id="legend0e3ab4"><rect width="126" height="162" x="0" y="0"/></clipPath></defs><g class="layer-above"><g class="imagelayer"/><g class="shapelayer"/></g><g class="infolayer"><g class="legend" pointer-events="all" transform="translate(562.46,100)"><rect class="bg" shape-rendering="crispEdges" style="stroke: rgb(68, 68, 68); stroke-opacity: 1; fill: rgb(255, 255, 255); fill-opacity: 1; stroke-width: 0px;" width="126" height="162" x="0" y="0"/><g class="scrollbox" transform="" clip-path="url(#legend0e3ab4)"><g class="groups"><g class="traces" transform="translate(0,14.5)" style="opacity: 1;"><text class="legendtext" text-anchor="start" x="40" y="4.680000000000001" style="font-family: 'Open Sans', verdana, arial, sans-serif; font-size: 12px; fill: rgb(42, 63, 95); fill-opacity: 1; white-space: pre;">eps=1.0</text><g class="layers"><g class="legendfill"><path class="js-fill" d="M5,-2h30v6h-30z" style="stroke-width: 0; fill: rgb(128, 128, 128); fill-opacity: 0.5;"/></g><g class="legendlines"><path class="js-line" d="M5,-2h30" style="fill: none; stroke: rgb(128, 128, 128); stroke-opacity: 1; stroke-width: 2px;"/></g><g class="legendsymbols"><g class="legendpoints"/></g></g><rect class="legendtoggle" x="0" y="-9.5" width="120.734375" height="19" style="fill: rgb(0, 0, 0); fill-opacity: 0;"/></g><g class="traces" transform="translate(0,33.5)" style="opacity: 1;"><text class="legendtext" text-anchor="start" x="40" y="4.680000000000001" style="font-family: 'Open Sans', verdana, arial, sans-serif; font-size: 12px; fill: rgb(42, 63, 95); fill-opacity: 1; white-space: pre;">none</text><g class="layers" style="opacity: 1;"><g class="legendfill"/><g class="legendlines"/><g class="legendsymbols"><g class="legendpoints"><path class="scatterpts" transform="translate(20,0)" d="M6.5,0L0,6.5L-6.5,0L0,-6.5ZM-3.25,-3.25L3.25,3.25M-3.25,3.25L3.25,-3.25" style="opacity: 1; stroke-width: 0px; fill: rgb(102, 102, 102); fill-opacity: 1;"/></g></g></g><rect class="legendtoggle" x="0" y="-9.5" width="120.734375" height="19" style="fill: rgb(0, 0, 0); fill-opacity: 0;"/></g><g class="traces" transform="translate(0,52.5)" style="opacity: 1;"><text class="legendtext" text-anchor="start" x="40" y="4.680000000000001" style="font-family: 'Open Sans', verdana, arial, sans-serif; font-size: 12px; fill: rgb(42, 63, 95); fill-opacity: 1; white-space: pre;">previous token</text><g class="layers" style="opacity: 1;"><g class="legendfill"/><g class="legendlines"/><g class="legendsymbols"><g class="legendpoints"><path class="scatterpts" transform="translate(20,0)" d="M6.5,0L0,6.5L-6.5,0L0,-6.5ZM-3.25,-3.25L3.25,3.25M-3.25,3.25L3.25,-3.25" style="opacity: 1; stroke-width: 0px; fill: rgb(166, 118, 29); fill-opacity: 1;"/></g></g></g><rect class="legendtoggle" x="0" y="-9.5" width="120.734375" height="19" style="fill: rgb(0, 0, 0); fill-opacity: 0;"/></g><g class="traces" transform="translate(0,71.5)" style="opacity: 1;"><text class="legendtext" text-anchor="start" x="40" y="4.680000000000001" style="font-family: 'Open Sans', verdana, arial, sans-serif; font-size: 12px; fill: rgb(42, 63, 95); fill-opacity: 1; white-space: pre;">duplicate token</text><g class="layers" style="opacity: 1;"><g class="legendfill"/><g class="legendlines"/><g class="legendsymbols"><g class="legendpoints"><path class="scatterpts" transform="translate(20,0)" d="M6.5,0L0,6.5L-6.5,0L0,-6.5ZM-3.25,-3.25L3.25,3.25M-3.25,3.25L3.25,-3.25" style="opacity: 1; stroke-width: 0px; fill: rgb(231, 41, 138); fill-opacity: 1;"/></g></g></g><rect class="legendtoggle" x="0" y="-9.5" width="120.734375" height="19" style="fill: rgb(0, 0, 0); fill-opacity: 0;"/></g><g class="traces" transform="translate(0,90.5)" style="opacity: 1;"><text class="legendtext" text-anchor="start" x="40" y="4.680000000000001" style="font-family: 'Open Sans', verdana, arial, sans-serif; font-size: 12px; fill: rgb(42, 63, 95); fill-opacity: 1; white-space: pre;">induction</text><g class="layers" style="opacity: 1;"><g class="legendfill"/><g class="legendlines"/><g class="legendsymbols"><g class="legendpoints"><path class="scatterpts" transform="translate(20,0)" d="M6.5,0L0,6.5L-6.5,0L0,-6.5ZM-3.25,-3.25L3.25,3.25M-3.25,3.25L3.25,-3.25" style="opacity: 1; stroke-width: 0px; fill: rgb(230, 171, 2); fill-opacity: 1;"/></g></g></g><rect class="legendtoggle" x="0" y="-9.5" width="120.734375" height="19" style="fill: rgb(0, 0, 0); fill-opacity: 0;"/></g><g class="traces" transform="translate(0,109.5)" style="opacity: 1;"><text class="legendtext" text-anchor="start" x="40" y="4.680000000000001" style="font-family: 'Open Sans', verdana, arial, sans-serif; font-size: 12px; fill: rgb(42, 63, 95); fill-opacity: 1; white-space: pre;">s2 inhibition</text><g class="layers" style="opacity: 1;"><g class="legendfill"/><g class="legendlines"/><g class="legendsymbols"><g class="legendpoints"><path class="scatterpts" transform="translate(20,0)" d="M6.5,0L0,6.5L-6.5,0L0,-6.5ZM-3.25,-3.25L3.25,3.25M-3.25,3.25L3.25,-3.25" style="opacity: 1; stroke-width: 0px; fill: rgb(117, 112, 179); fill-opacity: 1;"/></g></g></g><rect class="legendtoggle" x="0" y="-9.5" width="120.734375" height="19" style="fill: rgb(0, 0, 0); fill-opacity: 0;"/></g><g class="traces" transform="translate(0,128.5)" style="opacity: 1;"><text class="legendtext" text-anchor="start" x="40" y="4.680000000000001" style="font-family: 'Open Sans', verdana, arial, sans-serif; font-size: 12px; fill: rgb(42, 63, 95); fill-opacity: 1; white-space: pre;">negative</text><g class="layers" style="opacity: 1;"><g class="legendfill"/><g class="legendlines"/><g class="legendsymbols"><g class="legendpoints"><path class="scatterpts" transform="translate(20,0)" d="M6.5,0L0,6.5L-6.5,0L0,-6.5ZM-3.25,-3.25L3.25,3.25M-3.25,3.25L3.25,-3.25" style="opacity: 1; stroke-width: 0px; fill: rgb(217, 95, 2); fill-opacity: 1;"/></g></g></g><rect class="legendtoggle" x="0" y="-9.5" width="120.734375" height="19" style="fill: rgb(0, 0, 0); fill-opacity: 0;"/></g><g class="traces" transform="translate(0,147.5)" style="opacity: 1;"><text class="legendtext" text-anchor="start" x="40" y="4.680000000000001" style="font-family: 'Open Sans', verdana, arial, sans-serif; font-size: 12px; fill: rgb(42, 63, 95); fill-opacity: 1; white-space: pre;">name mover</text><g class="layers" style="opacity: 1;"><g class="legendfill"/><g class="legendlines"/><g class="legendsymbols"><g class="legendpoints"><path class="scatterpts" transform="translate(20,0)" d="M6.5,0L0,6.5L-6.5,0L0,-6.5ZM-3.25,-3.25L3.25,3.25M-3.25,3.25L3.25,-3.25" style="opacity: 1; stroke-width: 0px; fill: rgb(27, 158, 119); fill-opacity: 1;"/></g></g></g><rect class="legendtoggle" x="0" y="-9.5" width="120.734375" height="19" style="fill: rgb(0, 0, 0); fill-opacity: 0;"/></g></g></g><rect class="scrollbar" rx="20" ry="3" width="0" height="0" style="fill: rgb(128, 139, 164); fill-opacity: 1;" x="0" y="0"/></g><g class="g-gtitle"/><g class="g-xtitle"><text class="xtitle" x="316.5" y="460.8" text-anchor="middle" style="font-family: 'Open Sans', verdana, arial, sans-serif; font-size: 14px; fill: rgb(42, 63, 95); opacity: 1; font-weight: normal; white-space: pre;">Broken Circuit</text></g><g class="g-ytitle"><text class="ytitle" transform="rotate(-90,40.5125,260)" x="40.5125" y="260" text-anchor="middle" style="font-family: 'Open Sans', verdana, arial, sans-serif; font-size: 14px; fill: rgb(42, 63, 95); opacity: 1; font-weight: normal; white-space: pre;">Cobbled Circuit</text></g><g class="annotation" data-index="0" style="opacity: 1;"><g class="annotation-text-g" transform="rotate(0,251.51,316.18)"><g class="cursor-pointer" transform="translate(250,314)"><rect class="bg" x="0.5" y="0.5" width="3" height="3" style="stroke-width: 1px; stroke: rgb(0, 0, 0); stroke-opacity: 0; fill: rgb(0, 0, 0); fill-opacity: 0;"/><text class="annotation-text" text-anchor="middle" x="2" y="2" style="font-family: 'Open Sans', verdana, arial, sans-serif; font-size: 12px; fill: rgb(42, 63, 95); fill-opacity: 1; white-space: pre;"></text></g></g><g class="annotation-arrow-g" style="opacity: 1;"><path d="M250.01,314.6834013605442L247.1,311.78" style="stroke-width: 1px; stroke: rgb(255, 0, 0); stroke-opacity: 1; stroke-dasharray: 0px, 0px, 2.5607px, 4.1107px;"/><path d="M-4.45,-3L-1.65,-0.2V0.2L-4.45,3L1.55,0Z" transform="translate(248.197265625,312.8747863769531)rotate(-135.06801049731712)" style="fill: rgb(255, 0, 0); stroke-width: 0;"/></g></g><g class="annotation" data-index="1" style="opacity: 1;"><g class="annotation-text-g" transform="rotate(0,251.51,316.18)"><g class="cursor-pointer" transform="translate(250,314)"><rect class="bg" x="0.5" y="0.5" width="3" height="3" style="stroke-width: 1px; stroke: rgb(0, 0, 0); stroke-opacity: 0; fill: rgb(0, 0, 0); fill-opacity: 0;"/><text class="annotation-text" text-anchor="middle" x="2" y="2" style="font-family: 'Open Sans', verdana, arial, sans-serif; font-size: 12px; fill: rgb(42, 63, 95); fill-opacity: 1; white-space: pre;"></text></g></g><g class="annotation-arrow-g" style="opacity: 1;"><path d="M253.00659863945577,317.68L255.91,320.59000000000003" style="stroke-width: 1px; stroke: rgb(255, 0, 0); stroke-opacity: 1; stroke-dasharray: 0px, 0px, 2.56071px, 4.11071px;"/><path d="M-4.45,-3L-1.65,-0.2V0.2L-4.45,3L1.55,0Z" transform="translate(254.8152313232422,319.49273681640625)rotate(45.0679958225014)" style="fill: rgb(255, 0, 0); stroke-width: 0;"/></g></g><g class="annotation" data-index="2" style="opacity: 1;"><g class="annotation-text-g" transform="rotate(0,369.4,177.95999999999998)"><g class="cursor-pointer" transform="translate(367,176)"><rect class="bg" x="0.5" y="0.5" width="3" height="3" style="stroke-width: 1px; stroke: rgb(0, 0, 0); stroke-opacity: 0; fill: rgb(0, 0, 0); fill-opacity: 0;"/><text class="annotation-text" text-anchor="middle" x="2" y="2" style="font-family: 'Open Sans', verdana, arial, sans-serif; font-size: 12px; fill: rgb(42, 63, 95); fill-opacity: 1; white-space: pre;"></text></g></g><g class="annotation-arrow-g" style="opacity: 1;"><path d="M367.9,176.45999999999998L354.83,163.39" style="stroke-width: 1px; stroke: rgb(255, 0, 0); stroke-opacity: 1; stroke-dasharray: 0px, 0px, 16.9338px, 18.4838px;"/><path d="M-4.45,-3L-1.65,-0.2V0.2L-4.45,3L1.55,0Z" transform="translate(355.9259948730469,164.4860076904297)rotate(-135)" style="fill: rgb(255, 0, 0); stroke-width: 0;"/></g></g><g class="annotation" data-index="3" style="opacity: 1;"><g class="annotation-text-g" transform="rotate(0,369.4,177.95999999999998)"><g class="cursor-pointer" transform="translate(367,176)"><rect class="bg" x="0.5" y="0.5" width="3" height="3" style="stroke-width: 1px; stroke: rgb(0, 0, 0); stroke-opacity: 0; fill: rgb(0, 0, 0); fill-opacity: 0;"/><text class="annotation-text" text-anchor="middle" x="2" y="2" style="font-family: 'Open Sans', verdana, arial, sans-serif; font-size: 12px; fill: rgb(42, 63, 95); fill-opacity: 1; white-space: pre;"></text></g></g><g class="annotation-arrow-g" style="opacity: 1;"><path d="M370.9,179.45999999999998L383.97,192.53" style="stroke-width: 1px; stroke: rgb(255, 0, 0); stroke-opacity: 1; stroke-dasharray: 0px, 0px, 16.9338px, 18.4838px;"/><path d="M-4.45,-3L-1.65,-0.2V0.2L-4.45,3L1.55,0Z" transform="translate(382.8739929199219,191.43399047851562)rotate(45)" style="fill: rgb(255, 0, 0); stroke-width: 0;"/></g></g><g class="annotation" data-index="4" style="opacity: 1;"><g class="annotation-text-g" transform="rotate(0,240.56,330.86)"><g class="cursor-pointer" transform="translate(239,329)"><rect class="bg" x="0.5" y="0.5" width="3" height="3" style="stroke-width: 1px; stroke: rgb(0, 0, 0); stroke-opacity: 0; fill: rgb(0, 0, 0); fill-opacity: 0;"/><text class="annotation-text" text-anchor="middle" x="2" y="2" style="font-family: 'Open Sans', verdana, arial, sans-serif; font-size: 12px; fill: rgb(42, 63, 95); fill-opacity: 1; white-space: pre;"></text></g></g><g class="annotation-arrow-g" style="opacity: 1;"><path d="M239.06000000000003,329.36L238.02,328.32" style="stroke-width: 1px; stroke: rgb(255, 0, 0); stroke-opacity: 1; stroke-dasharray: 0px, 100px;"/></g></g><g class="annotation" data-index="5" style="opacity: 1;"><g class="annotation-text-g" transform="rotate(0,240.56,330.86)"><g class="cursor-pointer" transform="translate(239,329)"><rect class="bg" x="0.5" y="0.5" width="3" height="3" style="stroke-width: 1px; stroke: rgb(0, 0, 0); stroke-opacity: 0; fill: rgb(0, 0, 0); fill-opacity: 0;"/><text class="annotation-text" text-anchor="middle" x="2" y="2" style="font-family: 'Open Sans', verdana, arial, sans-serif; font-size: 12px; fill: rgb(42, 63, 95); fill-opacity: 1; white-space: pre;"></text></g></g><g class="annotation-arrow-g" style="opacity: 1;"><path d="M242.06,332.36L243.1,333.4" style="stroke-width: 1px; stroke: rgb(255, 0, 0); stroke-opacity: 1; stroke-dasharray: 0px, 100px;"/></g></g><g class="annotation" data-index="6" style="opacity: 1;"><g class="annotation-text-g" transform="rotate(0,263.3,293.90999999999997)"><g class="cursor-pointer" transform="translate(261,292)"><rect class="bg" x="0.5" y="0.5" width="3" height="3" style="stroke-width: 1px; stroke: rgb(0, 0, 0); stroke-opacity: 0; fill: rgb(0, 0, 0); fill-opacity: 0;"/><text class="annotation-text" text-anchor="middle" x="2" y="2" style="font-family: 'Open Sans', verdana, arial, sans-serif; font-size: 12px; fill: rgb(42, 63, 95); fill-opacity: 1; white-space: pre;"></text></g></g><g class="annotation-arrow-g" style="opacity: 1;"><path d="M261.8,292.40999999999997L253.65,284.26" style="stroke-width: 1px; stroke: rgb(255, 0, 0); stroke-opacity: 1; stroke-dasharray: 0px, 0px, 9.97583px, 11.5258px;"/><path d="M-4.45,-3L-1.65,-0.2V0.2L-4.45,3L1.55,0Z" transform="translate(254.74600219726562,285.35601806640625)rotate(-135)" style="fill: rgb(255, 0, 0); stroke-width: 0;"/></g></g><g class="annotation" data-index="7" style="opacity: 1;"><g class="annotation-text-g" transform="rotate(0,263.3,293.90999999999997)"><g class="cursor-pointer" transform="translate(261,292)"><rect class="bg" x="0.5" y="0.5" width="3" height="3" style="stroke-width: 1px; stroke: rgb(0, 0, 0); stroke-opacity: 0; fill: rgb(0, 0, 0); fill-opacity: 0;"/><text class="annotation-text" text-anchor="middle" x="2" y="2" style="font-family: 'Open Sans', verdana, arial, sans-serif; font-size: 12px; fill: rgb(42, 63, 95); fill-opacity: 1; white-space: pre;"></text></g></g><g class="annotation-arrow-g" style="opacity: 1;"><path d="M264.7984455958549,295.40999999999997L272.94,303.56" style="stroke-width: 1px; stroke: rgb(255, 0, 0); stroke-opacity: 1; stroke-dasharray: 0px, 0px, 9.96988px, 11.5199px;"/><path d="M-4.45,-3L-1.65,-0.2V0.2L-4.45,3L1.55,0Z" transform="translate(271.84454345703125,302.4634094238281)rotate(45.024728431573386)" style="fill: rgb(255, 0, 0); stroke-width: 0;"/></g></g><g class="annotation" data-index="8" style="opacity: 1;"><g class="annotation-text-g" transform="rotate(0,256.53,297.78999999999996)"><g class="cursor-pointer" transform="translate(255,296)"><rect class="bg" x="0.5" y="0.5" width="3" height="3" style="stroke-width: 1px; stroke: rgb(0, 0, 0); stroke-opacity: 0; fill: rgb(0, 0, 0); fill-opacity: 0;"/><text class="annotation-text" text-anchor="middle" x="2" y="2" style="font-family: 'Open Sans', verdana, arial, sans-serif; font-size: 12px; fill: rgb(42, 63, 95); fill-opacity: 1; white-space: pre;"></text></g></g><g class="annotation-arrow-g" style="opacity: 1;"><path d="M255.03135256988276,296.28999999999996L245.45,286.7" style="stroke-width: 1px; stroke: rgb(255, 0, 0); stroke-opacity: 1; stroke-dasharray: 0px, 0px, 12.0062px, 13.5562px;"/><path d="M-4.45,-3L-1.65,-0.2V0.2L-4.45,3L1.55,0Z" transform="translate(246.54551696777344,287.7965087890625)rotate(-134.97527156842662)" style="fill: rgb(255, 0, 0); stroke-width: 0;"/></g></g><g class="annotation" data-index="9" style="opacity: 1;"><g class="annotation-text-g" transform="rotate(0,256.53,297.78999999999996)"><g class="cursor-pointer" transform="translate(255,296)"><rect class="bg" x="0.5" y="0.5" width="3" height="3" style="stroke-width: 1px; stroke: rgb(0, 0, 0); stroke-opacity: 0; fill: rgb(0, 0, 0); fill-opacity: 0;"/><text class="annotation-text" text-anchor="middle" x="2" y="2" style="font-family: 'Open Sans', verdana, arial, sans-serif; font-size: 12px; fill: rgb(42, 63, 95); fill-opacity: 1; white-space: pre;"></text></g></g><g class="annotation-arrow-g" style="opacity: 1;"><path d="M258.03,299.28999999999996L267.62,308.88" style="stroke-width: 1px; stroke: rgb(255, 0, 0); stroke-opacity: 1; stroke-dasharray: 0px, 0px, 12.0123px, 13.5623px;"/><path d="M-4.45,-3L-1.65,-0.2V0.2L-4.45,3L1.55,0Z" transform="translate(266.52398681640625,307.78399658203125)rotate(45)" style="fill: rgb(255, 0, 0); stroke-width: 0;"/></g></g><g class="annotation" data-index="10" style="opacity: 1;"><g class="annotation-text-g" transform="rotate(0,284.65999999999997,259.26)"><g class="cursor-pointer" transform="translate(283,257)"><rect class="bg" x="0.5" y="0.5" width="3" height="3" style="stroke-width: 1px; stroke: rgb(0, 0, 0); stroke-opacity: 0; fill: rgb(0, 0, 0); fill-opacity: 0;"/><text class="annotation-text" text-anchor="middle" x="2" y="2" style="font-family: 'Open Sans', verdana, arial, sans-serif; font-size: 12px; fill: rgb(42, 63, 95); fill-opacity: 1; white-space: pre;"></text></g></g><g class="annotation-arrow-g" style="opacity: 1;"><path d="M283.15999999999997,257.76L268.38,242.98" style="stroke-width: 1px; stroke: rgb(255, 0, 0); stroke-opacity: 1; stroke-dasharray: 0px, 0px, 19.3521px, 20.9021px;"/><path d="M-4.45,-3L-1.65,-0.2V0.2L-4.45,3L1.55,0Z" transform="translate(269.47601318359375,244.0760040283203)rotate(-135)" style="fill: rgb(255, 0, 0); stroke-width: 0;"/></g></g><g class="annotation" data-index="11" style="opacity: 1;"><g class="annotation-text-g" transform="rotate(0,284.65999999999997,259.26)"><g class="cursor-pointer" transform="translate(283,257)"><rect class="bg" x="0.5" y="0.5" width="3" height="3" style="stroke-width: 1px; stroke: rgb(0, 0, 0); stroke-opacity: 0; fill: rgb(0, 0, 0); fill-opacity: 0;"/><text class="annotation-text" text-anchor="middle" x="2" y="2" style="font-family: 'Open Sans', verdana, arial, sans-serif; font-size: 12px; fill: rgb(42, 63, 95); fill-opacity: 1; white-space: pre;"></text></g></g><g class="annotation-arrow-g" style="opacity: 1;"><path d="M286.15999999999997,260.76L300.95,275.55" style="stroke-width: 1px; stroke: rgb(255, 0, 0); stroke-opacity: 1; stroke-dasharray: 0px, 0px, 19.3662px, 20.9162px;"/><path d="M-4.45,-3L-1.65,-0.2V0.2L-4.45,3L1.55,0Z" transform="translate(299.85400390625,274.4539794921875)rotate(45)" style="fill: rgb(255, 0, 0); stroke-width: 0;"/></g></g><g class="annotation" data-index="12" style="opacity: 1;"><g class="annotation-text-g" transform="rotate(0,316.95,247.27)"><g class="cursor-pointer" transform="translate(315,245)"><rect class="bg" x="0.5" y="0.5" width="3" height="3" style="stroke-width: 1px; stroke: rgb(0, 0, 0); stroke-opacity: 0; fill: rgb(0, 0, 0); fill-opacity: 0;"/><text class="annotation-text" text-anchor="middle" x="2" y="2" style="font-family: 'Open Sans', verdana, arial, sans-serif; font-size: 12px; fill: rgb(42, 63, 95); fill-opacity: 1; white-space: pre;"></text></g></g><g class="annotation-arrow-g" style="opacity: 1;"><path d="M315.45,245.77L310.81,241.13" style="stroke-width: 1px; stroke: rgb(255, 0, 0); stroke-opacity: 1; stroke-dasharray: 0px, 0px, 5.01196px, 6.56196px;"/><path d="M-4.45,-3L-1.65,-0.2V0.2L-4.45,3L1.55,0Z" transform="translate(311.906005859375,242.22601318359375)rotate(-135)" style="fill: rgb(255, 0, 0); stroke-width: 0;"/></g></g><g class="annotation" data-index="13" style="opacity: 1;"><g class="annotation-text-g" transform="rotate(0,316.95,247.27)"><g class="cursor-pointer" transform="translate(315,245)"><rect class="bg" x="0.5" y="0.5" width="3" height="3" style="stroke-width: 1px; stroke: rgb(0, 0, 0); stroke-opacity: 0; fill: rgb(0, 0, 0); fill-opacity: 0;"/><text class="annotation-text" text-anchor="middle" x="2" y="2" style="font-family: 'Open Sans', verdana, arial, sans-serif; font-size: 12px; fill: rgb(42, 63, 95); fill-opacity: 1; white-space: pre;"></text></g></g><g class="annotation-arrow-g" style="opacity: 1;"><path d="M318.45,248.77L323.09000000000003,253.41" style="stroke-width: 1px; stroke: rgb(255, 0, 0); stroke-opacity: 1; stroke-dasharray: 0px, 0px, 5.01194px, 6.56194px;"/><path d="M-4.45,-3L-1.65,-0.2V0.2L-4.45,3L1.55,0Z" transform="translate(321.9939880371094,252.31398010253906)rotate(45)" style="fill: rgb(255, 0, 0); stroke-width: 0;"/></g></g></g></svg>