<svg class="main-svg" xmlns="http://www.w3.org/2000/svg" xmlns:xlink="http://www.w3.org/1999/xlink" width="700" height="500" style="" viewBox="0 0 700 500"><rect x="0" y="0" width="700" height="500" style="fill: rgb(255, 255, 255); fill-opacity: 1;"/><defs id="defs-ea77ca"><g class="clips"><clipPath id="clipea77caxyplot" class="plotclip"><rect width="473" height="320"/></clipPath><clipPath class="axesclip" id="clipea77cax"><rect x="80" y="0" width="473" height="500"/></clipPath><clipPath class="axesclip" id="clipea77cay"><rect x="0" y="100" width="700" height="320"/></clipPath><clipPath class="axesclip" id="clipea77caxy"><rect x="80" y="100" width="473" height="320"/></clipPath></g><g class="gradients"/><g class="patterns"/></defs><g class="bglayer"/><g class="layer-below"><g class="imagelayer"/><g class="shapelayer"/></g><g class="cartesianlayer"><g class="subplot xy"><g class="layer-subplot"><g class="shapelayer"/><g class="imagelayer"/></g><g class="minor-gridlayer"><g class="x"/><g class="y"/></g><g class="gridlayer"><g class="x"><path class="xgrid crisp" transform="translate(86.1,0)" d="M0,100v320" style="stroke: rgb(0, 0, 0); stroke-opacity: 1; stroke-width: 1px;"/><path class="xgrid crisp" transform="translate(374.1,0)" d="M0,100v320" style="stroke: rgb(0, 0, 0); stroke-opacity: 1; stroke-width: 1px;"/><path class="xgrid crisp" transform="translate(518.1,0)" d="M0,100v320" style="stroke: rgb(0, 0, 0); stroke-opacity: 1; stroke-width: 1px;"/></g><g class="y"><path class="ygrid crisp" transform="translate(0,404)" d="M80,0h473" style="stroke: rgb(0, 0, 0); stroke-opacity: 1; stroke-width: 1px;"/><path class="ygrid crisp" transform="translate(0,288.8)" d="M80,0h473" style="stroke: rgb(0, 0, 0); stroke-opacity: 1; stroke-width: 1px;"/><path class="ygrid crisp" transform="translate(0,231.2)" d="M80,0h473" style="stroke: rgb(0, 0, 0); stroke-opacity: 1; stroke-width: 1px;"/><path class="ygrid crisp" transform="translate(0,173.6)" d="M80,0h473" style="stroke: rgb(0, 0, 0); stroke-opacity: 1; stroke-width: 1px;"/><path class="ygrid crisp" transform="translate(0,116)" d="M80,0h473" style="stroke: rgb(0, 0, 0); stroke-opacity: 1; stroke-width: 1px;"/></g></g><g class="zerolinelayer"><path class="xzl zl crisp" transform="translate(230.1,0)" d="M0,100v320" style="stroke: rgb(0, 0, 0); stroke-opacity: 1; stroke-width: 2px;"/><path class="yzl zl crisp" transform="translate(0,346.4)" d="M80,0h473" style="stroke: rgb(0, 0, 0); stroke-opacity: 1; stroke-width: 2px;"/></g><path class="xlines-below"/><path class="ylines-below"/><g class="overlines-below"/><g class="xaxislayer-below"/><g class="yaxislayer-below"/><g class="overaxes-below"/><g class="plot" transform="translate(80,100)" clip-path="url(#clipea77caxyplot)"><g class="scatterlayer mlayer"><g class="trace scatter tracef017f2" style="stroke-miterlimit: 2; opacity: 1;"><g class="fills"/><g class="errorbars"/><g class="lines"/><g class="points"><path class="point" transform="translate(178.45,211)" d="M6.5,0L0,6.5L-6.5,0L0,-6.5ZM-3.25,-3.25L3.25,3.25M-3.25,3.25L3.25,-3.25" style="opacity: 1; stroke-width: 0px; fill: rgb(27, 158, 119); fill-opacity: 1;"/></g><g class="text"/></g><g class="trace scatter trace598288" style="stroke-miterlimit: 2; opacity: 1;"><g class="fills"/><g class="errorbars"/><g class="lines"/><g class="points"><path class="point" transform="translate(305.29,68.67)" d="M6.5,0L0,6.5L-6.5,0L0,-6.5ZM-3.25,-3.25L3.25,3.25M-3.25,3.25L3.25,-3.25" style="opacity: 1; stroke-width: 0px; fill: rgb(217, 95, 2); fill-opacity: 1;"/></g><g class="text"/></g><g class="trace scatter traceb73204" style="stroke-miterlimit: 2; opacity: 1;"><g class="fills"/><g class="errorbars"/><g class="lines"/><g class="points"><path class="point" transform="translate(161.47,237.27)" d="M6.5,0L0,6.5L-6.5,0L0,-6.5ZM-3.25,-3.25L3.25,3.25M-3.25,3.25L3.25,-3.25" style="opacity: 1; stroke-width: 0px; fill: rgb(117, 112, 179); fill-opacity: 1;"/></g><g class="text"/></g><g class="trace scatter traceb43c68" style="stroke-miterlimit: 2; opacity: 1;"><g class="fills"/><g class="errorbars"/><g class="lines"/><g class="points"><path class="point" transform="translate(186.13,196.98)" d="M6.5,0L0,6.5L-6.5,0L0,-6.5ZM-3.25,-3.25L3.25,3.25M-3.25,3.25L3.25,-3.25" style="opacity: 1; stroke-width: 0px; fill: rgb(230, 171, 2); fill-opacity: 1;"/></g><g class="text"/></g><g class="trace scatter tracecac750" style="stroke-miterlimit: 2; opacity: 1;"><g class="fills"/><g class="errorbars"/><g class="lines"/><g class="points"><path class="point" transform="translate(180.9,196.8)" d="M6.5,0L0,6.5L-6.5,0L0,-6.5ZM-3.25,-3.25L3.25,3.25M-3.25,3.25L3.25,-3.25" style="opacity: 1; stroke-width: 0px; fill: rgb(231, 41, 138); fill-opacity: 1;"/></g><g class="text"/></g><g class="trace scatter trace1aa7b7" style="stroke-miterlimit: 2; opacity: 1;"><g class="fills"/><g class="errorbars"/><g class="lines"/><g class="points"><path class="point" transform="translate(207.96,156.67)" d="M6.5,0L0,6.5L-6.5,0L0,-6.5ZM-3.25,-3.25L3.25,3.25M-3.25,3.25L3.25,-3.25" style="opacity: 1; stroke-width: 0px; fill: rgb(166, 118, 29); fill-opacity: 1;"/></g><g class="text"/></g><g class="trace scatter trace44db2c" style="stroke-miterlimit: 2; opacity: 1;"><g class="fills"/><g class="errorbars"/><g class="lines"/><g class="points"><path class="point" transform="translate(245.88,145.21)" d="M6.5,0L0,6.5L-6.5,0L0,-6.5ZM-3.25,-3.25L3.25,3.25M-3.25,3.25L3.25,-3.25" style="opacity: 1; stroke-width: 0px; fill: rgb(102, 102, 102); fill-opacity: 1;"/></g><g class="text"/></g><g class="trace scatter tracecdbc11" style="stroke-miterlimit: 2;"><g class="fills"><g><path class="js-fill" d="M121.3,246.4L351.7,16L351.7,73.6L121.3,304Z" style="fill: rgb(128, 128, 128); fill-opacity: 0.5; stroke-width: 0;"/></g></g><g class="errorbars"/><g class="lines"><path class="js-line" d="M121.3,304L351.7,73.6" style="vector-effect: non-scaling-stroke; fill: none; stroke: rgb(128, 128, 128); stroke-opacity: 1; stroke-width: 2px; opacity: 1;"/></g><g class="points"/><g class="text"/></g><g class="trace scatter traced24109" style="stroke-miterlimit: 2;"><g class="fills"/><g class="errorbars"/><g class="lines"><path class="js-line" d="M121.3,246.4L351.7,16" style="vector-effect: non-scaling-stroke; fill: none; stroke: rgb(128, 128, 128); stroke-opacity: 1; stroke-width: 2px; opacity: 1;"/></g><g class="points"/><g class="text"/></g></g></g><g class="overplot"/><path class="xlines-above crisp" d="M0,0" style="fill: none;"/><path class="ylines-above crisp" d="M0,0" style="fill: none;"/><g class="overlines-above"/><g class="xaxislayer-above"><g class="xtick"><text text-anchor="middle" x="0" y="433" transform="translate(86.1,0)" style="font-family: 'Open Sans', verdana, arial, sans-serif; font-size: 12px; fill: rgb(42, 63, 95); fill-opacity: 1; white-space: pre; opacity: 1;">−5</text></g><g class="xtick"><text text-anchor="middle" x="0" y="433" style="font-family: 'Open Sans', verdana, arial, sans-serif; font-size: 12px; fill: rgb(42, 63, 95); fill-opacity: 1; white-space: pre; opacity: 1;" transform="translate(230.1,0)">0</text></g><g class="xtick"><text text-anchor="middle" x="0" y="433" style="font-family: 'Open Sans', verdana, arial, sans-serif; font-size: 12px; fill: rgb(42, 63, 95); fill-opacity: 1; white-space: pre; opacity: 1;" transform="translate(374.1,0)">5</text></g><g class="xtick"><text text-anchor="middle" x="0" y="433" style="font-family: 'Open Sans', verdana, arial, sans-serif; font-size: 12px; fill: rgb(42, 63, 95); fill-opacity: 1; white-space: pre; opacity: 1;" transform="translate(518.1,0)">10</text></g></g><g class="yaxislayer-above"><g class="ytick"><text text-anchor="end" x="79" y="4.199999999999999" transform="translate(0,404)" style="font-family: 'Open Sans', verdana, arial, sans-serif; font-size: 12px; fill: rgb(42, 63, 95); fill-opacity: 1; white-space: pre; opacity: 1;">−2</text></g><g class="ytick"><text text-anchor="end" x="79" y="4.199999999999999" style="font-family: 'Open Sans', verdana, arial, sans-serif; font-size: 12px; fill: rgb(42, 63, 95); fill-opacity: 1; white-space: pre; opacity: 1;" transform="translate(0,346.4)">0</text></g><g class="ytick"><text text-anchor="end" x="79" y="4.199999999999999" style="font-family: 'Open Sans', verdana, arial, sans-serif; font-size: 12px; fill: rgb(42, 63, 95); fill-opacity: 1; white-space: pre; opacity: 1;" transform="translate(0,288.8)">2</text></g><g class="ytick"><text text-anchor="end" x="79" y="4.199999999999999" style="font-family: 'Open Sans', verdana, arial, sans-serif; font-size: 12px; fill: rgb(42, 63, 95); fill-opacity: 1; white-space: pre; opacity: 1;" transform="translate(0,231.2)">4</text></g><g class="ytick"><text text-anchor="end" x="79" y="4.199999999999999" style="font-family: 'Open Sans', verdana, arial, sans-serif; font-size: 12px; fill: rgb(42, 63, 95); fill-opacity: 1; white-space: pre; opacity: 1;" transform="translate(0,173.6)">6</text></g><g class="ytick"><text text-anchor="end" x="79" y="4.199999999999999" style="font-family: 'Open Sans', verdana, arial, sans-serif; font-size: 12px; fill: rgb(42, 63, 95); fill-opacity: 1; white-space: pre; opacity: 1;" transform="translate(0,116)">8</text></g></g><g class="overaxes-above"/></g></g><g class="polarlayer"/><g class="smithlayer"/><g class="ternarylayer"/><g class="geolayer"/><g class="funnelarealayer"/><g class="pielayer"/><g class="iciclelayer"/><g class="treemaplayer"/><g class="sunburstlayer"/><g class="glimages"/><defs id="topdefs-ea77ca"><g class="clips"/><clipPath id="legendea77ca"><rect width="126" height="162" x="0" y="0"/></clipPath></defs><g class="layer-above"><g class="imagelayer"/><g class="shapelayer"/></g><g class="infolayer"><g class="legend" pointer-events="all" transform="translate(562.46,100)"><rect class="bg" shape-rendering="crispEdges" style="stroke: rgb(68, 68, 68); stroke-opacity: 1; fill: rgb(255, 255, 255); fill-opacity: 1; stroke-width: 0px;" width="126" height="162" x="0" y="0"/><g class="scrollbox" transform="" clip-path="url(#legendea77ca)"><g class="groups"><g class="traces" transform="translate(0,14.5)" style="opacity: 1;"><text class="legendtext" text-anchor="start" x="40" y="4.680000000000001" style="font-family: 'Open Sans', verdana, arial, sans-serif; font-size: 12px; fill: rgb(42, 63, 95); fill-opacity: 1; white-space: pre;">eps=1.0</text><g class="layers"><g class="legendfill"><path class="js-fill" d="M5,-2h30v6h-30z" style="stroke-width: 0; fill: rgb(128, 128, 128); fill-opacity: 0.5;"/></g><g class="legendlines"><path class="js-line" d="M5,-2h30" style="fill: none; stroke: rgb(128, 128, 128); stroke-opacity: 1; stroke-width: 2px;"/></g><g class="legendsymbols"><g class="legendpoints"/></g></g><rect class="legendtoggle" x="0" y="-9.5" width="120.734375" height="19" style="fill: rgb(0, 0, 0); fill-opacity: 0;"/></g><g class="traces" transform="translate(0,33.5)" style="opacity: 1;"><text class="legendtext" text-anchor="start" x="40" y="4.680000000000001" style="font-family: 'Open Sans', verdana, arial, sans-serif; font-size: 12px; fill: rgb(42, 63, 95); fill-opacity: 1; white-space: pre;">none</text><g class="layers" style="opacity: 1;"><g class="legendfill"/><g class="legendlines"/><g class="legendsymbols"><g class="legendpoints"><path class="scatterpts" transform="translate(20,0)" d="M6.5,0L0,6.5L-6.5,0L0,-6.5ZM-3.25,-3.25L3.25,3.25M-3.25,3.25L3.25,-3.25" style="opacity: 1; stroke-width: 0px; fill: rgb(102, 102, 102); fill-opacity: 1;"/></g></g></g><rect class="legendtoggle" x="0" y="-9.5" width="120.734375" height="19" style="fill: rgb(0, 0, 0); fill-opacity: 0;"/></g><g class="traces" transform="translate(0,52.5)" style="opacity: 1;"><text class="legendtext" text-anchor="start" x="40" y="4.680000000000001" style="font-family: 'Open Sans', verdana, arial, sans-serif; font-size: 12px; fill: rgb(42, 63, 95); fill-opacity: 1; white-space: pre;">previous token</text><g class="layers" style="opacity: 1;"><g class="legendfill"/><g class="legendlines"/><g class="legendsymbols"><g class="legendpoints"><path class="scatterpts" transform="translate(20,0)" d="M6.5,0L0,6.5L-6.5,0L0,-6.5ZM-3.25,-3.25L3.25,3.25M-3.25,3.25L3.25,-3.25" style="opacity: 1; stroke-width: 0px; fill: rgb(166, 118, 29); fill-opacity: 1;"/></g></g></g><rect class="legendtoggle" x="0" y="-9.5" width="120.734375" height="19" style="fill: rgb(0, 0, 0); fill-opacity: 0;"/></g><g class="traces" transform="translate(0,71.5)" style="opacity: 1;"><text class="legendtext" text-anchor="start" x="40" y="4.680000000000001" style="font-family: 'Open Sans', verdana, arial, sans-serif; font-size: 12px; fill: rgb(42, 63, 95); fill-opacity: 1; white-space: pre;">duplicate token</text><g class="layers" style="opacity: 1;"><g class="legendfill"/><g class="legendlines"/><g class="legendsymbols"><g class="legendpoints"><path class="scatterpts" transform="translate(20,0)" d="M6.5,0L0,6.5L-6.5,0L0,-6.5ZM-3.25,-3.25L3.25,3.25M-3.25,3.25L3.25,-3.25" style="opacity: 1; stroke-width: 0px; fill: rgb(231, 41, 138); fill-opacity: 1;"/></g></g></g><rect class="legendtoggle" x="0" y="-9.5" width="120.734375" height="19" style="fill: rgb(0, 0, 0); fill-opacity: 0;"/></g><g class="traces" transform="translate(0,90.5)" style="opacity: 1;"><text class="legendtext" text-anchor="start" x="40" y="4.680000000000001" style="font-family: 'Open Sans', verdana, arial, sans-serif; font-size: 12px; fill: rgb(42, 63, 95); fill-opacity: 1; white-space: pre;">induction</text><g class="layers" style="opacity: 1;"><g class="legendfill"/><g class="legendlines"/><g class="legendsymbols"><g class="legendpoints"><path class="scatterpts" transform="translate(20,0)" d="M6.5,0L0,6.5L-6.5,0L0,-6.5ZM-3.25,-3.25L3.25,3.25M-3.25,3.25L3.25,-3.25" style="opacity: 1; stroke-width: 0px; fill: rgb(230, 171, 2); fill-opacity: 1;"/></g></g></g><rect class="legendtoggle" x="0" y="-9.5" width="120.734375" height="19" style="fill: rgb(0, 0, 0); fill-opacity: 0;"/></g><g class="traces" transform="translate(0,109.5)" style="opacity: 1;"><text class="legendtext" text-anchor="start" x="40" y="4.680000000000001" style="font-family: 'Open Sans', verdana, arial, sans-serif; font-size: 12px; fill: rgb(42, 63, 95); fill-opacity: 1; white-space: pre;">s2 inhibition</text><g class="layers" style="opacity: 1;"><g class="legendfill"/><g class="legendlines"/><g class="legendsymbols"><g class="legendpoints"><path class="scatterpts" transform="translate(20,0)" d="M6.5,0L0,6.5L-6.5,0L0,-6.5ZM-3.25,-3.25L3.25,3.25M-3.25,3.25L3.25,-3.25" style="opacity: 1; stroke-width: 0px; fill: rgb(117, 112, 179); fill-opacity: 1;"/></g></g></g><rect class="legendtoggle" x="0" y="-9.5" width="120.734375" height="19" style="fill: rgb(0, 0, 0); fill-opacity: 0;"/></g><g class="traces" transform="translate(0,128.5)" style="opacity: 1;"><text class="legendtext" text-anchor="start" x="40" y="4.680000000000001" style="font-family: 'Open Sans', verdana, arial, sans-serif; font-size: 12px; fill: rgb(42, 63, 95); fill-opacity: 1; white-space: pre;">negative</text><g class="layers" style="opacity: 1;"><g class="legendfill"/><g class="legendlines"/><g class="legendsymbols"><g class="legendpoints"><path class="scatterpts" transform="translate(20,0)" d="M6.5,0L0,6.5L-6.5,0L0,-6.5ZM-3.25,-3.25L3.25,3.25M-3.25,3.25L3.25,-3.25" style="opacity: 1; stroke-width: 0px; fill: rgb(217, 95, 2); fill-opacity: 1;"/></g></g></g><rect class="legendtoggle" x="0" y="-9.5" width="120.734375" height="19" style="fill: rgb(0, 0, 0); fill-opacity: 0;"/></g><g class="traces" transform="translate(0,147.5)" style="opacity: 1;"><text class="legendtext" text-anchor="start" x="40" y="4.680000000000001" style="font-family: 'Open Sans', verdana, arial, sans-serif; font-size: 12px; fill: rgb(42, 63, 95); fill-opacity: 1; white-space: pre;">name mover</text><g class="layers" style="opacity: 1;"><g class="legendfill"/><g class="legendlines"/><g class="legendsymbols"><g class="legendpoints"><path class="scatterpts" transform="translate(20,0)" d="M6.5,0L0,6.5L-6.5,0L0,-6.5ZM-3.25,-3.25L3.25,3.25M-3.25,3.25L3.25,-3.25" style="opacity: 1; stroke-width: 0px; fill: rgb(27, 158, 119); fill-opacity: 1;"/></g></g></g><rect class="legendtoggle" x="0" y="-9.5" width="120.734375" height="19" style="fill: rgb(0, 0, 0); fill-opacity: 0;"/></g></g></g><rect class="scrollbar" rx="20" ry="3" width="0" height="0" style="fill: rgb(128, 139, 164); fill-opacity: 1;" x="0" y="0"/></g><g class="g-gtitle"/><g class="g-xtitle"><text class="xtitle" x="316.5" y="460.8" text-anchor="middle" style="font-family: 'Open Sans', verdana, arial, sans-serif; font-size: 14px; fill: rgb(42, 63, 95); opacity: 1; font-weight: normal; white-space: pre;">Broken Circuit</text></g><g class="g-ytitle"><text class="ytitle" transform="rotate(-90,40.5125,260)" x="40.5125" y="260" text-anchor="middle" style="font-family: 'Open Sans', verdana, arial, sans-serif; font-size: 14px; fill: rgb(42, 63, 95); opacity: 1; font-weight: normal; white-space: pre;">Cobbled Circuit</text></g><g class="annotation" data-index="0" style="opacity: 1;"><g class="annotation-text-g" transform="rotate(0,258.45,311)"><g class="cursor-pointer" transform="translate(256,309)"><rect class="bg" x="0.5" y="0.5" width="3" height="3" style="stroke-width: 1px; stroke: rgb(0, 0, 0); stroke-opacity: 0; fill: rgb(0, 0, 0); fill-opacity: 0;"/><text class="annotation-text" text-anchor="middle" x="2" y="2" style="font-family: 'Open Sans', verdana, arial, sans-serif; font-size: 12px; fill: rgb(42, 63, 95); fill-opacity: 1; white-space: pre;"></text></g></g><g class="annotation-arrow-g" style="opacity: 1;"><path d="M256.95,309.5L254.93,307.48" style="stroke-width: 1px; stroke: rgb(255, 0, 0); stroke-opacity: 1; stroke-dasharray: 0px, 0px, 1.30672px, 2.85672px;"/><path d="M-4.45,-3L-1.65,-0.2V0.2L-4.45,3L1.55,0Z" transform="translate(256.0260314941406,308.5760192871094)rotate(-135)" style="fill: rgb(255, 0, 0); stroke-width: 0;"/></g></g><g class="annotation" data-index="1" style="opacity: 1;"><g class="annotation-text-g" transform="rotate(0,258.45,311)"><g class="cursor-pointer" transform="translate(256,309)"><rect class="bg" x="0.5" y="0.5" width="3" height="3" style="stroke-width: 1px; stroke: rgb(0, 0, 0); stroke-opacity: 0; fill: rgb(0, 0, 0); fill-opacity: 0;"/><text class="annotation-text" text-anchor="middle" x="2" y="2" style="font-family: 'Open Sans', verdana, arial, sans-serif; font-size: 12px; fill: rgb(42, 63, 95); fill-opacity: 1; white-space: pre;"></text></g></g><g class="annotation-arrow-g" style="opacity: 1;"><path d="M259.9457507082153,312.5L261.97,314.53" style="stroke-width: 1px; stroke: rgb(255, 0, 0); stroke-opacity: 1; stroke-dasharray: 0px, 0px, 1.3168px, 2.8668px;"/><path d="M-4.45,-3L-1.65,-0.2V0.2L-4.45,3L1.55,0Z" transform="translate(260.87554931640625,313.43243408203125)rotate(45.07418525787047)" style="fill: rgb(255, 0, 0); stroke-width: 0;"/></g></g><g class="annotation" data-index="2" style="opacity: 1;"><g class="annotation-text-g" transform="rotate(0,385.29,168.67000000000002)"><g class="cursor-pointer" transform="translate(383,167)"><rect class="bg" x="0.5" y="0.5" width="3" height="3" style="stroke-width: 1px; stroke: rgb(0, 0, 0); stroke-opacity: 0; fill: rgb(0, 0, 0); fill-opacity: 0;"/><text class="annotation-text" text-anchor="middle" x="2" y="2" style="font-family: 'Open Sans', verdana, arial, sans-serif; font-size: 12px; fill: rgb(42, 63, 95); fill-opacity: 1; white-space: pre;"></text></g></g><g class="annotation-arrow-g" style="opacity: 1;"><path d="M383.79,167.17000000000002L374.02,157.4" style="stroke-width: 1px; stroke: rgb(255, 0, 0); stroke-opacity: 1; stroke-dasharray: 0px, 0px, 12.2669px, 13.8169px;"/><path d="M-4.45,-3L-1.65,-0.2V0.2L-4.45,3L1.55,0Z" transform="translate(375.1159973144531,158.49600219726562)rotate(-135)" style="fill: rgb(255, 0, 0); stroke-width: 0;"/></g></g><g class="annotation" data-index="3" style="opacity: 1;"><g class="annotation-text-g" transform="rotate(0,385.29,168.67000000000002)"><g class="cursor-pointer" transform="translate(383,167)"><rect class="bg" x="0.5" y="0.5" width="3" height="3" style="stroke-width: 1px; stroke: rgb(0, 0, 0); stroke-opacity: 0; fill: rgb(0, 0, 0); fill-opacity: 0;"/><text class="annotation-text" text-anchor="middle" x="2" y="2" style="font-family: 'Open Sans', verdana, arial, sans-serif; font-size: 12px; fill: rgb(42, 63, 95); fill-opacity: 1; white-space: pre;"></text></g></g><g class="annotation-arrow-g" style="opacity: 1;"><path d="M386.79,170.17000000000002L396.56,179.94" style="stroke-width: 1px; stroke: rgb(255, 0, 0); stroke-opacity: 1; stroke-dasharray: 0px, 0px, 12.2669px, 13.8169px;"/><path d="M-4.45,-3L-1.65,-0.2V0.2L-4.45,3L1.55,0Z" transform="translate(395.4639892578125,178.84397888183594)rotate(45)" style="fill: rgb(255, 0, 0); stroke-width: 0;"/></g></g><g class="annotation" data-index="4" style="opacity: 1;"><g class="annotation-text-g" transform="rotate(0,241.47,337.27)"><g class="cursor-pointer" transform="translate(239,335)"><rect class="bg" x="0.5" y="0.5" width="3" height="3" style="stroke-width: 1px; stroke: rgb(0, 0, 0); stroke-opacity: 0; fill: rgb(0, 0, 0); fill-opacity: 0;"/><text class="annotation-text" text-anchor="middle" x="2" y="2" style="font-family: 'Open Sans', verdana, arial, sans-serif; font-size: 12px; fill: rgb(42, 63, 95); fill-opacity: 1; white-space: pre;"></text></g></g><g class="annotation-arrow-g" style="opacity: 1;"><path d="M241.47,337.27L242.59,338.39" style="stroke-width: 1px; stroke: rgb(255, 0, 0); stroke-opacity: 1; stroke-dasharray: 0px, 0px, 0.0339338px, 1.58393px;"/><path d="M-4.45,-3L-1.65,-0.2V0.2L-4.45,3L1.55,0Z" transform="translate(241.49400329589844,337.2939758300781)rotate(45)" style="fill: rgb(255, 0, 0); stroke-width: 0;"/></g></g><g class="annotation" data-index="5" style="opacity: 1;"><g class="annotation-text-g" transform="rotate(0,241.47,337.27)"><g class="cursor-pointer" transform="translate(239,335)"><rect class="bg" x="0.5" y="0.5" width="3" height="3" style="stroke-width: 1px; stroke: rgb(0, 0, 0); stroke-opacity: 0; fill: rgb(0, 0, 0); fill-opacity: 0;"/><text class="annotation-text" text-anchor="middle" x="2" y="2" style="font-family: 'Open Sans', verdana, arial, sans-serif; font-size: 12px; fill: rgb(42, 63, 95); fill-opacity: 1; white-space: pre;"></text></g></g><g class="annotation-arrow-g" style="opacity: 1;"><path d="M241.47,337.27L240.35,336.15" style="stroke-width: 1px; stroke: rgb(255, 0, 0); stroke-opacity: 1; stroke-dasharray: 0px, 0px, 0.0339123px, 1.58391px;"/><path d="M-4.45,-3L-1.65,-0.2V0.2L-4.45,3L1.55,0Z" transform="translate(241.44601440429688,337.2460021972656)rotate(-135)" style="fill: rgb(255, 0, 0); stroke-width: 0;"/></g></g><g class="annotation" data-index="6" style="opacity: 1;"><g class="annotation-text-g" transform="rotate(0,266.13,296.98)"><g class="cursor-pointer" transform="translate(264,295)"><rect class="bg" x="0.5" y="0.5" width="3" height="3" style="stroke-width: 1px; stroke: rgb(0, 0, 0); stroke-opacity: 0; fill: rgb(0, 0, 0); fill-opacity: 0;"/><text class="annotation-text" text-anchor="middle" x="2" y="2" style="font-family: 'Open Sans', verdana, arial, sans-serif; font-size: 12px; fill: rgb(42, 63, 95); fill-opacity: 1; white-space: pre;"></text></g></g><g class="annotation-arrow-g" style="opacity: 1;"><path d="M264.63,295.48L259.43,290.28" style="stroke-width: 1px; stroke: rgb(255, 0, 0); stroke-opacity: 1; stroke-dasharray: 0px, 0px, 5.80393px, 7.35393px;"/><path d="M-4.45,-3L-1.65,-0.2V0.2L-4.45,3L1.55,0Z" transform="translate(260.5260009765625,291.3760070800781)rotate(-135)" style="fill: rgb(255, 0, 0); stroke-width: 0;"/></g></g><g class="annotation" data-index="7" style="opacity: 1;"><g class="annotation-text-g" transform="rotate(0,266.13,296.98)"><g class="cursor-pointer" transform="translate(264,295)"><rect class="bg" x="0.5" y="0.5" width="3" height="3" style="stroke-width: 1px; stroke: rgb(0, 0, 0); stroke-opacity: 0; fill: rgb(0, 0, 0); fill-opacity: 0;"/><text class="annotation-text" text-anchor="middle" x="2" y="2" style="font-family: 'Open Sans', verdana, arial, sans-serif; font-size: 12px; fill: rgb(42, 63, 95); fill-opacity: 1; white-space: pre;"></text></g></g><g class="annotation-arrow-g" style="opacity: 1;"><path d="M267.62776119402986,298.48L272.82,303.68" style="stroke-width: 1px; stroke: rgb(255, 0, 0); stroke-opacity: 1; stroke-dasharray: 0px, 0px, 5.79843px, 7.34843px;"/><path d="M-4.45,-3L-1.65,-0.2V0.2L-4.45,3L1.55,0Z" transform="translate(271.72479248046875,302.5831604003906)rotate(45.049456853934345)" style="fill: rgb(255, 0, 0); stroke-width: 0;"/></g></g><g class="annotation" data-index="8" style="opacity: 1;"><g class="annotation-text-g" transform="rotate(0,260.9,296.8)"><g class="cursor-pointer" transform="translate(259,295)"><rect class="bg" x="0.5" y="0.5" width="3" height="3" style="stroke-width: 1px; stroke: rgb(0, 0, 0); stroke-opacity: 0; fill: rgb(0, 0, 0); fill-opacity: 0;"/><text class="annotation-text" text-anchor="middle" x="2" y="2" style="font-family: 'Open Sans', verdana, arial, sans-serif; font-size: 12px; fill: rgb(42, 63, 95); fill-opacity: 1; white-space: pre;"></text></g></g><g class="annotation-arrow-g" style="opacity: 1;"><path d="M259.4,295.3L251.5,287.4" style="stroke-width: 1px; stroke: rgb(255, 0, 0); stroke-opacity: 1; stroke-dasharray: 0px, 0px, 9.62228px, 11.1723px;"/><path d="M-4.45,-3L-1.65,-0.2V0.2L-4.45,3L1.55,0Z" transform="translate(252.59600830078125,288.4960021972656)rotate(-135)" style="fill: rgb(255, 0, 0); stroke-width: 0;"/></g></g><g class="annotation" data-index="9" style="opacity: 1;"><g class="annotation-text-g" transform="rotate(0,260.9,296.8)"><g class="cursor-pointer" transform="translate(259,295)"><rect class="bg" x="0.5" y="0.5" width="3" height="3" style="stroke-width: 1px; stroke: rgb(0, 0, 0); stroke-opacity: 0; fill: rgb(0, 0, 0); fill-opacity: 0;"/><text class="annotation-text" text-anchor="middle" x="2" y="2" style="font-family: 'Open Sans', verdana, arial, sans-serif; font-size: 12px; fill: rgb(42, 63, 95); fill-opacity: 1; white-space: pre;"></text></g></g><g class="annotation-arrow-g" style="opacity: 1;"><path d="M262.4,298.3L270.3,306.2" style="stroke-width: 1px; stroke: rgb(255, 0, 0); stroke-opacity: 1; stroke-dasharray: 0px, 0px, 9.6223px, 11.1723px;"/><path d="M-4.45,-3L-1.65,-0.2V0.2L-4.45,3L1.55,0Z" transform="translate(269.2039794921875,305.10400390625)rotate(45)" style="fill: rgb(255, 0, 0); stroke-width: 0;"/></g></g><g class="annotation" data-index="10" style="opacity: 1;"><g class="annotation-text-g" transform="rotate(0,287.96000000000004,256.66999999999996)"><g class="cursor-pointer" transform="translate(286,255)"><rect class="bg" x="0.5" y="0.5" width="3" height="3" style="stroke-width: 1px; stroke: rgb(0, 0, 0); stroke-opacity: 0; fill: rgb(0, 0, 0); fill-opacity: 0;"/><text class="annotation-text" text-anchor="middle" x="2" y="2" style="font-family: 'Open Sans', verdana, arial, sans-serif; font-size: 12px; fill: rgb(42, 63, 95); fill-opacity: 1; white-space: pre;"></text></g></g><g class="annotation-arrow-g" style="opacity: 1;"><path d="M286.46000000000004,255.17094102885818L272.02,240.74" style="stroke-width: 1px; stroke: rgb(255, 0, 0); stroke-opacity: 1; stroke-dasharray: 0px, 0px, 18.8648px, 20.4148px;"/><path d="M-4.45,-3L-1.65,-0.2V0.2L-4.45,3L1.55,0Z" transform="translate(273.1163330078125,241.83567810058594)rotate(-135.0185443232859)" style="fill: rgb(255, 0, 0); stroke-width: 0;"/></g></g><g class="annotation" data-index="11" style="opacity: 1;"><g class="annotation-text-g" transform="rotate(0,287.96000000000004,256.66999999999996)"><g class="cursor-pointer" transform="translate(286,255)"><rect class="bg" x="0.5" y="0.5" width="3" height="3" style="stroke-width: 1px; stroke: rgb(0, 0, 0); stroke-opacity: 0; fill: rgb(0, 0, 0); fill-opacity: 0;"/><text class="annotation-text" text-anchor="middle" x="2" y="2" style="font-family: 'Open Sans', verdana, arial, sans-serif; font-size: 12px; fill: rgb(42, 63, 95); fill-opacity: 1; white-space: pre;"></text></g></g><g class="annotation-arrow-g" style="opacity: 1;"><path d="M289.4590589711418,258.16999999999996L303.89,272.61" style="stroke-width: 1px; stroke: rgb(255, 0, 0); stroke-opacity: 1; stroke-dasharray: 0px, 0px, 18.8648px, 20.4148px;"/><path d="M-4.45,-3L-1.65,-0.2V0.2L-4.45,3L1.55,0Z" transform="translate(302.7943420410156,271.5136413574219)rotate(45.024728431573386)" style="fill: rgb(255, 0, 0); stroke-width: 0;"/></g></g><g class="annotation" data-index="12" style="opacity: 1;"><g class="annotation-text-g" transform="rotate(0,325.88,245.21)"><g class="cursor-pointer" transform="translate(324,243)"><rect class="bg" x="0.5" y="0.5" width="3" height="3" style="stroke-width: 1px; stroke: rgb(0, 0, 0); stroke-opacity: 0; fill: rgb(0, 0, 0); fill-opacity: 0;"/><text class="annotation-text" text-anchor="middle" x="2" y="2" style="font-family: 'Open Sans', verdana, arial, sans-serif; font-size: 12px; fill: rgb(42, 63, 95); fill-opacity: 1; white-space: pre;"></text></g></g><g class="annotation-arrow-g" style="opacity: 1;"><path d="M324.38,243.71L323.18,242.51" style="stroke-width: 1px; stroke: rgb(255, 0, 0); stroke-opacity: 1; stroke-dasharray: 0px, 0px, 0.147073px, 1.69707px;"/><path d="M-4.45,-3L-1.65,-0.2V0.2L-4.45,3L1.55,0Z" transform="translate(324.2760009765625,243.6060028076172)rotate(-135)" style="fill: rgb(255, 0, 0); stroke-width: 0;"/></g></g><g class="annotation" data-index="13" style="opacity: 1;"><g class="annotation-text-g" transform="rotate(0,325.88,245.21)"><g class="cursor-pointer" transform="translate(324,243)"><rect class="bg" x="0.5" y="0.5" width="3" height="3" style="stroke-width: 1px; stroke: rgb(0, 0, 0); stroke-opacity: 0; fill: rgb(0, 0, 0); fill-opacity: 0;"/><text class="annotation-text" text-anchor="middle" x="2" y="2" style="font-family: 'Open Sans', verdana, arial, sans-serif; font-size: 12px; fill: rgb(42, 63, 95); fill-opacity: 1; white-space: pre;"></text></g></g><g class="annotation-arrow-g" style="opacity: 1;"><path d="M327.3744649446495,246.71L328.58000000000004,247.92" style="stroke-width: 1px; stroke: rgb(255, 0, 0); stroke-opacity: 1; stroke-dasharray: 0px, 0px, 0.158039px, 1.70804px;"/><path d="M-4.45,-3L-1.65,-0.2V0.2L-4.45,3L1.55,0Z" transform="translate(327.4859924316406,246.82196044921875)rotate(45.105084384461584)" style="fill: rgb(255, 0, 0); stroke-width: 0;"/></g></g></g></svg>